<?xml version="1.0" standalone="no"?>
<!DOCTYPE svg PUBLIC "-//W3C//DTD SVG 1.1//EN" "http://www.w3.org/Graphics/SVG/1.1/DTD/svg11.dtd" >
<svg xmlns="http://www.w3.org/2000/svg">
<metadata>Generated by IcoMoon</metadata>
<defs>
<font id="icomoon" horiz-adv-x="1024">
<font-face units-per-em="1024" ascent="960" descent="-64" />
<missing-glyph horiz-adv-x="1024" />
<glyph unicode="&#x20;" d="" horiz-adv-x="512" />
<glyph unicode="&#xe600;" d="M709.921 789.454c8.139-32.295 8.927-34.974 8.192-68.162-0.263-12.813-7.772-71.943-5.724-90.112 1.628-14.966 5.461-16.174 11.448-28.514 10.398-21.425 6.984-51.095 2.941-72.678-2.206-11.868-6.827-28.725-13.916-38.387-7.667-10.66-23.211-10.713-30.142-23.158-9.872-17.854-4.306-43.008-10.503-62.385-7.142-21.898-25.101-23.421-26.466-52.145 8.822-1.155 17.592-2.468 26.466-3.623 8.822-18.59 25.049-55.874 41.59-67.059 13.863-3.728 27.727-7.457 41.59-11.185 48.627-19.64 102.558-43.061 151.237-63.33 44.373-18.432 97.411-24.996 113.48-70.84 0-31.035 2.941-104.501 2.153-145.25h-965.553c-0.893 40.697 2.153 114.215 2.153 145.25 15.964 45.844 69.002 52.408 113.375 70.84 48.679 20.27 102.61 43.691 151.237 63.33 13.811 3.728 27.674 7.457 41.59 11.185 16.489 11.185 32.715 48.522 41.538 67.059l19.692 4.621c-4.464 24.576-19.85 26.466-26.256 43.743-2.521 26.099-5.041 52.145-7.509 78.192 0.053-1.155-18.117 3.361-20.48 4.779-25.731 15.806-26.204 80.24-28.725 107.021-1.103 12.183 16.174 22.265 11.343 44.636-28.094 131.44 12.183 192.88 75.881 213.307 44.216 17.749 126.871 50.465 203.855 3.728l19.167-17.487 30.93-5.251c15.491-8.77 25.416-38.124 25.416-38.124z" horiz-adv-x="1090" />
<glyph unicode="&#xe601;" d="M529.203 62.008l-468.465 628.209h936.931l-468.465-628.209z" horiz-adv-x="1085" />
<glyph unicode="&#xe602;" d="M976.793-33.858h-910.388v910.388h910.388v-910.388zM912.622 812.359h-782.046v-782.088h782.046v782.088zM221.432 125.348h152.876v372.033h-152.876v-372.033zM466.323 127.914h350.932v366.53h-350.932v-366.53zM221.432 587.659h595.865v147.125h-595.865v-147.125z" horiz-adv-x="1034" />
<glyph unicode="&#xe603;" d="M264.319 639.317c75.685 0 136.98 61.259 136.98 136.944 0 75.649-61.295 136.98-136.98 136.98s-137.017-61.331-137.017-136.98c0-75.649 61.331-136.944 137.017-136.944zM448.929 577.297c-28.962 28.926-63.325 46.252-187.655 46.252s-157.859-18.776-185.335-46.252c-27.44-27.44-18.196-320.43-18.196-320.43l60.824 144.411 38.241-430.334 110.23 220.278 102.907-220.278 36.393 430.334 60.824-144.411c-0.036 0 10.693 291.468-18.233 320.43z" horiz-adv-x="489" />
<glyph unicode="&#xe604;" d="M680.975 874.42c-337.523 0-610.976-273.515-611.038-610.976 0.122-37.72 1.039-251.812 1.039-251.812h1219.997c0 0 0.978 239.219 1.039 251.812-0.183 337.523-273.637 610.976-611.038 610.976zM737.708 750.317c31.117-3.607 61.379-10.271 90.418-19.624l-19.93-61.685c-25.004 8.070-51.169 13.939-78.191 16.995l7.703 64.313zM270.091 274.998h-64.864c0 31.423 3.118 62.235 8.803 92.007l63.702-12.349c-5.135-25.799-7.642-52.392-7.642-79.658zM305.855 443.729l-59.178 26.288c12.655 28.489 28 55.449 45.79 80.636l52.942-37.475c-15.284-21.825-28.611-45.056-39.554-69.449zM407.46 582.993l-43.405 48.113c22.925 20.541 47.807 39.187 74.462 54.96l33.318-55.571c-22.987-13.755-44.567-29.65-64.374-47.501zM536.943 730.693c29.039 9.292 59.178 16.017 90.418 19.624l7.581-64.313c-26.838-3.057-53.003-8.926-78.13-16.995l-19.869 61.685zM761.673 146.616l-152.897-27.205-38.881 150.452 395.172 404.22-203.394-527.467zM1019.476 513.177l52.942 37.414c17.79-25.187 33.257-52.148 45.851-80.636l-59.178-26.288c-10.943 24.454-24.209 47.685-39.615 69.51zM1094.916 274.998c0 27.266-2.69 53.859-7.703 79.658l63.702 12.349c5.808-29.834 8.803-60.645 8.803-92.007h-64.802zM646.006 177.489c26.777-17.056 62.174-9.415 79.291 17.24 17.118 26.593 9.292 62.051-17.301 79.108-26.655 17.24-62.051 9.354-79.23-17.362-17.118-26.349-9.476-61.99 17.24-78.986z" horiz-adv-x="1376" />
<glyph unicode="&#xe605;" d="M24.097 834.683h972.827v-111.922l-410.504-412.792v-238.366l-171.447-87.505v325.871l-390.875 415.877v108.837z" />
<glyph unicode="&#xe606;" d="M454.495 899.249l-402.697-240.513v-457.026l104.632-60.727v457.049l298.157 178.728 299.698-179.142-0.138-455.922 103.528 60.013v457.026l-403.18 240.513zM507.766 617.868v-534.344l-53.271-32.124-53.34 32.262v533.792l-138.090-83.853v-456.934l191.453-115.516 193.087 116.322v456.451l-139.839 83.945z" horiz-adv-x="903" />
<glyph unicode="&#xe607;" d="M870.821 216.311c-64.195 65.89-78.231 188.772-91.738 283.159-20.074 139.937-24.259 297.089-226.008 317.693v25.318c0 25.424-39.195 46.028-64.937 46.028s-62.024-20.551-62.024-46.028v-25.371c-200.054-20.816-206.993-177.914-226.855-317.693-13.453-94.439-27.331-217.268-91.049-283.264-12.818-13.348-16.473-32.998-9.11-49.947 7.362-16.843 24.153-27.913 42.797-27.913h695.343c18.75 0 35.593 11.070 42.903 28.019s3.655 36.653-9.322 50zM489.569-15.735c51.060 0 92.373 40.837 92.373 91.367h-184.694c-0.053-50.53 41.314-91.367 92.32-91.367z" horiz-adv-x="989" />
<glyph unicode="&#xe608;" d="M252.137 794.92l-160.070-92.393 378.042-218.205 160.023 92.393-377.996 218.205zM845.638 701.085l-377.996 218.252-145.222-83.828 377.996-218.205 145.222 83.782zM502.784 421.998v-433.664l376.832 217.507v433.711l-376.832-217.553zM55.668 205.888l376.785-217.507v436.503l-376.785 217.46v-436.457z" horiz-adv-x="954" />
<glyph unicode="&#xe609;" d="M59.153 413.966l164.053-38.141v303.902l-164.053-38.141v-227.621zM1122.198 888.995l-837.712-194.959v-335.978l140.328-376.832 151.712 57.45-104.049 279.113 649.668-151.18v722.385z" horiz-adv-x="1170" />
<glyph unicode="&#xe60a;" d="M736.707-33.086h207.134v322.703h-207.134v-322.703zM399.646-33.086h207.134v946.793h-207.134v-946.793zM62.673-33.042h207.134v634.704h-207.134v-634.704z" horiz-adv-x="991" />
<glyph unicode="&#xe60b;" d="M426.502 335.631c-15.866 13.512-42.796 25.753-80.79 36.723v-198.774c11.535 1.459 23.729 4.331 36.299 8.851 12.618 4.426 23.87 10.829 33.804 19.068 9.981 8.427 18.173 18.55 24.529 30.649 6.638 12.006 9.651 26.365 9.651 42.89 0.047 26.836-7.721 47.222-23.493 60.593zM576.736 211.292c-7.109-23.117-19.774-45.762-38.135-67.749-18.503-22.175-43.079-41.855-74.010-58.992-30.885-17.373-70.432-27.683-118.878-31.12v-88.088h-57.014v88.088c-72.080 5.603-128.483 29.237-169.113 71.374-40.536 42.090-63.935 104.095-70.432 185.544h136.251c-0.753-39.359 8.992-70.479 28.86-93.266 20.15-22.74 44.774-37.335 74.434-43.455v216.523c-3.060 1.318-7.486 2.919-12.994 4.567-5.508 1.789-11.393 3.343-17.938 4.708-23.776 6.827-47.175 15.019-70.291 24.294-23.493 9.369-44.114 21.704-62.523 37.335-18.456 15.584-33.098 34.84-43.879 57.956-11.111 23.211-16.478 51.977-16.478 86.487 0 35.31 6.168 66.336 18.785 93.313 12.665 26.836 29.143 49.529 49.858 67.702 20.621 18.314 44.303 32.58 71.468 42.419 27.071 10.122 55.037 16.149 83.992 18.314v79.66h57.014v-79.66c29.143-3.531 56.308-10.169 81.638-20.292 25.423-10.028 47.787-23.729 67.137-41.478 19.585-17.514 35.357-39.453 47.457-65.771 12.288-26.13 19.35-57.109 21.28-93.172h-137.287c-0.518 27.636-8.616 51.082-23.917 70.432-15.725 19.303-34.275 29.002-56.308 29.002v-183.331c7.862-2.072 15.631-4.143 23.729-6.12 8.098-2.072 16.525-4.567 25.565-7.297 47.645-13.983 84.415-31.12 110.168-51.318 25.8-20.292 44.726-41.666 56.92-63.653 12.335-22.175 19.633-44.256 21.704-66.336 2.448-22.081 3.531-41.713 3.531-59.039 0.047-15.207-3.531-34.416-10.593-57.579zM228.905 684.733c-8.38-7.156-15.113-16.196-19.962-26.883-4.802-10.781-7.062-23.352-7.062-37.759 0-22.834 6.733-40.536 20.103-52.824 13.653-12.618 35.734-22.552 66.713-30.131v168.831c-10.829 0-21.516-1.695-31.826-5.226-10.216-3.437-19.633-8.851-27.966-16.007z" horiz-adv-x="659" />
<glyph unicode="&#xe60c;" d="M555.139 926.506c-218.775 71.601-457.062-40.29-532.231-250.028-75.227-209.681 41.211-437.665 259.928-509.208 218.717-71.601 457.004 40.348 532.231 250.028s-41.211 437.665-259.928 509.208zM320.076 271.103c-158.915 52.089-243.467 217.681-188.903 369.978 54.679 152.296 227.754 233.625 386.669 181.593s243.409-217.624 188.788-369.92c-54.622-152.296-227.696-233.567-386.554-181.65zM638.482 262.354l358.927-349.602 24.807 69.241 24.865 69.241-310.348 302.29z" horiz-adv-x="1109" />
<glyph unicode="&#xe60d;" d="M1098.281 862.698c19.777 3.723 34.901 21.232 34.901 42.347-0.058 23.791-19.196 43.103-42.812 43.103h-900.508c-23.675 0-42.754-19.312-42.754-43.103 0-21.057 15.007-38.566 34.843-42.347l-181.951-354.421v-68.988c0-30.946 32.516-56.016 72.594-56.016 13.437 0 26.001 2.908 36.821 7.795v-466.919h1061.286v466.919c10.878-4.944 23.326-7.795 36.879-7.795 40.078 0 72.594 25.071 72.594 56.016v68.988l-181.893 354.421zM214.758 383.273c-38.217 0-69.221 25.071-69.221 56.016v6.457h-0.349v62.531l137.162 353.665h109.648l-107.961-353.665v-68.988c0 0 0 0 0 0 0-30.946-31.004-56.016-69.279-56.016zM498.447 383.273c-38.217 0-69.221 25.071-69.221 56.016v68.988l57.354 353.665h109.241l-28.095-353.665v-68.93c-0.058-31.004-31.004-56.075-69.279-56.075zM782.077 383.273c-38.217 0-69.162 25.071-69.162 56.016v68.988l-28.154 353.665h108.892l57.296-353.665v-68.988c0-0.931 0.175-1.92 0.233-2.792-1.803-29.666-32.051-53.224-69.104-53.224zM1134.637 439.289c0-30.946-31.004-56.016-69.221-56.016s-69.162 25.071-69.162 56.016v68.988l-108.019 353.665h109.59l137.22-353.665v-62.473h-0.349v-6.515h-0.058z" horiz-adv-x="1280" />
<glyph unicode="&#xe60e;" d="M1024 380.306v116.547l-141.218 46.117-33.219 80.36 63.981 135.383-82.407 82.407-15.458-7.831-117.008-59.477-80.309 33.321-50.57 141.014h-116.496l-5.374-16.533-40.743-124.686-80.258-33.321-135.537 63.981-82.356-82.407 7.882-15.407 59.323-117.059-33.219-80.258-141.014-50.519v-116.547l141.218-46.066 33.219-80.36-63.878-135.383 82.254-82.407 15.458 7.831 117.008 59.425 80.36-33.27 50.468-140.963h116.496l5.426 16.43 40.692 124.737 80.309 33.27 135.383-63.981 82.458 82.407-7.882 15.458-59.374 116.957 33.27 80.36 141.116 50.468zM512 272.92c-90.136 0-163.177 73.040-163.177 163.177s73.040 163.177 163.177 163.177c90.187 0 163.177-73.040 163.177-163.177s-72.989-163.177-163.177-163.177z" />
<glyph unicode="&#xe60f;" d="M944.97 619.106c-97.861 0-177.522-79.581-177.522-177.443 0-97.94 79.66-177.679 177.522-177.679 98.019 0 177.679 79.739 177.679 177.679 0 97.861-79.66 177.443-177.679 177.443zM944.97 948.148c-470.712 0-944.97-512-944.97-512s474.258-512 944.97-512c470.949 0 945.128 512 945.128 512s-474.179 512-945.128 512zM944.97 79.292c-200.057 0-362.292 162.078-362.292 362.45 0 200.057 162.236 362.292 362.292 362.292 200.214 0 362.45-162.236 362.45-362.292 0-200.451-162.236-362.45-362.45-362.45z" horiz-adv-x="1890" />
<glyph unicode="&#xe610;" d="M1020.032 382.593v116.045l-16.41 5.376-124.237 40.525-33.152 80.102 63.718 134.784-82.048 82.125-15.411-7.808-116.531-59.213-80.077 33.178-50.278 140.442h-116.096l-45.875-140.698-80-33.126-134.963 63.744-82.022-82.074 7.834-15.334 59.162-116.608-33.126-80.026-140.518-50.253v-116.147l16.435-5.325 124.288-40.576 33.075-80-63.693-134.886 82.048-82.099 131.942 66.97 80.026-33.152 50.304-140.39h116.096l5.35 16.41 40.55 124.237 80.077 33.178 134.886-63.718 82.074 82.074-7.834 15.386-59.213 116.582 33.203 80.026 140.416 50.253zM510.003 275.559c-89.754 0-162.509 72.832-162.509 162.611 0 89.754 72.755 162.483 162.509 162.483 89.83 0 162.509-72.73 162.509-162.483 0.026-89.805-72.653-162.611-162.509-162.611z" />
<glyph unicode="&#xe611;" d="M509.978 893.722l-509.978-509.926 95.949-95.949 414.106 413.978 413.875-413.978 95.949 95.898-509.901 509.978zM146.253 259.585v-335.437h259.917v304.819h207.514v-304.819h259.917v335.488l-363.622 363.597-363.725-363.648z" />
<glyph unicode="&#xe612;" d="M0 211.738l498.278-287.59v421.402l-498.278 287.667v-421.478zM894.464 723.662v-44.262c0-32.819-62.797-59.418-140.365-59.418-77.466 0-140.262 26.598-140.262 59.418v73.216h0.435c4.71-30.925 65.408-55.475 139.853-55.475 77.568 0 140.365 26.624 140.365 59.29 0 32.845-62.797 59.366-140.365 59.366-6.195 0-12.262-0.205-18.202-0.563l-90.317 52.147v-55.706c0-32.819-62.72-59.392-140.262-59.392-48.691 0-91.597 10.496-116.813 26.47-3.584 3.712-7.987 7.245-13.312 10.598-6.579 6.861-10.24 14.387-10.24 22.323v53.939l-87.322-50.381c-6.272 0.307-12.646 0.614-19.123 0.614-77.491 0-140.314-26.522-140.314-59.366 0-32.691 62.822-59.29 140.314-59.29 74.445 0 135.219 24.525 139.93 55.475h0.384v-73.216c0-32.819-62.746-59.418-140.314-59.418-77.491 0-140.314 26.598-140.314 59.418v43.622l-108.083-62.31 499.994-288.563 496.691 286.694-112.358 64.768zM646.784 540.135c0-32.794-62.874-59.315-140.365-59.315s-140.339 26.522-140.339 59.315v73.267h0.41c4.762-30.95 65.459-55.475 139.93-55.475s135.142 24.525 139.904 55.475h0.486v-73.267zM525.645 341.914v-417.766l498.355 287.718v417.766l-498.355-287.718zM505.318 829.492c77.542 0 140.262 26.547 140.262 59.315s-62.72 59.315-140.262 59.315c-77.491 0-140.339-26.573-140.339-59.315-0.026-32.768 62.822-59.315 140.339-59.315z" />
<glyph unicode="&#xe613;" d="M287.002 466.484c0.205-0.23 0.461-0.486 0.691-0.717l103.347-103.373 36.045 36.045-56.55 56.499 90.266 90.189 11.904-1.28c3.046-0.307 6.093-0.538 9.19-0.538 6.246 0 12.314 0.768 18.253 2.125l-66.381 66.381c-1.357 1.382-2.765 2.611-4.173 3.814 20.454 73.6 1.766 155.725-56.038 213.555-57.421 57.421-138.803 76.237-211.968 56.525l123.955-123.981-32.563-121.446-121.395-32.589-124.032 124.006c-19.712-73.19-0.896-154.573 56.525-212.019 60.262-60.288 147.021-77.952 222.925-53.197zM653.235 392.346c-1.997-8.909-2.509-18.202-1.459-27.546l1.306-11.93-90.189-90.189-56.55 56.55-36.070-36.122 327.219-327.194c20.198-20.173 46.618-30.259 73.062-30.259s52.915 10.086 73.037 30.259c40.346 40.32 40.346 105.728 0 146.074l-290.355 290.355zM905.907-10.214l-51.866-13.875-42.112 42.112 13.901 51.891 51.866 13.926 42.112-42.138-13.901-51.917zM506.701 354.049l56.576-56.576 64.128 64.154c-3.482 31.334 6.707 63.821 30.669 87.808 24.013 23.962 56.474 34.176 87.808 30.72l280.397 280.346-157.056 157.056-280.448-280.397c3.482-31.258-6.682-63.821-30.669-87.782-24.013-23.987-56.525-34.176-87.808-30.643l-64.102-64.205 56.499-56.422-277.043-277.12-10.138 10.138-53.248-42.829-89.421-141.312 22.835-22.835 141.312 89.421 42.803 53.222-10.138 10.138 277.043 277.12z" />
<glyph unicode="&#xe614;" d="M517.99 948.148c-279.398 0-505.882-226.534-505.882-505.958s226.483-505.958 505.882-505.958c279.501 0 506.010 226.534 506.010 505.958s-226.509 505.958-506.010 505.958zM614.835 136.295v274.56h181.53l-278.272 337.203-278.349-337.203h181.555v-274.56z" />
<glyph unicode="&#xe615;" d="M512.794 948.148c-283.187 0-512.794-229.581-512.794-512.794 0-283.187 229.606-512.794 512.794-512.794s512.794 229.632 512.794 512.794c0 283.213-229.581 512.794-512.794 512.794zM512.794-23.065c-253.158 0-458.394 205.261-458.394 458.368 0 253.158 205.261 458.394 458.394 458.394 253.184 0 458.394-205.235 458.394-458.394 0.026-253.107-205.21-458.368-458.394-458.368zM760.013 322.535l30.387 38.4-265.6 206.413-20.787 1.613-259.226-208.026 28.826-39.987 236.8 177.613z" />
<glyph unicode="&#xe616;" d="M512.794 948.148c-283.187 0-512.794-229.581-512.794-512.794 0-283.187 229.606-512.794 512.794-512.794s512.794 229.606 512.794 512.794c0 283.213-229.581 512.794-512.794 512.794zM512.794-23.065c-253.158 0-458.394 205.261-458.394 458.394 0 253.158 205.261 458.394 458.394 458.394 253.184 0 458.394-205.235 458.394-458.394 0.026-253.133-205.21-458.394-458.394-458.394zM265.6 493.748l-30.387-38.4 265.574-206.387 20.813-1.613 259.2 208-28.8 39.987-236.8-177.587z" />
<glyph unicode="&#xe617;" d="M259.2 948.148h214.323v-214.323h-214.323v214.323zM259.2 678.273h214.323v-214.349h-214.323v214.349zM259.2 408.372h214.323v-214.349h-214.323v214.349zM259.2 138.497h214.323v-214.349h-214.323v214.349zM549.325 948.148h214.323v-214.323h-214.323v214.323zM549.325 678.273h214.323v-214.349h-214.323v214.349zM549.325 408.372h214.323v-214.349h-214.323v214.349zM549.325 138.497h214.323v-214.349h-214.323v214.349z" />
<glyph unicode="&#xe618;" d="M860.058 763.086v-272l-430.029 269.158-1.894-253.491-424.371 249.754-3.763-647.834 426.24 241.28-5.606-239.437 439.424 252.16v-259.635h163.942v660.045z" />
<glyph unicode="&#xe619;" d="M163.942 103.041v271.974l430.029-269.133 1.894 253.491 424.397-249.754 3.738 647.834-426.24-241.28 5.606 239.437-439.424-252.16v259.635h-163.942v-660.045z" />
<glyph unicode="&#xe61a;" d="M505.704 907.15c-260.096-3.489-468.158-217.202-464.706-477.336 3.489-259.982 217.202-468.12 477.298-464.631s468.158 217.202 464.706 477.336c-3.413 260.058-217.202 468.12-477.298 464.631zM557.928 750.175c47.863 0 62.009-27.762 62.009-59.544 0-39.671-31.782-76.383-86.016-76.383-45.359 0-66.901 22.831-65.65 60.53 0 31.782 26.624 75.435 89.657 75.435zM435.162 141.767c-32.73 0-56.661 19.873-33.792 107.217l37.547 154.814c6.485 24.841 7.585 34.778 0 34.778-9.785 0-52.262-17.143-77.407-34.057l-16.346 26.776c79.607 66.446 171.16 105.472 210.375 105.472 32.73 0 38.153-38.722 21.807-98.266l-43.008-162.816c-7.585-28.786-4.286-38.722 3.262-38.722 9.785 0 41.984 11.871 73.614 36.75l18.47-24.841c-77.369-77.369-161.792-107.179-194.56-107.179z" />
<glyph unicode="&#xe61b;" d="M591.986 500.129h-16.005v192.019c0 105.851-86.13 192.019-192.019 192.019h-128c-105.851 0-192.019-86.13-192.019-192.019v-192.019h-16.005c-26.396 0-48.014-21.618-48.014-48.014v-479.991c0-26.396 21.618-48.014 48.014-48.014h544.009c26.396 0 48.014 21.618 48.014 48.014v479.991c0 26.396-21.618 48.014-48.014 48.014zM384 52.148h-128l27.838 139.188c-16.801 11.529-27.838 30.872-27.838 52.793 0 35.347 28.672 64.019 64.019 64.019s64.019-28.672 64.019-64.019c0-21.921-11.036-41.263-27.838-52.793l27.838-139.188zM448.019 500.129h-256v192.019c0 35.271 28.71 64.019 64.019 64.019h128c35.271 0 64.019-28.71 64.019-64.019v-192.019z" />
<glyph unicode="&#xe61c;" d="M870.4 630.708h-194.56v-143.36h153.6v-215.040h-634.88v215.040h215.040v-112.64l204.8 184.32-204.8 184.32v-112.64h-256c-56.51 0-102.4-45.815-102.4-102.4v-296.96c0-56.51 45.89-102.4 102.4-102.4h716.8c56.585 0 102.4 45.89 102.4 102.4v296.96c0 56.585-45.815 102.4-102.4 102.4z" />
<glyph unicode="&#xe61d;" d="M991.991 564.148h-351.991v351.991c0 17.673-14.336 32.009-32.009 32.009h-192.019c-17.673 0-32.009-14.336-32.009-32.009v-351.991h-351.991c-17.673 0-32.009-14.336-32.009-32.009v-192.019c0-17.673 14.336-32.009 32.009-32.009h351.991v-351.991c0-17.673 14.336-32.009 32.009-32.009h192.019c17.673 0 32.009 14.336 32.009 32.009v351.991h351.991c17.673 0 32.009 14.336 32.009 32.009v192.019c0 17.673-14.336 32.009-32.009 32.009z" />
<glyph unicode="&#xe61e;" d="M505.704 907.15c-260.096-3.489-468.158-217.126-464.706-477.298 3.489-260.21 217.202-468.158 477.298-464.744 260.134 3.489 468.233 217.202 464.706 477.298-3.489 260.21-217.202 468.233-477.298 464.744zM506.577 845.748c70.163 0.986 136.382-15.853 194.56-46.118l-63.374-105.662c-38.002 18.47-80.631 28.937-125.762 28.937-45.056 0-87.723-10.43-125.687-28.975l-63.336 105.624c54.993 28.672 117.343 45.321 183.599 46.232zM254.255 310.461l-105.586-63.298c-28.672 54.955-45.321 117.305-46.194 183.486-0.986 70.201 15.853 136.457 46.118 194.56l105.624-63.45c-18.546-37.926-28.975-80.555-28.975-125.649 0-45.056 10.43-87.723 28.975-125.687zM517.461 26.586c-70.163-0.986-136.457 15.853-194.56 46.118l63.374 105.662c38.002-18.546 80.631-28.975 125.687-28.975 45.094 0 87.761 10.392 125.687 28.937l63.336-105.586c-54.993-28.634-117.305-45.246-183.561-46.194zM512 210.906c-124.397 0-225.242 100.883-225.242 225.242 0 124.397 100.883 225.28 225.242 225.28 124.473 0 225.28-100.883 225.28-225.28s-100.807-225.242-225.28-225.242zM769.745 310.461c18.546 38.002 28.975 80.631 28.975 125.687 0 45.094-10.43 87.723-28.975 125.687l105.586 63.374c28.672-54.993 45.359-117.305 46.232-183.561 0.91-70.201-15.929-136.457-46.194-194.56l-105.624 63.336z" />
<glyph unicode="&#xe61f;" d="M906.126 812.335v0c-91.174 75.89-202.487 113.171-312.548 113.057-127.014 0.038-253.611-49.683-348.16-145.636l-95.004 79.265-1.593-305.342 300.184 56.282-99.442 82.944c67.546 64.247 155.269 97.204 244.015 97.28 79.948-0.038 159.782-26.7 226.114-81.806 84.347-70.125 127.659-170.629 127.772-272.46-0.038-14.715-0.948-29.431-2.769-44.070l137.519 26.283c0.19 5.954 0.303 11.871 0.303 17.787 0.152 140.098-60.151 279.78-176.431 376.415zM839.035 181.172c-67.736-65.498-156.255-99.025-245.912-99.1-79.986 0.038-159.82 26.738-226.114 81.806-84.347 70.125-127.697 170.629-127.772 272.498 0 16.839 1.252 33.716 3.679 50.366l-138.164-25.941c-0.379-8.116-0.683-16.346-0.683-24.462-0.114-140.174 60.226-279.817 176.545-376.491 91.136-75.852 202.411-113.057 312.51-112.981h0.341c127.924 0 255.241 50.441 349.943 147.759l90.795-75.207 0.569 305.38-299.956-57.344 104.183-86.281z" horiz-adv-x="1176" />
<glyph unicode="&#xe620;" d="M593.351 926.416c-270.753 0-490.268-219.477-490.268-490.231s219.515-490.268 490.268-490.268 490.231 219.515 490.231 490.268c0 270.753-219.477 490.231-490.231 490.231zM828.947 264.495l-72.363-72.363-162.095 162.133-164.902-164.902-73.121 73.121 164.902 164.902-161.678 161.678 72.363 72.325 161.602-161.678 165.774 165.736 73.121-73.083-165.774-165.736 162.171-162.133z" horiz-adv-x="1176" />
<glyph unicode="&#xe621;" d="M254.976 272.308v267.264h103.424l-179.2 203.776-179.2-203.776h103.424v-308.224c0-56.51 45.815-102.4 102.4-102.4h459.776l-131.186 143.36h-279.438zM920.538 332.724v308.224c0 56.51-45.89 102.4-102.4 102.4h-459.738l131.11-143.36h279.514v-267.264h-103.424l179.2-203.776 179.2 203.776h-103.462z" />
<glyph unicode="&#xe622;" d="M768 884.129h-128c-105.851 0-192.019-86.13-192.019-192.019v-192.019h-400.005c-26.396 0-48.014-21.618-48.014-48.014v-479.991c0-26.396 21.618-48.014 48.014-48.014h544.009c26.396 0 48.014 21.618 48.014 48.014v479.991c0 26.396-21.618 48.014-48.014 48.014h-16.005v192.019c0 35.271 28.71 64.019 64.019 64.019h128c35.271 0 64.019-28.71 64.019-64.019v-192.019h128v192.019c0 105.851-86.13 192.019-192.019 192.019zM384 52.148h-128l27.838 139.188c-16.801 11.529-27.838 30.872-27.838 52.793 0 35.347 28.672 64.019 64.019 64.019s64.019-28.672 64.019-64.019c0-21.921-11.036-41.263-27.838-52.793l27.838-139.188z" />
<glyph unicode="&#xe623;" d="M593.351 948.148l-593.351-1023.962h1186.74l-593.351 1023.962zM653.236 48.697h-125.421v121.211h125.421v-121.211zM622.175 219.819h-62.502l-34.816 288.313v156.748h131.3v-156.748l-33.982-288.313z" horiz-adv-x="1176" />
<glyph unicode="&#xe624;" d="M0 436.148l512-512v320.019h512v384h-512v320.019z" />
<glyph unicode="&#xe625;" d="M1024 436.148l-512 512v-320.019h-512v-384h512v-320.019z" />
<glyph unicode="&#xe626;" d="M402.735 801.413l-320.019-320.019c-24.993-24.993-24.993-65.498 0-90.491l320.019-320.019c24.993-24.993 65.498-24.993 90.491 0s24.993 65.498 0 90.491l-210.754 210.754h613.49c35.347 0 64.019 28.634 64.019 64.019s-28.672 64.019-64.019 64.019h-613.49l210.754 210.754c12.478 12.478 18.735 28.862 18.735 45.246s-6.258 32.768-18.735 45.246c-24.993 24.993-65.498 24.993-90.491 0z" />
<glyph unicode="&#xe627;" d="M507.259 369.626h-102.059v-101.717h102.059v101.717zM650.885 233.434h-101.945v-101.717h101.945v101.717zM507.259 233.434h-102.059v-101.717h102.059v101.717zM507.259 505.818h-102.059v-101.679h102.059v101.679zM843.131 704.057c23.4 0 42.287 18.887 42.287 42.174v145.408c0 23.324-18.887 42.174-42.287 42.174s-42.325-18.849-42.325-42.174v-145.408c0.038-23.324 18.925-42.174 42.325-42.174zM343.419 704.057c23.362 0 42.249 18.887 42.249 42.174v145.408c0 23.324-18.887 42.174-42.249 42.174-23.4 0-42.325-18.849-42.325-42.174v-145.408c0-23.324 18.925-42.174 42.325-42.174zM363.444 369.626h-102.059v-101.717h102.059v101.717zM363.444 233.434h-102.059v-101.717h102.059v101.717zM650.885 369.626h-101.945v-101.717h101.945v101.717zM938.325 369.626h-102.059v-101.717h102.059v101.717zM938.325 505.818h-102.059v-101.679h102.059v101.679zM899.337 863.763v-46.914c17.598-15.474 28.71-38.153 28.71-63.412 0-46.801-37.964-84.764-84.916-84.764s-84.954 37.964-84.954 84.764c0 25.259 11.15 47.938 28.71 63.412v46.914h-387.262v-46.914c17.56-15.474 28.71-38.153 28.71-63.412 0-46.801-38.002-84.764-84.916-84.764s-84.954 37.964-84.954 84.764c0 25.259 11.15 47.938 28.71 63.412v46.914h-192.322v-925.279h997.035v925.279h-192.512zM999.234 32.844h-809.832v589.938h809.832v-589.938zM650.885 505.818h-101.945v-101.679h101.945v101.679zM794.624 505.818h-101.983v-101.679h101.983v101.679zM794.624 233.434h-101.983v-101.717h101.983v101.717zM794.624 369.626h-101.983v-101.717h101.983v101.717z" horiz-adv-x="1176" />
<glyph unicode="&#xe628;" d="M132.21 661.39c-13.881 13.729-36.295 13.729-50.138 0-13.805-13.653-13.805-35.878 0-49.607l404.897-400.877c13.881-13.729 36.257-13.729 50.138 0l404.897 400.877c13.805 13.729 13.881 35.878 0 49.607s-36.371 13.729-50.138 0.038l-379.866-365.606-379.79 365.568z" />
<glyph unicode="&#xe629;" d="M737.242 56.358c13.729-13.881 13.729-36.257 0-50.138s-35.878-13.881-49.607 0l-400.877 404.821c-13.729 13.881-13.729 36.295 0 50.138l400.877 404.897c13.729 13.881 35.878 13.881 49.607 0s13.729-36.257 0-50.138l-365.568-379.79 365.568-379.79z" />
<glyph unicode="&#xe62a;" d="M286.72 56.358c-13.729-13.881-13.729-36.257 0-50.138s35.878-13.881 49.607 0l400.877 404.821c13.729 13.881 13.729 36.295 0 50.138l-400.915 404.897c-13.729 13.881-35.878 13.881-49.607 0s-13.729-36.257 0-50.138l365.568-379.79-365.568-379.79z" />
<glyph unicode="&#xe62b;" d="M891.79 210.906c13.881-13.729 36.295-13.729 50.138 0 13.881 13.729 13.881 35.878 0 49.607l-404.897 400.877c-13.805 13.729-36.257 13.729-50.062 0l-404.897-400.877c-13.805-13.729-13.881-35.878 0-49.607s36.257-13.729 50.138 0l379.79 365.606 379.79-365.606z" />
<glyph unicode="&#xe62c;" d="M574.767 855.988c-227.593 0-412.672-182.386-418.247-409.335h-125.8l188.378-209.92 188.302 209.92h-146.242c5.537 168.998 143.777 304.393 313.609 304.393 173.397 0 313.913-140.971 313.913-314.899s-140.478-314.861-313.913-314.861c-69.48 0-133.689 22.718-185.685 61.099l-71.983-76.99c70.997-55.751 160.465-89.050 257.707-89.050 231.159 0 418.551 187.961 418.551 419.84-0.038 231.879-187.43 419.84-418.551 419.84z" />
<glyph unicode="&#xe62d;" d="M996.617 821.362l-513.555-513.555-256.796 256.834-128.379-128.417 385.214-385.252 641.896 642.010z" horiz-adv-x="1176" />
<glyph unicode="&#xe62e;" d="M512 907.188c-260.134 0-471.040-210.944-471.040-471.040 0-260.134 210.906-471.040 471.040-471.040s471.040 210.906 471.040 471.040c0 260.134-210.906 471.040-471.040 471.040zM512 67.508c-203.624 0-368.64 165.054-368.64 368.64s165.016 368.64 368.64 368.64 368.64-165.054 368.64-368.64-165.016-368.64-368.64-368.64zM547.84 702.388h-71.68v-281.069l174.345-174.345 50.669 50.707-153.335 153.335z" />
<glyph unicode="&#xe62f;" d="M92.312 870.476l924.331-924.369 77.672 77.71-924.293 924.331-77.71-77.672zM1094.391 870.438l-924.369-924.369-77.672 77.71 924.331 924.369 77.71-77.71z" horiz-adv-x="1176" />
<glyph unicode="&#xe630;" d="M337.541-72.856h513.024l64.512 645.916h-639.128l61.592-645.916zM737.394 793.979v116.508c0 19.191-15.398 34.702-34.361 34.702h-217.847c-19.001 0-34.361-15.55-34.361-34.702v-114.574c-73.576-8.382-150.149-24.614-226.494-52.338v-106.989h738.001v109.833c0 0-90.074 31.403-224.977 47.559zM668.937 800.389c-47.749 3.224-99.252 4.096-153.297 0.986v61.44c0 9.519 7.623 17.332 17.143 17.332h118.936c9.519 0 17.218-7.813 17.218-17.332v-62.426z" horiz-adv-x="1176" />
<glyph unicode="&#xe631;" d="M928.503 921.259l-111.502-112.109 156.065-156.9 111.502 112.071-156.065 156.937zM215.002 203.738l156.065-156.9 535.211 538.093-156.065 156.9-535.211-538.093zM103.917-59.013l188.985 49.873-139.302 140.098-49.683-190.009z" horiz-adv-x="1176" />
<glyph unicode="&#xe632;" d="M1014.67 125.497c0 0 0 0 0 0l-310.651 310.651 310.651 310.651c0 0 0 0 0 0 3.337 3.337 5.765 7.244 7.32 11.416 4.248 11.378 1.82 24.69-7.32 33.83l-146.735 146.735c-9.14 9.14-22.452 11.567-33.83 7.32-4.172-1.555-8.078-3.982-11.416-7.32 0 0 0 0 0 0l-310.651-310.651-310.651 310.651c0 0 0 0 0 0-3.337 3.337-7.244 5.765-11.416 7.32-11.378 4.248-24.69 1.82-33.83-7.32l-146.735-146.735c-9.14-9.14-11.567-22.452-7.32-33.83 1.555-4.172 3.982-8.078 7.32-11.416 0 0 0 0 0 0l310.651-310.651-310.651-310.651c0 0 0 0 0 0-3.337-3.337-5.765-7.244-7.32-11.416-4.248-11.378-1.82-24.69 7.32-33.83l146.735-146.735c9.14-9.14 22.452-11.567 33.83-7.32 4.172 1.555 8.078 3.982 11.416 7.32 0 0 0 0 0 0l310.651 310.651 310.651-310.651c0 0 0 0 0 0 3.337-3.337 7.244-5.765 11.416-7.32 11.378-4.248 24.69-1.82 33.83 7.32l146.735 146.735c9.14 9.14 11.567 22.452 7.32 33.83-1.555 4.172-3.982 8.078-7.32 11.416z" />
<glyph unicode="&#xe633;" d="M593.351 925.582c-270.336 0-489.434-219.098-489.434-489.358s219.098-489.434 489.434-489.434 489.434 219.136 489.434 489.434-219.136 489.358-489.434 489.358zM635.752 121.552c-11.985-11.719-26.396-17.636-43.16-17.636-8.154 0-15.967 1.517-23.4 4.589-7.358 3.034-13.843 7.168-19.456 12.174-5.613 5.158-10.126 11.226-13.388 18.356-3.337 7.13-4.968 14.753-4.968 22.945 0 16.308 5.992 30.303 17.977 42.060 11.947 11.681 26.396 17.598 43.198 17.598 16.308 0 30.606-5.689 42.78-16.801 12.25-11.188 18.318-24.993 18.318-41.339-0.038-16.384-5.992-30.303-17.939-41.984zM778.923 565.475c-3.982-13.767-9.747-26.396-17.18-37.774-7.471-11.454-16.498-22.49-27.079-33.071s-22.49-21.618-35.65-33.033c-11.454-9.785-20.783-18.318-27.913-25.79-7.168-7.396-12.895-14.867-17.218-22.338-4.286-7.433-7.282-15.398-9.026-24.007-1.707-8.609-2.617-49.721-2.617-62.35v-22.338h-101.376v32.616c0 13.729 0.986 56.661 3.034 67.584s5.158 21.125 9.481 30.872 10.012 19.228 17.18 28.369c7.168 9.14 16.232 18.887 27.079 29.203l38.647 36.902c10.847 9.747 20.177 20.632 27.951 32.616 7.737 12.060 11.529 26.7 11.529 43.88 0 22.3-6.978 41.036-21.011 56.206-14.071 15.17-33.944 22.793-59.695 22.793-13.16 0-25.069-2.389-35.65-7.282-10.619-4.817-19.797-11.454-27.496-19.759-7.737-8.344-13.577-17.901-17.598-28.786-3.982-10.847-6.334-21.997-6.865-33.527l-105.624 9.444c3.413 27.496 10.733 51.959 21.921 73.463 11.112 21.466 25.562 39.595 43.311 54.575 17.711 14.829 38.078 26.169 61.023 33.944 22.869 7.699 47.521 11.605 73.842 11.605 24.614 0 47.976-3.603 70.049-10.771 21.959-7.168 41.491-17.711 58.406-31.782 16.839-14.033 30.227-31.365 39.936-51.959 9.709-20.632 14.564-44.411 14.564-71.263 0-18.356-2.010-34.475-5.992-48.166z" horiz-adv-x="1176" />
<glyph unicode="&#xe634;" d="M574.805 855.988c-227.631 0-412.71-182.386-418.247-409.335h-125.838l188.378-209.958 188.302 209.958h-146.242c5.537 168.998 143.777 304.393 313.647 304.393 173.359 0 313.875-140.971 313.875-314.899s-140.478-314.861-313.875-314.861c-69.518 0-133.727 22.718-185.761 61.099l-71.983-76.99c71.073-55.751 160.503-89.050 257.745-89.050 231.121 0 418.513 187.961 418.513 419.84-0.038 231.879-187.43 419.84-418.513 419.84zM537.6 661.428v-240.109l153.865-153.865 50.669 50.669-132.855 132.855v210.413h-71.68z" />
<glyph unicode="&#xe635;" d="M383.462 370.638h255.693v213.043h127.795l-255.642 255.667-255.642-255.667h127.795zM852.173 370.638v-170.394h-681.754v170.394h-170.419v-340.89h1022.618v340.89z" />
<glyph unicode="&#xe636;" d="M639.155 839.348h-255.693v-213.043h-127.795l255.667-255.667 255.616 255.667h-127.795zM852.173 370.638v-170.394h-681.754v170.394h-170.419v-340.89h1022.618v340.89z" />
<glyph unicode="&#xe637;" d="M1021.85 437.223c0-282.176-228.749-510.925-510.925-510.925s-510.925 228.749-510.925 510.925c0 282.176 228.749 510.925 510.925 510.925s510.925-228.749 510.925-510.925z" />
<glyph unicode="&#xe638;" d="M510.413 948.148c-281.907 0-510.413-228.582-510.413-510.413 0-281.933 228.506-510.464 510.413-510.464s510.387 228.557 510.387 510.464c0 281.83-228.48 510.413-510.387 510.413zM865.843 437.735c0-69.99-20.506-135.27-55.578-190.285l-490.163 490.163c55.091 35.021 120.32 55.475 190.31 55.475 195.942 0 355.43-159.411 355.43-355.354zM154.957 437.735c0 69.939 20.506 135.245 55.578 190.31l490.189-490.189c-55.066-35.072-120.371-55.501-190.31-55.501-195.942-0.026-355.456 159.437-355.456 355.379z" />
<glyph unicode="&#xe639;" d="M511.77 948.148c-282.778 0-512.102-229.222-512.102-512.179 0-282.829 229.325-512.102 512.102-512.102 282.931-0.026 512.23 229.248 512.23 512.102 0 282.957-229.299 512.179-512.23 512.179zM143.718 528.18h736.205v-184.269h-736.205v184.269z" />
</font>
</defs>
</svg>
