<?xml version="1.0" standalone="no"?>
<!DOCTYPE svg PUBLIC "-//W3C//DTD SVG 1.1//EN" "http://www.w3.org/Graphics/SVG/1.1/DTD/svg11.dtd" >
<svg xmlns="http://www.w3.org/2000/svg">
<metadata>
This is a custom SVG font generated by IcoMoon.
<iconset grid="16"></iconset>
</metadata>
<defs>
<font id="MUI-Icons" horiz-adv-x="512" >
<font-face units-per-em="512" ascent="480" descent="-32" />
<missing-glyph horiz-adv-x="512" />
<glyph unicode="&#xe001;" d="M 470.70,72.193l-2.688,2.688l 0.006,0.002L 360.505,182.408c 14.938,25.732, 23.612,55.564, 23.816,87.451
						c 0.626,97.615-77.986,177.243-175.599,177.857c-0.394,0.001-0.771,0.002-1.168,0.002
						c-97.06-0.006-176.063-78.391-176.688-175.598c-0.618-97.609, 77.999-177.236, 175.597-177.859
						c 0.389-0.002, 0.766-0.004, 1.155-0.004c 32.438,0.00, 62.846,8.79, 88.998,24.075l 107.415-107.433l 0.014,0.01l 2.688-2.688
						c 8.125-8.123, 21.293-8.114, 29.41,0.00l 34.562,34.557C 478.819,50.895, 478.822,64.07, 470.70,72.193z M 300.39,177.58
						c-24.834-24.67-57.78-38.252-92.768-38.252l-0.874,0.00 c-72.589,0.467-131.271,59.908-130.813,132.503
						c 0.465,72.128, 59.516,130.811, 131.626,130.815l 0.879-0.002c 35.168-0.22, 68.146-14.123, 92.852-39.148
						c 24.706-25.025, 38.188-58.178, 37.966-93.352C 339.031,235.128, 325.229,202.25, 300.39,177.58zM 223.902,351.597L 192.104,351.597L 192.104,287.997L 128.503,287.997L 128.503,256.203L 192.104,256.203L 192.104,192.604L 223.902,192.604L 223.902,256.203L 287.501,256.203L 287.501,287.997L 223.902,287.997 					z"  />
<glyph unicode="&#xe002;" d="M 466.996,351.685c-3.893,12.271-9.538,21.313-21.31,21.313c0.00,0.00-80.181,11.00-189.351,11.00c-109.169,0.00-188.677-11.00-188.677-11.00
					c-11.77,0.00-16.889-8.316-21.313-21.313c0.00,0.00-13.67-31.687-13.67-127.685s 13.67-131.685, 13.67-131.685
					c 5.282-11.107, 9.543-21.313, 21.313-21.313c0.00,0.00, 92.343-7.00, 188.34-7.00s 189.688,9.00, 189.688,9.00c 11.771,0.00, 18.218,10.248, 21.31,21.313
					c0.00,0.00, 13.00,49.185, 13.00,129.185S 466.996,351.685, 466.996,351.685z M 192.002,134.882L 192.002,313.118 L 346.358,224.00L 192.002,134.882z" />
<glyph unicode="&#xe003;" d="M 259.559,206.271L 198.73,29.528c 18.165-5.344, 37.372-8.263, 57.27-8.263c 23.607,0.00, 46.25,4.077, 67.32,11.492
					c-0.539,0.868-1.039,1.793-1.451,2.795L 259.559,206.271z M 392.855,234.231c0.00,25.062-9.006,42.404-16.719,55.904
					c-10.273,16.708-19.912,30.844-19.912,47.551c0.00,18.63, 14.131,35.979, 34.045,35.979c 0.896,0.00, 1.754-0.108, 2.625-0.165
					c-36.064,33.048-84.119,53.225-136.896,53.225c-70.82,0.00-133.128-36.34-169.375-91.37c 4.757-0.153, 9.241-0.244, 13.044-0.244
					c 21.196,0.00, 54.027,2.576, 54.027,2.576c 10.929,0.639, 12.213-15.416, 1.30-16.707c0.00,0.00-10.985-1.282-23.198-1.929l 73.815-219.589
					l 44.372,133.051l-31.584,86.541c-10.92,0.645-21.262,1.926-21.262,1.926c-10.927,0.646-9.646,17.347, 1.288,16.707
					c0.00,0.00, 33.47-2.576, 53.39-2.576c 21.199,0.00, 54.031,2.576, 54.031,2.576c 10.93,0.64, 12.217-15.414, 1.297-16.707
					c0.00,0.00-11.00-1.281-23.203-1.926l 73.262-217.916l 20.23,67.559C 386.182,196.747, 392.855,216.881, 392.855,234.231z M 357.918,48.78
					c 60.27,35.14, 100.803,100.438, 100.803,175.227c0.00,35.246-9.004,68.381-24.83,97.254c 0.871-6.455, 1.365-13.382, 1.365-20.847
					c0.00-20.563-3.854-43.688-15.416-72.608L 357.918,48.78z M 53.28,224.007c0.00-80.24, 46.624-149.592, 114.259-182.448l-96.705,264.95
					C 59.581,281.298, 53.28,253.397, 53.28,224.007z M 255.996-19.985c-134.53,0.00-243.98,109.457-243.98,243.993
					c0.00,134.527, 109.448,243.978, 243.98,243.978c 134.528,0.00, 243.988-109.449, 243.988-243.978
					C 499.986,89.472, 390.526-19.985, 255.996-19.985z" />
<glyph unicode="&#xe004;" d="M 511.998,192.10L 224.002,192.10L 224.002,7.489L 511.998-32.01 
											zM 192.002,192.10L-0.012,192.10L-0.012,39.671L 192.002,10.416 
											zM 192.002,406.668L-0.012,377.284L-0.012,223.598L 192.002,223.598 
											zM 511.998,223.598L 511.998,447.50L 224.002,409.463L 224.002,223.598 
											z" />
<glyph unicode="&#xe005;" d="M 206.569,224.042c-23.637,12.147-46.615,18.31-68.313,18.31c-2.951,0.00-5.921-0.088-8.892-0.35
					c-27.686-2.292-52.974-9.595-69.239-15.273c-4.314-1.584-8.736-3.258-13.292-5.106L 2.331,67.344
					c 30.569,11.313, 57.616,16.814, 82.378,16.814c 40.054,0.00, 69.128-14.966, 93.14-30.373c 11.376,38.604, 38.667,131.833, 46.812,159.694
					C 218.738,217.089, 212.731,220.697, 206.569,224.042z M 264.10,184.824l-44.812-155.644c 13.294-7.615, 58.017-31.732, 92.259-31.732
					c 27.641,0.00, 58.588,7.082, 94.547,21.695l 42.786,149.614c-29.05-9.375-56.915-14.131-82.97-14.131
					C 318.371,154.627, 285.096,170.035, 264.10,184.824z M 147.409,294.954c 38.208-0.396, 66.464-14.967, 89.882-29.976l 45.954,157.227
					c-9.685,5.547-35.081,19.369-53.438,24.079c-12.082,2.816-24.782,4.269-38.251,4.269c-25.663-0.483-53.701-6.909-85.657-19.719
					L 62.082,276.949c 32.109,12.107, 59.773,18.005, 85.259,18.005C 147.364,294.954, 147.409,294.954, 147.409,294.954z M 509.669,379.509
					c-29.14-11.313-57.575-17.076-84.735-17.076c-45.426,0.00-78.922,15.756-100.623,30.899l-45.556-157.67
					c 30.592-19.672, 63.561-29.666, 98.158-29.666c 28.215,0.00, 57.442,6.776, 86.933,20.158l-0.091,1.102l 1.851,0.438L 509.669,379.509z" />
<glyph unicode="&#xe006;" d="M 497.573,54.108L 268.433,440.634c-2.945,5.237-8.634,8.138-14.595,7.183c-4.403-0.699-8.153-3.409-10.269-7.183
							L 14.429,54.108c-2.514-4.467-2.518-10.199,0.00-14.646c 2.553-4.506, 7.277-7.46, 12.423-7.46l 458.294,0.00 
							c 5.135,0.00, 9.876,2.954, 12.428,7.46C 500.087,43.909, 500.087,49.642, 497.573,54.108z M 61.171,64.149L 256.00,395.105
							l 194.557-330.956L 61.171,64.149 zM 257.251,138.854c-13.655,0.00-24.724-11.319-24.724-25.289c0.00-13.971, 11.068-25.29, 24.724-25.29
							s 24.724,11.319, 24.724,25.29C 281.975,127.535, 270.906,138.854, 257.251,138.854zM 239.835,160.002L 272.693,160.002L 279.811,319.998L 232.729,319.998 						z" />
<glyph unicode="&#xe007;" d="M 428.26,271.336c-17.425,0.00-164.791,0.00-164.791,0.00s 12.625,48.421, 17.183,81.404
											c 4.653,33.547-5.064,60.663-5.064,60.663s-16.546,42.303-21.052,44.116c-27.224,10.979-41.333-4.307-41.333-4.307
											s0.00-62.789,0.00-71.317c0.00-7.919-1.445-13.601-1.445-13.601s-68.23-106.349-76.179-114.113
											c-7.955-7.778-39.428-22.117-39.428-22.117s0.00-175.948,0.00-192.961c 1.949-3.057, 33.037,1.104, 33.831-5.85
											c 0.788-6.943, 35.429-33.252, 35.429-33.252s 163.579,0.00, 181.953,0.00s 49.90,8.939, 54.987,20.781
											c 8.712,20.289-2.082,33.68-1.728,39.291c 0.357,5.609, 27.639,9.498, 27.639,33.52c 3.612,29.285-14.391,27.271-13.421,34.07
											c 0.98,6.801, 22.257,9.203, 26.379,24.717c 3.155,11.947, 5.866,34.635-12.967,44.708
											C 490.329,218.555, 458.143,271.336, 428.26,271.336z" />
<glyph unicode="&#xe008;" d="M 428.26,250.91c 18.83,10.072, 16.122,32.761, 12.968,44.708c-4.123,15.515-25.402,17.917-26.38,24.717
											c-0.973,6.799, 17.033,4.783, 13.421,34.069c0.00,24.023-27.281,27.912-27.636,33.521c-0.354,5.609, 10.437,19.003, 1.725,39.29
											c-5.087,11.844-36.612,20.782-54.987,20.782c-18.374,0.00-181.953,0.00-181.953,0.00s-34.638-26.308-35.429-33.25
											c-0.794-6.955-31.882-2.792-33.831-5.85c0.00-17.015,0.00-192.964,0.00-192.964s 31.474-14.338, 39.428-22.117
											c 7.948-7.764, 76.183-114.111, 76.183-114.111s 1.441-5.684, 1.441-13.60c0.00-8.529,0.00-71.318,0.00-71.318
											s 14.109-15.285, 41.333-4.309c 4.508,1.814, 21.053,44.117, 21.053,44.117s 9.718,27.115, 5.067,60.66
											c-4.559,32.984-17.187,81.404-17.187,81.404s 147.366,0.00, 164.792,0.00C 458.143,176.662, 490.329,229.444, 428.26,250.91z" />
<glyph unicode="&#xe009;" d="M 479.194,328.27c-25.192-141.915-165.958-262.095-208.297-289.552c-42.348-27.455-80.973,10.994-94.983,40.054
					c-16.035,33.166-64.104,212.868-76.683,227.765c-12.585,14.866-50.354-14.896-50.354-14.896L 30.56,315.658
					c0.00,0.00, 76.695,91.58, 135.047,103.026c 61.872,12.141, 61.781-95.006, 76.663-154.485c 14.389-57.542, 24.063-90.471, 36.626-90.471
					c 12.591,0.00, 36.636,32.096, 62.947,81.286c 26.363,49.242-1.139,92.74-52.649,61.791C 309.804,440.436, 504.375,470.161, 479.194,328.27z" />
<glyph unicode="&#xe00a;" d="M 352.264,277.059l0.00-106.112 L 480.00,95.498L 480.00,351.497 L 352.264,277.059z M 299.569,351.497L 53.988,351.497 
										c-11.77,0.00-21.313-9.542-21.313-21.313l0.00-212.869 c0.00-11.771, 9.543-21.313, 21.313-21.313l 245.581,0.00 
										c 11.771,0.00, 21.31,9.537, 21.31,21.313L 320.879,330.184 C 320.876,341.955, 311.341,351.497, 299.569,351.497" />
<glyph unicode="&#xe00b;" d="M 412.316,125.949c-20.918,8.813-76.904,30.871-82.859,32.495c-7.107,4.888-14.07,21.151-17.877,29.236
				c-3.789,0.544-7.574,1.087-11.377,1.624c 0.586,12.514, 8.334,13.182, 11.377,22.742c 2.676,8.432, 0.279,19.387, 4.527,27.197
				c 2.945,5.422, 9.617,5.457, 12.949,10.104c 3.02,4.216, 5.016,11.567, 5.955,16.732c 1.715,9.441, 3.217,22.354-1.268,31.716
				c-2.57,5.38-4.199,5.897-4.918,12.426c-0.867,7.914, 2.332,33.72, 2.467,39.30c 0.326,14.477-0.025,15.654-3.527,29.754
				c0.00,0.00-4.254,12.773-10.924,16.631L 303.547,398.20l-8.217,7.615c-33.106,20.365-68.602,6.081-87.613-1.623
				c-27.389-8.893-44.709-35.711-32.618-93.018c 2.063-9.789-5.361-14.164-4.877-19.502c 1.062-11.678, 1.287-39.758, 12.322-46.672
				c 1.024-0.642, 8.854-2.605, 8.803-2.068c 1.085-11.375, 2.167-22.754, 3.247-34.125c 2.756-7.553, 9.366-8.383, 11.288-19.063
				l-8.459-2.063c-3.802-8.085-10.771-24.341-17.876-29.236c-5.955-1.624-61.941-23.683-82.861-32.495
				c-19.05-8.036-34.543-21.347-34.543-47.359c0.00-26.015-0.388-29.216-0.058-45.959l 384.914-0.918
				c0.00,17.815, 0.059,33.315, 0.059,46.877C 447.057,102.137, 431.367,117.913, 412.316,125.949zM 493.723,177.562c-11.002,4.635-40.446,16.237-43.581,17.091c-3.737,2.57-7.399,11.124-9.401,15.376
				c-1.993,0.286-3.983,0.572-5.983,0.854c 0.307,6.581, 4.383,6.934, 5.983,11.961c 1.407,4.434, 0.147,10.197, 2.382,14.305
				c 1.55,2.852, 5.058,2.87, 6.812,5.314c 1.587,2.218, 2.638,6.084, 3.131,8.80c 0.901,4.966, 1.691,11.758-0.667,16.682
				c-1.353,2.829-2.208,3.101-2.585,6.535c-0.459,4.163, 1.225,17.735, 1.297,20.67c 0.171,7.615-0.013,8.233-1.856,15.649
				c0.00,0.00-2.236,6.718-5.746,8.748l-6.99,1.206l-4.322,4.005c-17.412,10.711-36.081,3.198-46.081-0.854
				c-14.404-4.677-23.515-18.782-17.154-48.923c 1.085-5.148-2.82-7.45-2.566-10.257c 0.559-6.143, 0.676-20.912, 6.481-24.548
				c 0.538-0.337, 4.655-1.37, 4.629-1.087c 0.571-5.983, 1.14-11.967, 1.708-17.947c 1.449-3.973, 4.927-4.409, 5.938-10.027l-4.448-1.085
				c-2.00-4.252-5.665-12.802-9.402-15.376c-1.837-0.501-12.729-4.70-23.643-9.022c-2.173-0.861, 2.669-8.846, 14.237-12.501
				c 40.043-12.647, 94.992-44.956, 94.992-44.956l 55.079-0.176c0.00,9.37, 0.032,17.522, 0.032,24.655
				C 511.996,165.037, 503.744,173.335, 493.723,177.562zM 18.275,177.562c 11.002,4.635, 40.447,16.237, 43.581,17.091c 3.738,2.57, 7.40,11.124, 9.402,15.376
				c 1.993,0.286, 3.983,0.572, 5.983,0.854c-0.307,6.581-4.383,6.934-5.983,11.961c-1.407,4.434-0.147,10.197-2.382,14.305
				c-1.549,2.852-5.058,2.87-6.811,5.314c-1.588,2.218-2.639,6.084-3.132,8.80c-0.902,4.966-1.691,11.758, 0.667,16.682
				c 1.353,2.829, 2.209,3.101, 2.586,6.535c 0.458,4.163-1.227,17.735-1.297,20.67c-0.171,7.615, 0.013,8.233, 1.856,15.649
				c0.00,0.00, 2.237,6.718, 5.746,8.748l 6.992,1.206l 4.321,4.005c 17.413,10.711, 36.082,3.198, 46.081-0.854
				c 14.405-4.677, 23.515-18.782, 17.155-48.923c-1.085-5.148, 2.82-7.45, 2.565-10.257c-0.559-6.143-0.676-20.912-6.48-24.548
				c-0.539-0.337-4.657-1.37-4.63-1.087c-0.571-5.983-1.141-11.967-1.708-17.947c-1.449-3.973-4.926-4.409-5.937-10.027l 4.449-1.085
				c 2.00-4.252, 5.665-12.802, 9.402-15.376c 1.837-0.501, 12.729-4.70, 23.642-9.022c 2.174-0.861-2.667-8.846-14.237-12.501
				c-40.042-12.647-94.991-44.956-94.991-44.956l-55.081-0.176c0.00,9.37-0.031,17.522-0.031,24.655
				C 0.002,165.037, 8.254,173.335, 18.275,177.562z" />
<glyph unicode="&#xe00c;" d="M 461.996,351.998L 273.498,351.998 L 238.50,351.998 L 50.002,351.998 c-9.941,0.00-18.00-8.059-18.00-18.00l0.00-251.996 c0.00-9.941, 8.059-18.00, 18.00-18.00c0.00,0.00, 60.537,0.00, 67.082,0.00
					s 10.918,4.455, 10.918,10.824c0.00,4.139,0.00,8.244,0.00,10.467c0.00,5.588-4.325,10.721-9.813,10.721c-3.684,0.00-7.893,0.00-11.67,0.00
					c-6.102,0.00-10.514,4.307-10.514,10.203c0.00,4.529,0.00,5.345,0.00,11.125s 3.349,10.66, 10.514,10.66c 3.366,0.00, 17.463,0.00, 33.267,0.00
					c 2.776,0.00, 5.604,0.00, 8.437,0.00c 15.804,0.00, 29.90,0.00, 33.267,0.00c 7.165,0.00, 10.514-4.88, 10.514-10.66s0.00-6.596,0.00-11.125
					c0.00-5.896-4.412-10.203-10.514-10.203c-3.777,0.00-7.986,0.00-11.67,0.00c-5.488,0.00-9.813-5.133-9.813-10.721c0.00-2.119,0.00-5.949,0.00-9.889
					c0.00-4.417, 3.161-11.402, 9.888-11.402c 2.066,0.00, 30.587,0.00, 69.107,0.00c 11.868,0.00, 23.317,0.00, 33.999,0.00c 38.52,0.00, 67.04,0.00, 69.106,0.00
					c 6.727,0.00, 9.888,6.985, 9.888,11.402c0.00,3.939,0.00,7.77,0.00,9.889c0.00,5.588-4.325,10.721-9.813,10.721c-3.684,0.00-7.893,0.00-11.67,0.00
					c-6.102,0.00-10.514,4.307-10.514,10.203c0.00,4.529,0.00,5.345,0.00,11.125s 3.349,10.66, 10.514,10.66c 3.366,0.00, 17.463,0.00, 33.267,0.00
					c 2.833,0.00, 5.66,0.00, 8.437,0.00c 15.804,0.00, 29.90,0.00, 33.267,0.00c 7.165,0.00, 10.514-4.88, 10.514-10.66s0.00-6.596,0.00-11.125
					c0.00-5.896-4.412-10.203-10.514-10.203c-3.777,0.00-7.986,0.00-11.67,0.00c-5.488,0.00-9.813-5.133-9.813-10.721c0.00-2.223,0.00-6.328,0.00-10.467
					c0.00-6.369, 4.373-10.824, 10.918-10.824s 67.082,0.00, 67.082,0.00c 9.941,0.00, 18.00,8.059, 18.00,18.00L 480.00,333.998 
					C 479.996,343.938, 471.938,351.998, 461.996,351.998z M 222.797,160.861l-7.598,0.00 c 0.001,6.537, 0.022,12.242, 0.022,17.241
					c0.00,8.832-5.885,14.749-13.03,17.763c-7.848,3.307-28.846,11.579-31.08,12.188c-2.667,1.834-5.28,7.935-6.706,10.968
					c-1.421,0.203-2.84,0.407-4.267,0.607c 0.219,4.693, 3.126,4.947, 4.267,8.532c 1.003,3.162, 0.104,7.271, 1.698,10.20
					c 1.105,2.035, 3.607,2.048, 4.858,3.791c 1.131,1.582, 1.881,4.339, 2.232,6.277c 0.645,3.541, 1.208,8.384-0.474,11.896
					c-0.965,2.017-1.576,2.211-1.846,4.66c-0.325,2.97, 0.875,12.648, 0.926,14.742c 0.122,5.431-0.01,5.872-1.323,11.16
					c0.00,0.00-1.596,4.792-4.098,6.238l-4.986,0.86l-3.082,2.856c-12.417,7.638-25.731,2.281-32.863-0.608
					c-10.272-3.336-16.77-13.396-12.234-34.89c 0.774-3.672-2.011-5.313-1.829-7.315c 0.397-4.38, 0.482-14.913, 4.622-17.506
					c 0.383-0.24, 3.32-0.977, 3.301-0.776c 0.407-4.266, 0.813-8.535, 1.219-12.799c 1.033-2.833, 3.513-3.144, 4.233-7.149l-3.172-0.774
					c-1.427-3.033-4.041-9.13-6.706-10.968c-2.233-0.608-23.233-8.881-31.08-12.188c-7.145-3.014-12.956-8.007-12.956-17.763
					c0.00-9.759-0.145-10.958-0.022-17.239l 0.818-0.002l-7.482,0.00 L 64.159,319.50 l 158.638,0.00 L 222.797,160.861 z M 447.996,192.002L 256.002,192.002 l0.00,20.896 l 191.994,0.00 
					L 447.996,192.002 z M 447.996,234.831L 256.002,234.831 l0.00,20.896 l 191.994,0.00 L 447.996,234.831 z M 447.996,288.409L 256.002,288.409 L 256.002,319.50 l 191.994,0.00 L 447.996,288.409 z" />
<glyph unicode="&#xe00d;" d="M 341.438,405.093c 4.086-16.444, 4.494-17.816, 4.115-34.70c-0.157-6.507-3.89-36.603-2.878-45.832
										c 0.838-7.614, 2.737-8.217, 5.736-14.491c 5.229-10.918, 3.478-25.977, 1.478-36.987c-1.095-6.023-3.424-14.597-6.944-19.514
										c-3.886-5.418-11.666-5.459-15.102-11.782c-4.955-9.108-2.16-21.884-5.28-31.717
										c-3.549-11.149-12.585-11.928-13.267-26.521c 4.435-0.626, 8.848-1.26, 13.267-1.895c 4.439-9.428, 12.56-28.395, 20.848-34.095
										c 6.946-1.894, 72.235-27.618, 96.632-37.896c 22.216-9.371, 40.514-27.77, 40.514-55.229c0.00-15.816-0.068-33.892-0.068-54.668
										l-448.883,1.07c-0.385,19.526, 0.067,23.259, 0.067,53.598c0.00,30.335, 18.068,45.858, 40.284,55.229
										c 24.396,10.277, 89.688,36.002, 96.632,37.896c 8.287,5.709, 16.414,24.667, 20.848,34.095l 9.865,2.406
										c-2.241,12.455-9.95,13.424-13.164,22.231c-1.259,13.261-2.521,26.53-3.787,39.795c 0.059-0.626-9.072,1.665-10.267,2.413
										c-12.869,8.063-13.131,40.81-14.369,54.429c-0.565,6.225, 8.094,11.327, 5.688,22.743
										C 149.30,392.502, 169.50,423.777, 201.44,434.148c 22.171,8.984, 63.565,25.642, 102.174,1.893l 9.581-8.88l 15.504-2.673
										C 336.478,419.988, 341.438,405.093, 341.438,405.093" />
<glyph unicode="&#xe00e;" d="M 388.92,302.163c-7.027,0.00-13.911-0.609-20.617-1.732c-16.737,54.689-68.557,94.554-129.936,94.554
									c-74.919,0.00-135.636-59.366-135.636-132.605c0.00-6.534, 0.51-12.956, 1.446-19.247c-3.597,0.413-7.228,0.692-10.935,0.692
									c-50.938,0.00-92.237-40.385-92.237-90.168c0.00-49.81, 41.299-90.174, 92.237-90.174l 130.76,0.00 l0.00,64.52 l-56.678,0.00 l 89.248,117.308
									l 89.245-117.308L 288.00,128.003 l0.00-64.519 l 100.921,0.00 c 67.425,0.00, 122.069,53.43, 122.069,119.339
									C 510.992,248.735, 456.348,302.163, 388.92,302.163z" />
<glyph unicode="&#xe00f;" d="M 384.00,256.00L 256.00,384.00L 128.00,256.00L 384.00,256.00 z M 128.00,160.00l 128.00-128.00l 128.00,128.00L 128.00,160.00 z" />
<glyph unicode="&#xe010;" d="M 202.56,278.828l-55.689,55.691c 28.066,27.734, 66.521,44.819, 109.13,44.819
										c 42.994-0.015, 81.616-17.334, 109.84-45.497c 28.158-28.218, 45.479-66.842, 45.492-109.847l 67.541,0.00 
										C 478.85,347.104, 379.10,446.855, 255.998,446.88c-61.131,0.00-116.631-24.702-156.896-64.598L 47.707,433.679l 0.003-154.851L 202.56,278.828 z
										M 366.408,114.775c-28.175-28.492-67.166-46.114-110.409-46.105c-43.007,0.008-81.625,17.331-109.841,45.492
										c-28.173,28.214-45.483,66.832-45.50,109.832L 33.126,223.994 c 0.018-123.10, 99.767-222.846, 222.873-222.874
										c 61.783,0.008, 117.812,25.24, 158.173,65.894l 50.007-50.011L 464.179,168.10 L 313.086,168.10 L 366.408,114.775z" />
<glyph unicode="&#xe011;" d="M 402.127,223.999l-38.709,0.00 L 199.585,223.999 l-0.003,72.491c0.00,28.30-10.741,54.276-28.521,73.284
									c-17.706,19.012-43.014,31.258-70.917,31.235c-27.905,0.022-53.211-12.224-70.917-31.235
									c-17.785-19.008-28.521-44.985-28.522-73.285l0.00-73.395 l 51.881,0.00 l0.00,11.458 L 22.26,264.875l 30.322,0.00 l0.00,31.613 
									c0.00,15.106, 5.712,28.409, 14.524,37.845c 8.897,9.432, 20.351,14.772, 33.035,14.793c 12.688-0.021, 24.13-5.361, 33.027-14.793
									c 8.823-9.436, 15.436-22.738, 15.432-37.845l0.00-72.49 l-0.021,0.00 l-38.708,0.00 c-7.66,0.00-13.869-6.206-13.869-13.865l0.00-164.199 
									c0.00-7.66, 6.209-13.869, 13.869-13.869l 292.255,0.00 c 7.665,0.00, 13.869,6.209, 13.869,13.869L 415.995,210.132 
									C 415.996,217.793, 409.792,223.999, 402.127,223.999z" />
<glyph unicode="&#xe012;" d="M 224.00,92.186L 224.00-32.00 L 32.00,160.00l 192.00,192.00l0.00-126.912 C 447.375,219.848, 437.794,376.984, 380.931,480.00
					C 521.285,328.293, 491.48,85.215, 224.00,92.186z" />
<glyph unicode="&#xe013;" d="M 79.536,313.536c 26.688,0.00, 48.317,21.619, 48.317,48.307c0.00,26.688-21.633,48.308-48.317,48.308
											c-26.688,0.00-48.321-21.621-48.321-48.308C 31.215,335.156, 52.849,313.536, 79.536,313.536z M 80.632,273.397
											c-26.688,0.00-48.321-21.633-48.321-48.307c0.00-26.688, 21.634-48.32, 48.321-48.32c 26.661,0.00, 48.294,21.633, 48.294,48.32
											C 128.927,251.764, 107.293,273.397, 80.632,273.397z M 79.536,134.49c-26.688,0.00-48.321-21.633-48.321-48.32
											s 21.634-48.321, 48.321-48.321c 26.687,0.00, 48.317,21.636, 48.317,48.321C 127.856,112.857, 106.224,134.49, 79.536,134.49z
											 M 479.93,401.18L 179.733,401.18 l0.00-82.189 L 479.93,318.991 L 479.93,401.18 z M 179.733,44.587l 301.051,0.00 l0.00,83.06 L 179.733,127.647 L 179.733,44.587 z M 179.733,264.546l0.00-83.045 
											l 301.051,0.00 l0.00,83.045 L 179.733,264.546 z" />
<glyph unicode="&#xe014;" d="M 512.00,382.791c-18.839-8.354-39.082-14.001-60.33-16.54c 21.686,13.00, 38.343,33.585, 46.186,58.115
					c-20.298-12.039-42.778-20.78-66.705-25.49c-19.16,20.415-46.461,33.17-76.673,33.17c-58.011,0.00-105.044-47.029-105.044-105.039
					c0.00-8.233, 0.929-16.25, 2.72-23.939c-87.30,4.382-164.70,46.20-216.509,109.753c-9.042-15.514-14.223-33.558-14.223-52.809
					c0.00-36.444, 18.544-68.596, 46.729-87.433c-17.219,0.546-33.416,5.271-47.576,13.139c-0.011-0.438-0.011-0.878-0.011-1.321
					c0.00-50.894, 36.209-93.348, 84.262-103.00c-8.813-2.399-18.095-3.686-27.675-3.686c-6.769,0.00-13.349,0.66-19.764,1.886
					c 13.368-41.729, 52.16-72.103, 98.126-72.948c-35.95-28.174-81.243-44.967-130.458-44.967c-8.479,0.00-16.84,0.497-25.058,1.471
					c 46.485-29.806, 101.701-47.197, 161.021-47.197c 193.211,0.00, 298.868,160.063, 298.868,298.872c0.00,4.554-0.104,9.084-0.305,13.59
					C 480.109,343.227, 497.918,361.727, 512.00,382.791z" />
<glyph unicode="&#xe016;" d="M 442.164,448.415l-141.789-0.003L 34.382,183.809l 183.987-183.992l 261.465,261.466L 479.834,410.746 L 442.164,448.415z
										 M 431.832,346.733c-14.828-14.833-38.88-14.833-53.709,0.00c-14.834,14.827-14.834,38.876,0.00,53.707
										c 14.826,14.839, 38.881,14.839, 53.709,0.004C 446.664,385.61, 446.665,361.559, 431.832,346.733" />
<glyph unicode="&#xe017;" d="M 63.50,416.50l 385.00,0.00 l0.00-385.00 l-385.00,0.00 L 63.50,416.50 z" />
<glyph unicode="&#xe018;" d="M 256.004,377.987l 47.684-99.429c 4.326-9.021, 12.865-15.292, 22.768-16.721l 91.258-13.162l-64.933-67.069
						c-6.173-6.376-9.206-15.158-8.284-23.984l 10.294-98.526l-82.57,52.256c-4.80,3.038-10.363,4.65-16.044,4.65l-0.304,0.00 
						L 256.004,377.987 M 256.006,447.361L 181.263,291.53L 31.897,271.076l 105.769-110.336l-16.769-159.911l 134.975,85.174
						c 0.11,0.00, 0.177,0.00, 0.304,0.00l 134.885-85.363l-16.727,160.101l 105.769,109.248L 330.737,291.53L 256.006,447.361L 256.006,447.361z" />
<glyph unicode="&#xe019;" d="M 256.004,377.987l 47.684-99.429c 4.326-9.021, 12.865-15.292, 22.768-16.721l 91.258-13.162l-64.933-67.069
						c-6.173-6.376-9.206-15.158-8.284-23.984l 10.294-98.526l-82.57,52.256c-4.80,3.038-10.363,4.65-16.044,4.65l-0.304,0.00 
						c-5.667,0.00-11.218-1.605-16.01-4.629l-82.68-52.174l 10.32,98.411c 0.92,8.778-2.072,17.518-8.18,23.889L 94.29,249.34
						l 91.043,12.468c 9.987,1.368, 18.62,7.66, 22.979,16.749L 256.004,377.987 M 256.006,447.361L 181.263,291.53L 31.897,271.076
						l 105.769-110.336l-16.769-159.911l 134.975,85.174c 0.11,0.00, 0.177,0.00, 0.304,0.00l 134.885-85.363l-16.727,160.101l 105.769,109.248
						L 330.737,291.53L 256.006,447.361L 256.006,447.361z" />
<glyph unicode="&#xe01a;" d="M 391.061,0.639l-16.727,160.101l 105.769,109.248L 330.737,291.53L 256.006,447.361L 181.263,291.53L 31.897,271.076
						l 105.769-110.336l-16.769-159.911l 134.975,85.174c 0.11,0.00, 0.177,0.00, 0.304,0.00L 391.061,0.639z" />
<glyph unicode="&#xe01b;" d="M 32.005,64.994L 96.50,64.994L 96.50,0.496L 32.005,0.496zM 32.005,160.745L 192.024,160.745L 192.024,96.248L 32.005,96.248zM 32.005,256.496L 288.00,256.496L 288.00,191.998L 32.005,191.998zM 32.005,352.247L 383.996,352.247L 383.996,287.75L 32.005,287.75zM 32.005,447.998L 479.996,447.998L 479.996,383.501L 32.005,383.501z" />
<glyph unicode="&#xe01c;" d="M 32.005,447.998L 96.50,447.998L 96.50,383.50L 32.005,383.50zM 32.005,352.247L 192.024,352.247L 192.024,287.749L 32.005,287.749zM 32.005,256.496L 288.00,256.496L 288.00,191.998L 32.005,191.998zM 32.005,160.744L 383.996,160.744L 383.996,96.247L 32.005,96.247zM 32.005,64.993L 479.996,64.993L 479.996,0.496L 32.005,0.496z" />
<glyph unicode="&#xe01d;" d="M 160.187,61.865c-16.125,0.00-29.188-13.065-29.188-29.19c0.00-16.127, 13.063-29.188, 29.188-29.188
											c 16.113,0.00, 29.188,13.062, 29.188,29.188C 189.372,48.80, 176.30,61.865, 160.187,61.865z M 255.917,61.865
											c-16.126,0.00-29.19-13.065-29.19-29.19c0.00-16.127, 13.064-29.188, 29.19-29.188c 16.108,0.00, 29.179,13.062, 29.179,29.188
											C 285.096,48.80, 272.028,61.865, 255.917,61.865z M 255.909,13.776c-10.436,0.00-18.894,8.459-18.894,18.891
											c0.00,10.447, 8.458,18.905, 18.894,18.905c 10.435,0.00, 18.892-8.458, 18.892-18.905
											C 274.801,22.235, 266.344,13.776, 255.909,13.776z M 32.479,416.00l0.00-320.00 l 449.247,0.00 L 481.726,416.00 L 32.479,416.00 z M 441.835,136.352L 73.713,136.352 
											l-0.021,238.021l 366.813,0.00 l0.00-0.012 l 1.329,0.00 L 441.835,136.352L 441.835,136.352z M 351.763,61.865
											c-16.126,0.00-29.188-13.065-29.188-29.19c0.00-16.127, 13.063-29.188, 29.188-29.188c 16.112,0.00, 29.183,13.062, 29.183,29.188
											C 380.94,48.80, 367.875,61.865, 351.763,61.865z M 351.755,13.776c-10.436,0.00-18.894,8.459-18.894,18.891
											c0.00,10.447, 8.458,18.905, 18.894,18.905c 10.438,0.00, 18.896-8.458, 18.896-18.905
											C 370.646,22.235, 362.188,13.776, 351.755,13.776z" />
<glyph unicode="&#xe01f;" d="M 470.70,72.193l-2.688,2.688l 0.006,0.002L 360.505,182.408c 14.938,25.732, 23.612,55.564, 23.816,87.451
									c 0.626,97.615-77.986,177.243-175.599,177.857c-0.394,0.001-0.771,0.002-1.168,0.002
									c-97.06-0.006-176.063-78.391-176.688-175.598c-0.618-97.609, 77.999-177.236, 175.597-177.859
									c 0.389-0.002, 0.766-0.004, 1.155-0.004c 32.438,0.00, 62.846,8.79, 88.998,24.075l 107.415-107.433l 0.014,0.01l 2.688-2.688
									c 8.125-8.123, 21.293-8.114, 29.41,0.00l 34.562,34.557C 478.819,50.895, 478.822,64.07, 470.70,72.193z M 300.39,177.58
									c-24.834-24.67-57.78-38.252-92.768-38.252l-0.874,0.00 c-72.589,0.467-131.271,59.908-130.813,132.503
									c 0.465,72.128, 59.516,130.811, 131.626,130.815l 0.879-0.002c 35.168-0.22, 68.146-14.123, 92.852-39.148
									c 24.706-25.025, 38.188-58.178, 37.966-93.352C 339.031,235.128, 325.229,202.25, 300.39,177.58z" />
<glyph unicode="&#xe020;" d="M 33.736,60.543A60.868,61.532 540.00 1 0 155.472,60.543000000000006A60.868,61.532 540.00 1 0 33.736,60.543000000000006zM 327.928-0.988l-86.229,0.00 c0.00,116.114-93.109,210.243-207.963,210.243l0.00,0.00l0.00,87.168 
						C 196.222,296.423, 327.928,163.273, 327.928-0.988zM 388.798-0.988c0.00,198.244-158.96,358.949-355.062,358.949L 33.736,447.697 c 245.118,0.00, 443.826-200.885, 443.826-448.686L 388.798-0.989 
						z" />
<glyph unicode="&#xe021;" d="M 32.005,447.998L 479.996,447.998L 479.996,383.50L 32.005,383.50zM 32.005,352.247L 479.996,352.247L 479.996,287.749L 32.005,287.749zM 32.005,256.496L 479.996,256.496L 479.996,191.998L 32.005,191.998zM 32.005,160.744L 479.996,160.744L 479.996,96.247L 32.005,96.247zM 32.005,64.993L 479.996,64.993L 479.996,0.496L 32.005,0.496z" />
<glyph unicode="&#xe022;" d="M 224.01,351.904l-67.942,0.00 L 256.012,472.979L 355.937,351.90l-67.932,0.00 l-0.001-255.803l 67.932,0.00 L 255.99-24.979
										l-99.927,121.076l 67.943,0.00 L 224.01,351.904z" />
<glyph unicode="&#xe023;" d="M 383.904,255.996l0.00,67.942 l 121.074-99.944L 383.90,124.069l0.00,67.932 l-255.803,0.001l0.00-67.932 L 7.022,224.016
										l 121.076,99.926l0.00-67.943 L 383.904,255.996z" />
<glyph unicode="&#xe024;" d="M 288.00,355.814L 288.00,480.00 l 192.00-192.00L 288.00,96.00L 288.00,222.912 C 64.625,228.153, 74.206,71.016, 131.069-32.00
					C-9.286,119.707, 20.52,362.785, 288.00,355.814z" />
<glyph unicode="&#xe025;" d="M 346.842,54.611c 21.076,11.557, 39.271,26.125, 54.399,43.698c 15.199,17.575, 26.912,37.946, 35.285,61.009
									c 7.671,21.094, 11.471,40.729, 11.471,64.424c0.00,2.285-0.105,192.828-0.105,192.828L 256.00,416.57 l0.00-192.018 l 93.728,0.00 
									c-0.599-26.107-5.876-45.195-15.728-63.121c-10.163-18.525-29.167-32.827-58.054-42.75l-3.201-1.092l0.00-85.777 l 5.313,0.703
									C 302.758,35.683, 325.696,43.07, 346.842,54.611M 51.917,118.301l-3.171-1.092l0.00-85.779 l 5.316,0.704c 24.666,3.168, 47.64,10.556, 68.791,22.097
									c 21.074,11.557, 39.229,26.125, 54.392,43.698c 15.206,17.575, 26.949,37.947, 35.288,61.01
									c 7.67,21.093, 11.469,40.728, 11.469,64.424c0.00,2.284-0.076,192.825-0.076,192.825L 32.005,416.188 l0.00-192.017 l 93.729,0.00 
									c-0.563-26.107-5.872-45.194-15.724-63.122C 99.839,142.525, 80.804,128.223, 51.917,118.301" />
<glyph unicode="&#xe026;" d="M 133.16,393.389c-21.076-11.557-39.271-26.125-54.399-43.698c-15.199-17.575-26.912-37.947-35.285-61.009
									c-7.671-21.094-11.471-40.728-11.471-64.423c0.00-2.285, 0.105-192.828, 0.105-192.828l 191.892,0.00 L 224.002,223.447 l-93.728,0.00 
									c 0.599,26.107, 5.876,45.195, 15.728,63.122c 10.163,18.524, 29.167,32.827, 58.054,42.75l 3.201,1.091L 207.257,416.188 l-5.313-0.704
									C 177.244,412.317, 154.306,404.929, 133.16,393.389M 428.085,329.699l 3.171,1.091L 431.256,416.57 l-5.316-0.704c-24.666-3.168-47.64-10.555-68.791-22.097
									c-21.074-11.557-39.229-26.125-54.392-43.698c-15.206-17.576-26.949-37.947-35.288-61.01
									C 259.799,267.968, 256.00,248.334, 256.00,224.638c0.00-2.284, 0.076-192.825, 0.076-192.825l 191.921,0.00 L 447.997,223.829 l-93.729,0.00 
									c 0.563,26.107, 5.872,45.195, 15.724,63.122C 380.163,305.475, 399.198,319.777, 428.085,329.699" />
<glyph unicode="&#xe027;" d="M 461.998,287.998l-44.865,0.00 l0.00,74.991 l-85.277,85.21L 96.004,448.199 l0.00-160.201 l-46.00,0.00 c-9.941,0.00-18.00-8.059-18.00-18.00l0.00-187.996 
						c0.00-9.941, 8.059-18.00, 18.00-18.00l 46.00,0.00 l0.00-64.50 l 321.128,0.00 l0.00,64.50 l 44.865,0.00 c 9.941,0.00, 18.00,8.059, 18.00,18.00L 479.997,269.998 
						C 479.998,279.938, 471.939,287.998, 461.998,287.998z M 96.004,97.50L 64.255,97.50 l0.00,93.654 l0.00,0.848 l 31.749,0.00 L 96.004,97.50 z M 319.37,415.375
						l 64.453-63.377L 319.37,351.998 L 319.37,415.375 z M 383.998,32.002L 128.004,32.002 l0.00,160.00 l 255.994,0.00 L 383.998,32.002 z M 383.998,287.998L 128.004,287.998 l0.00,128.00 l 159.998,0.00 l0.00-96.00 
						l 95.996,0.00 L 383.998,287.998 z M 448.298,97.50l-31.165,0.00 l0.00,94.502 l 30.118,0.00 l 1.047,0.00 L 448.298,97.50 zM 160.127,96.002L 351.50,96.002L 351.50,62.629L 160.127,62.629zM 160.127,161.437L 351.50,161.437L 351.50,128.064L 160.127,128.064z" />
<glyph unicode="&#xe028;" d="M 427.182,320.352L 325.629,320.352 c 6.396,3.992, 12.695,8.69, 18.575,14.393c 30.401,29.163, 39.269,69.303, 19.804,89.555
				c-7.468,7.76-17.991,11.484-29.858,11.484c-19.118,0.00-41.686-9.681-60.437-27.676c-7.679-7.383-13.959-15.469-18.775-23.762
				c-4.834,8.293-11.11,16.378-18.793,23.762c-18.751,18.001-41.301,27.676-60.419,27.676c-11.881,0.00-22.435-3.724-29.903-11.484
				c-19.458-20.252-10.587-60.392, 19.814-89.555c 5.896-5.703, 12.166-10.401, 18.606-14.393L 84.818,320.352 L 64.002,320.352 l0.00-98.164 l 32.00,0.00 l0.00-222.048 l 319.994,0.00 
				L 415.996,222.188 l 32.00,0.00 l0.00,98.164 L 427.182,320.352 z M 272.212,353.958c 2.513,11.443, 10.075,23.888, 20.734,34.136
				c 15.289,14.705, 31.298,19.919, 41.21,19.919c 2.606,0.00, 7.359-0.37, 9.83-2.943c 2.662-2.773, 3.327-8.961, 1.711-16.206
				c-2.525-11.47-10.088-23.908-20.733-34.146c-15.303-14.691-31.298-19.905-41.196-19.905c-2.607,0.00-7.359,0.383-9.845,2.943
				C 271.248,340.529, 270.61,346.714, 272.212,353.958z M 275.77,316.343l0.00-92.344 l-41.668,0.00 l0.00,92.344 L 275.77,316.343 z M 164.137,388.864
				c-1.599,7.244-0.954,13.432, 1.71,16.206c 2.481,2.573, 7.22,2.943, 9.872,2.943c 9.885,0.00, 25.894-5.214, 41.183-19.933
				c 10.659-10.241, 18.208-22.686, 20.73-34.122c 1.599-7.244, 0.954-13.429-1.724-16.202c-2.469-2.56-7.238-2.943-9.845-2.943
				c-9.892,0.00-25.867,5.214-41.183,19.905C 174.235,364.957, 166.672,377.394, 164.137,388.864z M 411.896,128.002L 275.77,128.002 l0.00-124.127 l-41.668,0.00 
				L 234.102,128.002 L 100.935,128.002 l0.00,32.165 l 133.167,0.00 l0.00,46.00 l 41.668,0.00 l0.00-46.00 l 136.126,0.00 L 411.896,128.002 z" />
<glyph unicode="&#xe029;" d="M 255.982,360.004L 418.982,128.01L 93.018,128.002 					z" />
<glyph unicode="&#xe02a;" d="M 392.004,223.983L 160.01,386.982L 160.002,61.018 					z" />
<glyph unicode="&#xe02b;" d="M 119.995,223.983L 351.988,386.982L 351.996,61.018 					z" />
<glyph unicode="&#xe02c;" d="M 255.982,87.996L 418.982,319.99L 93.018,319.998 					z" />
<glyph unicode="&#xe02d;" d="M 415.996,255.998L 287.998,255.998L 287.998,383.998L 224.002,383.998L 224.002,255.998L 96.002,255.998L 96.002,192.002L 224.002,192.002L 224.002,64.002L 287.998,64.002L 287.998,192.002L 415.996,192.002 							z" />
<glyph unicode="&#xe02e;" d="M 96.002,451.331L 436.998,224.00L 96.002-3.331L 96.002,451.331 z" />
<glyph unicode="&#xe02f;" d="M 461.173,351.998L 351.786,351.998 l-25.911,53.007c0.00,0.00-5.165,10.993-18.42,10.993c-10.21,0.00-74.079,0.00-102.888,0.00
						c-14.414,0.00-19.231-10.909-19.231-10.909l-25.131-53.091L 49.372,351.998 c-9.941,0.00-18.00-8.06-18.00-18.00l0.00-251.736 c0.00-9.941, 8.059-18.00, 18.00-18.00l 411.801,0.00 
						c 9.941,0.00, 18.00,8.059, 18.00,18.00L 479.173,333.998 C 479.173,343.938, 471.114,351.998, 461.173,351.998z M 255.271,105.43
						c-60.684,0.00-110.007,49.37-110.007,110.016c0.00,60.665, 49.339,110.012, 110.007,110.012c 60.656,0.00, 110.022-49.347, 110.022-110.012
						C 365.294,154.791, 315.928,105.43, 255.271,105.43zM 255.271,281.456c-36.397,0.00-66.007-29.597-66.007-66.01c0.00-36.39, 29.609-66.001, 66.007-66.001
						c 36.404,0.00, 66.008,29.611, 66.008,66.001C 321.279,251.859, 291.676,281.456, 255.271,281.456z" />
<glyph unicode="&#xe030;" d="M 351.528,188.046c-6.412,3.971-16.018,2.871-21.464-2.468l-42.484-42.472
					c-5.434-5.339-14.086-5.339-19.425,0.00l-95.473,95.506c-5.345,5.346-5.345,14.079,0.00,19.424l 40.016,40.003
					c 5.353,5.346, 6.131,14.763, 1.798,20.933L 141.695,422.18c-4.299,6.164-12.724,7.372-18.626,2.676c0.00,0.00-56.792-45.067-56.792-86.471
					c0.00-169.442, 137.367-306.795, 306.795-306.795c 41.425,0.00, 81.708,76.009, 81.708,76.009c 3.542,6.666, 1.194,15.413-5.217,19.383
					L 351.528,188.046z" />
<glyph unicode="&#xe031;" d="M 440.316,414.613c 12.849-6.288, 24.047-15.243, 32.251-26.241c 17.269-23.15, 22.118-54.686, 14.418-93.733
					c-7.78-39.513-25.208-72.868-50.583-97.022c-4.641-4.852-9.611-9.373-14.902-13.54c-27.178-21.401-61.498-32.714-99.254-32.714
					l-6.056,0.00 L 202.217,151.363 L 169.935,0.00l-66.212,0.00 l 5.043,23.15l 23.064,0.00 l 32.281,151.363l 94.136,0.00 c 90.124,0.00, 165.469,55.538, 185.629,149.967
					C 466.736,431.398, 390.076,480.00, 324.171,480.00L 99.532,480.00 L0.00,23.15l 76.016,0.00 L 64.00-32.00l 131.83,0.00 l 32.281,151.363l 94.135,0.00 
					c 90.125,0.00, 165.47,55.539, 185.63,149.968C 524.733,348.171, 487.474,395.297, 440.316,414.613z M 211.172,386.959l 64.565,0.00 
					c 32.296,0.00, 53.801-27.769, 44.394-62.478c-8.068-34.72-41.693-62.488-75.32-62.488l-61.879,0.00 L 211.172,386.959z" />
<glyph unicode="&#xe032;" d="M 96.002,415.333l 96.00,0.00 l0.00-382.667 l-96.00,0.00 L 96.002,415.333 z M 321.413,415.333l 94.583,0.00 l0.00-382.667 l-94.583,0.00 L 321.413,415.333 z" />
<glyph unicode="&#xe033;" d="M 68.436,311.144l 22.881,0.00 L 91.317,424.772 L 72.669,424.772 c0.00-0.991-0.271-2.505-0.857-4.541c-0.991-3.39-2.465-6.122-4.367-8.158
											c-2.813-2.975-6.479-4.957-10.958-5.948c-2.813-0.63-7.739-1.099-14.763-1.42l0.00-15.192 l 26.712,0.00 L 68.436,311.144 z M 64.685,219.003
											c-11.843-8.466-19.345-16.45-22.532-24.032c-3.296-6.726-5.033-14.174-5.252-22.318l 77.729,0.00 l0.00,19.666 L 65.09,192.319 
											c 1.393,2.357, 3.135,4.396, 5.197,6.162c 2.063,1.795, 5.895,4.662, 11.49,8.627l 8.926,6.324
											c 7.525,5.33, 12.938,10.153, 16.233,14.494c 5.01,6.523, 7.528,13.985, 7.528,22.385c0.00,10.959-3.563,19.76-10.663,26.404
											c-7.101,6.658-16.666,9.98-28.669,9.98c-15.191,0.00-25.774-5.653-31.723-16.986c-3.139-5.948-4.876-13.745-5.251-23.391
											l 21.675,0.00 c 0.269,6.363, 1.099,10.999, 2.492,13.933c 2.465,5.051, 7.069,7.582, 13.879,7.582c 4.956,0.00, 8.761-1.594, 11.413-4.769
											c 2.648-3.188, 3.988-7.167, 3.988-11.977c0.00-5.895-2.331-11.32-6.966-16.276C 81.618,231.623, 74.974,226.358, 64.685,219.003z
											 M 110.151,86.539c-4.18,3.832-7.364,5.732-9.592,5.732c 2.947,1.146, 5.813,3.297, 8.547,6.432
											c 4.341,5.037, 6.515,11.199, 6.515,18.514c0.00,10.344-3.617,18.567-10.905,24.73c-7.261,6.135-16.825,9.217-28.722,9.217
											c-6.381,0.00-11.789-0.777-16.156-2.331c-4.396-1.526-8.198-3.778-11.391-6.672c-4.283-4.126-7.422-8.601-9.431-13.45
											c-1.876-5.546-2.947-11.413-3.162-17.576l 22.801,0.00 c-0.104,6.109, 1.183,10.985, 3.889,14.656s 6.938,5.492, 12.70,5.492
											c 5.01,0.00, 8.896-1.50, 11.651-4.447c 2.759-3.001, 4.152-6.859, 4.152-11.574c0.00-7.342-2.706-12.164-8.118-14.576
											c-3.135-1.439-8.654-2.189-16.558-2.304l0.00-17.495 c 8.063,0.00, 13.981-0.771, 17.764-2.305c 6.591-2.76, 9.913-8.199, 9.913-16.371
											c0.00-6.162-1.795-10.904-5.358-14.20c-3.563-3.269-7.717-4.896-12.513-4.896c-7.823,0.00-13.209,2.974-16.156,8.976
											c-1.604,3.271-2.411,7.396-2.411,12.354L 33.632,64.445 c 0.402-9.893, 2.385-17.87, 6.002-23.979
											c 6.832-11.494, 19.05-17.228, 36.625-17.228c 14.254,0.00, 25.025,3.985, 32.312,11.943c 7.288,7.957, 10.936,17.20, 10.936,27.73
											C 119.503,72.90, 116.368,80.777, 110.151,86.539z M 480.145,401.296L 179.949,401.296 l0.00-82.189 l 300.188,0.00 L 480.145,401.296L 480.145,401.296z
											 M 179.949,44.703L 481.00,44.703 l0.00,83.059 L 179.949,127.762 L 179.949,44.703 z M 179.949,264.663l0.00-83.045 L 481.00,181.618 l0.00,83.045 L 179.949,264.663 z" />
<glyph unicode="&#xe034;" d="M 409.947,370.39c-12.927,12.917-33.873,12.917-46.794,0.00c-12.92-12.922-12.92-33.87,0.00-46.794l0.00,0.006 
										c 29.647-29.682, 44.347-68.266, 44.382-107.154c-0.035-38.892-14.729-77.478-44.382-107.157
										c-29.673-29.648-68.26-44.339-107.149-44.376c-38.896,0.037-77.481,14.731-107.146,44.376
										c-29.653,29.68-44.353,68.266-44.389,107.157c 0.036,38.894, 14.731,77.472, 44.384,107.148
										c 12.919,12.919, 12.926,33.869, 0.005,46.789c-12.92,12.923-33.869,12.923-46.79,0.006
										c-42.455-42.423-63.812-98.336-63.771-153.942c-0.037-55.606, 21.315-111.52, 63.771-153.944
										c 42.419-42.446, 98.332-63.802, 153.938-63.766l 0.142,0.00 c 55.563-0.002, 111.409,21.35, 153.80,63.766
										c 42.444,42.425, 63.813,98.338, 63.767,153.944C 473.751,272.053, 452.394,327.963, 409.947,370.39zM 256.704,191.357c 18.271,0.00, 33.085,14.812, 33.085,33.083L 289.789,413.278 c0.00,18.271-14.813,33.085-33.085,33.085
										c-18.274,0.00-33.086-14.816-33.086-33.085l0.00-188.836 C 223.618,206.173, 238.429,191.357, 256.704,191.357z" />
<glyph unicode="&#xe035;" d="M 90.68,160.51L 126.742,124.447L 253.718,251.426L 380.691,124.448L 416.754,160.51L 253.718,323.551 		z" />
<glyph unicode="&#xe036;" d="M 196.729,60.963L 160.666,97.025L 287.643,224.001L 160.667,350.975L 196.729,387.037L 359.768,224.001 		z" />
<glyph unicode="&#xe037;" d="M 317.207,60.963L 353.27,97.025L 226.291,224.001L 353.269,350.975L 317.207,387.037L 154.166,224.001 		z" />
<glyph unicode="&#xe038;" d="M 416.754,287.49L 380.691,323.553L 253.716,196.574L 126.742,323.552L 90.68,287.49L 253.716,124.449 		z" />
<glyph unicode="&#xe039;" d="M 504.979,223.994L 383.904,323.938L 383.904,255.996L 288.005,255.997L 288.005,351.90L 355.937,351.90L 256.012,472.979L 156.067,351.904L 224.01,351.904L 224.009,255.998L 128.098,255.999L 128.098,323.942L 7.021,224.016L 128.098,124.07L 128.098,192.002L 224.008,192.002L 224.007,96.098L 156.063,96.098L 255.99-24.979L 355.936,96.098L 288.004,96.098L 288.004,192.001L 383.90,192.001L 383.90,124.069 			z" />
<glyph unicode="&#xe03a;" d="M 96.002,255.998L 415.996,255.998L 415.996,192.002L 96.002,192.002z" />
<glyph unicode="&#xe03b;" d="M 256.00,447.998c-83.058,0.00-150.374-67.286-150.374-150.374c0.00-73.704, 64.874-169.622, 116.446-249.789
								c 39.066-60.729, 29.329-61.07, 67.853-0.004c 50.575,80.171, 116.449,176.088, 116.449,249.773
								C 406.374,380.652, 339.058,447.998, 256.00,447.998z M 256.00,225.785c-39.67,0.00-71.858,32.16-71.858,71.858
								c0.00,39.699, 32.188,71.839, 71.858,71.839c 39.669,0.00, 71.857-32.16, 71.857-71.858C 327.857,257.925, 295.669,225.785, 256.00,225.785z" />
<glyph unicode="&#xe03c;" d="M 256.398,162.378c-4.897,0.00-9.814,1.545-13.934,4.642L 32.156,324.88l0.00-234.203 c0.00-16.487, 13.413-27.675, 29.90-27.675
						l 388.676,0.00 c 16.492,0.00, 29.263,11.188, 29.263,27.675L 479.995,324.88 L 269.999,167.02C 265.882,163.923, 261.288,162.378, 256.398,162.378zM 451.282,352.018L 256.398,205.719L 61.513,352.018 					z" />
<glyph unicode="&#xe03d;" d="M 255.875,451.175L 63.605,334.688l0.00-221.367 l 49.933-29.402L 113.538,305.29 l 142.381,86.565l 142.49-86.43
					l 0.599-0.343l-0.059-220.832l 49.445,29.07L 448.394,334.688 L 255.875,451.175z M 281.322,314.901l0.00-258.805 l-25.447-15.566l-25.477,15.624
					L 230.398,314.697 l-65.943-40.617l0.00-221.313 l 91.42-55.942l 92.20,56.333L 348.075,274.234 L 281.322,314.901z" />
<glyph unicode="&#xe03e;" d="M 402.127,223.937l-38.709,0.00 l-0.006,64.061c0.00,30.667-11.64,58.792-30.863,79.345
									c-19.156,20.557-46.447,33.753-76.542,33.729c-30.104,0.024-57.396-13.172-76.551-33.729
									c-19.233-20.553-30.871-48.679-30.876-79.345l0.00-64.061 l-38.708,0.00 c-7.66,0.00-13.869-6.205-13.869-13.864l0.00-164.201 
									c0.00-7.659, 6.209-13.869, 13.869-13.869l 292.255,0.00 c 7.665,0.00, 13.869,6.21, 13.869,13.869L 415.996,210.07 
									C 415.996,217.731, 409.792,223.937, 402.127,223.937z M 312.404,223.937L 199.588,223.937 l0.00,64.061 c0.00,17.699, 6.701,33.356, 17.115,44.50
									c 10.497,11.135, 24.163,17.544, 39.304,17.566c 15.13-0.022, 28.798-6.427, 39.287-17.566c 10.416-11.143, 17.11-26.801, 17.11-44.50
									L 312.404,223.937 z" />
<glyph unicode="&#xe03f;" d="M 221.533,116.203l-37.033-34.33c-8.995-8.319-20.297-12.079-31.93-11.681c-11.109,0.454-21.96,5.06-30.329,14.057
					l-3.382,3.668c-8.303,8.996-12.084,20.234-11.68,31.698c 0.463,11.303, 5.053,22.158, 14.054,30.524l 85.934,79.645
					c 5.046,4.659, 10.772,7.889, 16.835,9.763c0.00,8.613, 0.088,61.287, 0.088,72.72c-23.642-2.68-46.787-12.709-65.50-30.063
					l-85.936-79.642c-23.266-21.53-35.834-50.785-36.921-80.225c-1.155-29.401, 9.047-59.642, 30.701-83.012l 3.384-3.651
					c 21.434-23.149, 50.545-35.81, 80.027-36.919l 0.164-0.006c 29.321-1.117, 59.624,8.968, 83.062,30.703l 37.031,34.311
					c 14.476,13.415, 15.337,36.023, 1.922,50.495C 258.617,128.737, 236.008,129.60, 221.533,116.203zM 476.256,325.848c 1.204,29.423-9.102,59.554-30.659,82.823l-3.384,3.669c-21.592,23.319-50.937,35.824-80.354,36.912
					c-29.42,1.152-59.596-9.082-82.895-30.69l-35.342-32.747c-14.475-13.428-15.338-36.038-1.926-50.513s 36.02-15.337, 50.497-1.925
					l 35.336,32.748c 9.029,8.334, 20.232,12.101, 31.604,11.716c 11.40-0.484, 22.282-5.09, 30.62-14.086l 3.416-3.654
					c 8.303-9.013, 12.081-20.216, 11.683-31.538c-0.469-11.435-5.095-22.336-14.095-30.703l-85.932-79.628
					c-5.012-4.634-10.729-7.859-16.826-9.736c0.00-14.327,0.00-56.327,0.00-72.708c 23.514,2.70, 46.64,12.627, 65.392,30.027l 85.967,79.63
					C 462.698,267.083, 475.199,296.426, 476.256,325.848zM 119.299,339.487c 2.929-2.929, 6.768-4.394, 10.606-4.394s 7.678,1.464, 10.606,4.394c 5.858,5.858, 5.858,15.355,0.00,21.213
					L 44.314,456.897c-5.857,5.858-15.355,5.858-21.213,0.00c-5.858-5.858-5.858-15.355,0.00-21.213L 119.299,339.487zM 192.002,352.095c 8.284,0.00, 15.00,6.716, 15.00,15.00L 207.002,446.436 c0.00,8.284-6.716,15.00-15.00,15.00s-15.00-6.716-15.00-15.00l0.00-79.341 
					C 177.002,358.811, 183.718,352.095, 192.002,352.095zM 126.343,287.913c0.00,8.284-6.716,15.00-15.00,15.00L 32.002,302.913 c-8.284,0.00-15.00-6.716-15.00-15.00s 6.716-15.00, 15.00-15.00l 79.341,0.00 
					C 119.627,272.913, 126.343,279.629, 126.343,287.913zM 392.621,108.95c-5.857,5.857-15.355,5.857-21.213,0.00c-5.858-5.857-5.858-15.355,0.00-21.213l 96.198-96.198
					c 2.929-2.929, 6.768-4.394, 10.606-4.394s 7.678,1.465, 10.606,4.394c 5.858,5.857, 5.858,15.355,0.00,21.213L 392.621,108.95zM 319.919,96.342c-8.284,0.00-15.00-6.716-15.00-15.00l0.00-79.341 c0.00-8.284, 6.716-15.00, 15.00-15.00s 15.00,6.716, 15.00,15.00l0.00,79.341 
					C 334.919,89.626, 328.203,96.342, 319.919,96.342zM 385.577,160.523c0.00-8.284, 6.716-15.00, 15.00-15.00l 79.342,0.00 c 8.284,0.00, 15.00,6.716, 15.00,15.00s-6.716,15.00-15.00,15.00l-79.342,0.00 
					C 392.293,175.523, 385.577,168.808, 385.577,160.523z" />
<glyph unicode="&#xe040;" d="M 221.533,116.203l-37.033-34.33c-8.995-8.319-20.297-12.079-31.93-11.681c-11.109,0.454-21.96,5.06-30.329,14.057
										l-3.382,3.668c-8.303,8.996-12.084,20.234-11.68,31.698c 0.463,11.303, 5.053,22.158, 14.054,30.524l 85.934,79.645
										c 9.028,8.335, 20.233,12.099, 31.639,11.698c 11.368-0.465, 22.252-5.074, 30.62-14.072l 3.381-3.669l 52.421,48.589l-3.386,3.652
										l-6.175,6.648c-2.637,2.84-5.609,5.156-8.84,6.959c-19.25,14.601-42.242,22.475-65.31,23.321
										c-29.449,1.155-59.625-9.097-82.928-30.707l-85.936-79.642c-23.266-21.53-35.834-50.785-36.921-80.225
										c-1.155-29.401, 9.047-59.642, 30.701-83.012l 3.384-3.651c 21.434-23.149, 50.545-35.81, 80.027-36.919l 0.164-0.006
										c 29.321-1.117, 59.624,8.968, 83.062,30.703l 37.031,34.311c 14.476,13.415, 15.337,36.023, 1.922,50.495
										C 258.617,128.737, 236.008,129.60, 221.533,116.203zM 445.597,408.67l-3.384,3.669c-21.592,23.319-50.937,35.824-80.354,36.912c-29.42,1.152-59.596-9.082-82.895-30.69
										l-35.342-32.747c-14.475-13.428-15.338-36.038-1.926-50.513s 36.02-15.337, 50.497-1.925l 35.336,32.748
										c 9.029,8.334, 20.232,12.101, 31.604,11.716c 11.40-0.484, 22.282-5.09, 30.62-14.086l 3.416-3.654
										c 8.303-9.013, 12.081-20.216, 11.683-31.538c-0.469-11.435-5.095-22.336-14.095-30.703l-85.932-79.628
										c-8.996-8.318-20.266-12.10-31.931-11.687c-11.108,0.447-21.927,5.045-30.295,14.061l-3.386,3.652l-52.42-48.587l 3.38-3.654
										c 21.403-23.132, 50.511-35.808, 79.998-36.896l 0.194-0.008c 29.318-1.118, 59.588,8.954, 83.024,30.702l 85.967,79.63
										c 23.34,21.639, 35.841,50.982, 36.897,80.404C 477.46,355.271, 467.154,385.401, 445.597,408.67z" />
<glyph unicode="&#xe041;" d="M 351.996,415.998L 351.996,237.18L 96.002,448.00L 96.002,0.00L 351.996,210.82L 351.996,32.002L 447.996,32.002L 447.996,415.998 				z" />
<glyph unicode="&#xe042;" d="M 482.178,233.834L 342.742,379.832c-2.575,2.665-6.122,4.166-9.828,4.166L 45.484,383.998 c-7.561,0.00-13.687-6.126-13.687-13.688
						l0.00-291.995 c0.00-7.562, 6.126-13.688, 13.687-13.688l 287.43,0.00 c 3.706,0.00, 7.253,1.502, 9.828,4.166l 139.436,145.998
						C 487.324,220.098, 487.324,228.527, 482.178,233.834z M 327.112,95.931L 64.002,95.931 L 64.002,352.124 l 263.11,0.00 l 126.18-127.811L 327.112,95.931zM 267.427,325.312L 193.763,250.351L 120.094,325.312L 94.06,299.724L 168.178,224.312L 94.06,148.894L 120.094,123.306L 193.763,198.27L 267.427,123.306L 293.464,148.894L 219.349,224.312L 293.464,299.724 					z" />
<glyph unicode="&#xe043;" d="M 29.815,214.791l 139.436-145.998c 2.575-2.664, 6.122-4.166, 9.828-4.166l 287.429,0.00 c 7.562,0.00, 13.688,6.127, 13.688,13.688
						L 480.196,370.31 c0.00,7.561-6.126,13.688-13.688,13.688L 179.079,383.998 c-3.706,0.00-7.253-1.501-9.828-4.166L 29.815,233.834
						C 24.669,228.527, 24.669,220.098, 29.815,214.791z M 58.701,224.312l 126.18,127.811l 263.108,0.00 l0.00-256.193 L 184.881,95.93 L 58.701,224.312zM 218.529,299.724L 292.644,224.312L 218.529,148.894L 244.566,123.306L 318.229,198.27L 391.898,123.306L 417.932,148.894L 343.814,224.312L 417.932,299.724L 391.898,325.312L 318.229,250.351L 244.566,325.312 					z" />
<glyph unicode="&#xe044;" d="M 48.073,0.002l 79.011,0.017l 0.01,45.529l 49.23,0.013l 0.007,50.45l 47.674-0.009L 224.00,141.556
					l 50.566,0.009l 37.571,32.034c 44.065-12.063, 92.902-1.09, 127.277,33.169c 51.184,51.347, 50.762,134.801-0.911,186.701
					c-51.781,51.553-135.238,51.98-186.399,0.611c-34.485-34.339-45.464-83.306-33.298-127.414L 32.002,79.861l 0.291-64.071
					C 32.355,4.206, 36.603,0.243, 48.073,0.002z M 361.38,316.957c-13.714,13.921-13.843,36.085-0.298,49.49
					c 13.639,13.763, 35.798,13.644, 49.488-0.301c 13.755-13.50, 13.886-35.67, 0.313-49.499
					C 397.273,303.30, 375.108,303.429, 361.38,316.957z" />
<glyph unicode="&#xe045;" d="M 295.446,31.498L 108.404,31.498 l 3.648,21.205c 21.455,8.767, 42.379,14.598, 62.836,17.525l 91.339,305.806
										c-9.792,1.964-45.405,14.313-54.792,18.273l 5.114,21.19l 187.044,0.00 l-4.396-21.19c-22.019-8.825-58.625-17.432-62.836-18.273
										l-91.311-305.806c 10.509-2.121, 47.089-13.814, 54.069-17.525L 295.446,31.498z" />
<glyph unicode="&#xe046;" d="M 335.49,115.189c-9.558,0.00-47.096-57.998-67.553-57.998c-5.459,0.00-8.17,4.787-8.17,9.558
										c0.00,10.909, 7.506,27.979, 11.58,38.216l 49.13,133.011c 24.56,66.191-6.834,83.922-36.151,83.922
										c-39.572,0.00-75.062-19.786-102.332-45.708c-5.076-5.068-16.971-16.651-26.377-27.822c-7.691-9.13-6.813-18.64-2.32-21.406
										c 5.626-3.464, 14.265,3.051, 18.405,7.886c 14.991,17.518, 34.313,42.019, 50.521,42.019c 5.462,0.00, 11.605-6.136, 6.832-18.407
										l-47.737-120.078c-4.796-11.606-27.983-67.556-27.983-100.294c0.00-25.929, 17.049-37.517, 41.61-37.517
										c 68.91,0.00, 148.724,84.603, 148.724,104.389C 343.668,111.104, 338.891,115.189, 335.49,115.189zM 321.828,447.423c-30.018,0.00-55.938-24.553-55.938-54.568c0.00-27.979, 18.435-46.41, 46.398-46.41
										c 30.703,0.00, 56.615,23.196, 56.615,54.591C 368.904,429.016, 349.137,447.423, 321.828,447.423z" />
<glyph unicode="&#xe047;" d="M 352.381,251.944c 19.508,0.00, 35.292,16.00, 35.292,35.758c0.00,19.743-15.784,35.765-35.292,35.765
										c-19.45,0.00-35.277-16.022-35.277-35.765C 317.104,267.944, 332.931,251.944, 352.381,251.944zM 244.799,175.919l-88.125,94.968L 96.748,158.586l0.00-30.938 l 297.645,0.00 C 356.489,160.775, 276.541,231.63, 276.541,231.63
										L 244.799,175.919zM 32.00,384.00l0.00-319.782 l 447.50,0.00 L 479.50,384.00 L 32.00,384.00 z M 73.072,104.542l-0.019,237.854l 365.385,0.00 l0.00-0.012 l 1.32,0.00 l 0.005-237.842L 73.072,104.542 z" />
<glyph unicode="&#xe048;" d="M 395.841,276.128L 395.841,360.032L 339.902,360.032L 339.902,332.064L 256.00,415.968L 32.255,191.932L 96.50,191.932L 96.50,31.598L 224.551,31.598L 224.551,159.598L 288.50,159.598L 288.50,31.598L 416.50,31.598L 416.50,191.932L 479.742,191.932 
																	z" />
<glyph unicode="&#xe049;" d="M 415.459,383.458C 372.866,426.051, 316.235,449.508, 256.00,449.508c-60.235,0.00-116.865-23.457-159.458-66.05
									C 53.949,340.865, 30.492,284.235, 30.492,224.00s 23.457-116.866, 66.05-159.459c 42.593-42.593, 99.223-66.05, 159.458-66.05
									c 60.235,0.00, 116.866,23.457, 159.459,66.05s 66.05,99.224, 66.05,159.459S 458.052,340.865, 415.459,383.458z M 256.00,31.092
									C 149.631,31.092, 63.093,117.63, 63.093,224.00c0.00,106.369, 86.538,192.907, 192.907,192.907
									c 106.37,0.00, 192.908-86.538, 192.908-192.907C 448.908,117.63, 362.37,31.092, 256.00,31.092zM 342.291,356.486c-21.754,19.24-51.033,28.861-87.842,28.861c-34.986,0.00-63.238-9.507-84.759-28.519
									c-21.525-19.015-27.814-41.741-29.486-68.966l 55.262,0.271c 4.107,19.011, 9.93,25.194, 20.881,34.474
									c 10.951,9.275, 24.563,13.917, 40.843,13.917c 16.882,0.00, 30.305-4.449, 40.269-13.346c 9.959-8.898, 14.943-19.586, 14.943-32.056
									c0.00-8.976-2.816-17.19-8.441-24.641c-3.651-4.716-14.83-14.68-33.538-29.887c-18.711-15.212-31.186-28.917-37.421-41.083
									c-6.238-12.17-9.277-27.145-9.125-35.508l 64.113,0.00 c-0.307,17.643, 10.188,26.305, 23.728,37.561
									c 26.158,21.766, 43.235,38.952, 51.22,51.578c 7.986,12.624, 11.979,26.01, 11.979,40.155
									C 374.916,314.849, 364.039,337.244, 342.291,356.486zM 223.877,128.011L 287.99,128.011L 287.99,63.903L 223.877,63.903z" />
<glyph unicode="&#xe04a;" d="M 32.002,447.998L 160.002,447.998L 160.002,319.998L 32.002,319.998zM 192.00,447.998L 320.00,447.998L 320.00,319.998L 192.00,319.998zM 351.996,447.998L 479.996,447.998L 479.996,319.998L 351.996,319.998zM 32.002,288.00L 160.002,288.00L 160.002,160.00L 32.002,160.00zM 192.00,288.00L 320.00,288.00L 320.00,160.00L 192.00,160.00zM 351.996,288.00L 479.996,288.00L 479.996,160.00L 351.996,160.00zM 32.002,128.002L 160.002,128.002L 160.002,0.002L 32.002,0.002zM 192.00,128.002L 320.00,128.002L 320.00,0.002L 192.00,0.002zM 351.996,128.002L 479.996,128.002L 479.996,0.002L 351.996,0.002z" />
<glyph unicode="&#xe04b;" d="M 279.533,448.00c0.00,0.00-100.479,0.00-133.971,0.00c-60.06,0.00-116.585-45.503-116.585-98.211c0.00-53.863, 40.941-97.333, 102.044-97.333
					c 4.249,0.00, 8.378,0.085, 12.421,0.376c-3.965-7.593-6.801-16.144-6.801-25.021c0.00-14.969, 8.052-27.105, 18.234-37.012
					c-7.693,0.00-15.121-0.224-23.227-0.224C 57.259,190.576,0.00,143.195,0.00,94.064c0.00-48.389, 62.771-78.656, 137.167-78.656
					c 84.812,0.00, 131.652,48.122, 131.652,96.514c0.00,38.801-11.447,62.036-46.843,87.067c-12.107,8.571-35.265,29.418-35.265,41.672
					c0.00,14.36, 4.098,21.434, 25.714,38.323c 22.156,17.312, 37.836,41.651, 37.836,69.958c0.00,33.703-15.01,66.549-43.186,77.386l 42.477,0.00 
					L 279.533,448.00z M 232.74,120.271c 1.063-4.486, 1.642-9.104, 1.642-13.814c0.00-39.10-25.196-69.655-97.487-69.655
					c-51.421,0.00-88.558,32.552-88.558,71.65c0.00,38.321, 46.063,70.222, 97.481,69.666c 12.00-0.127, 23.185-2.058, 33.335-5.345
					C 207.066,153.359, 227.092,142.393, 232.74,120.271z M 150.409,266.112c-34.52,1.032-67.318,38.613-73.276,83.93
					c-5.958,45.333, 17.185,80.021, 51.694,78.995c 34.505-1.037, 67.318-37.407, 73.278-82.729
					C 208.059,300.978, 184.911,265.079, 150.409,266.112z M 416.00,352.00L 416.00,448.00 l-32.00,0.00 l0.00-96.00 l-96.00,0.00 l0.00-32.00 l 96.00,0.00 l0.00-96.00 l 32.00,0.00 l0.00,96.00 l 96.00,0.00 l0.00,32.00 L 416.00,352.00 z" />
<glyph unicode="&#xe04c;" d="M 248.023,234.684L 247.35,235.809L 246.563,238.057L 247.124,238.73L 246.786,240.303L 244.764,238.73L 245.214,237.381L 245.775,235.248L 244.764,235.248L 244.764,234.237L 245.889,233.562 				zM 241.955,236.259L 242.293,234.684L 243.979,235.471L 244.426,236.82L 243.753,237.493 				zM 244.09,245.134L 244.426,246.033L 243.529,246.932L 241.73,247.043L 241.843,245.697 				zM 256.338,254.011L 256.898,253.788L 257.012,254.684L 256.338,255.022L 256.785,256.145L 254.764,255.022L 255.55,253.338 				zM 261.279,257.27L 260.158,257.831L 259.37,257.043L 260.831,256.82 				zM 256.00,449.078C 131.695,449.078, 30.922,348.308, 30.922,224.00S 131.695-1.078, 256.00-1.078
					c 124.303,0.00, 225.078,100.771, 225.078,225.078S 380.303,449.078, 256.00,449.078z M 62.028,224.00c0.00,41.132, 12.838,79.241, 34.674,110.627
					l 2.504-1.877l-1.513-6.073l 5.559-1.521l-1.013,8.093l 4.553,0.503l0.00,10.625 l 4.552,0.00 c0.00,0.00, 0.80-2.062, 1.642-4.224
					c 0.923-2.376, 1.899-4.88, 1.899-4.88l 5.055-5.568c0.00,0.00-6.068-1.508-8.088-1.508c-2.022,0.00-1.013-8.093-1.013-8.093l 7.077-2.525
					l 4.572,8.444l 10.601,11.782l 5.056,15.674l 9.612,9.111l-5.565,4.033l 6.073,4.047l 0.505,5.568l-17.701-5.056l-0.558,0.666
					c 9.638,8.19, 20.077,15.455, 31.201,21.653l 8.299-3.614l-5.559-10.623l-11.133,0.00 l-2.024-9.604l 9.106,0.00 l 13.149,8.095l 9.106,9.096
					l 1.513,8.599l-13.149,1.009l 9.103,6.073l 8.598-1.521l-1.514-9.099l 11.632,7.091l 2.027-5.568l 2.53-8.095l-6.577-8.093
					l-7.082-6.572l-10.623,1.521l 5.06-10.619l-9.61,1.517l-16.184-16.692l 4.046-5.567l 13.149,1.018l 11.128,3.546l 14.167,1.508
					l 6.572,1.519c0.00,0.00,0.00,4.046-0.507,6.572c-0.501,2.53, 5.06-0.50, 5.06-0.50l 6.071,3.532l 4.552,14.167l 16.688,7.595l-2.525,4.037
					l 4.046,5.064l-13.148,2.026l 3.539,5.056l-16.692,5.568l-8.599,0.00 l 3.034,7.581l 3.539,3.547l-0.284,0.284
					c 14.076,3.244, 28.72,5.018, 43.787,5.018c 23.479,0.00, 45.979-4.172, 66.808-11.817l-0.507-1.191l-8.423,0.563l0.00-5.064 l 3.376-2.246
					l0.00-4.493 l 2.806-3.93l-10.111,6.176l-6.735-3.372l 3.368-7.873l 1.688-8.986l 4.492-5.064l 10.665-1.684l-2.242-4.493l-2.25-6.752
					l 9.556-6.176l-0.563-2.81l-17.979,15.176l-1.116-5.627l 7.859-7.865l 4.493-1.684l-10.11-2.246l-1.126-5.064l-7.298,7.315
					l-4.501,9.548l-1.688,9.557l-4.501-5.618l 3.376-13.487l 5.618-3.943l-2.242-12.914l-3.376,1.688l 0.563-6.752l-5.063,0.563
					l-5.052,7.315l-6.176,0.00 l-8.995,1.125l-8.999-0.563l-8.423-6.752l-5.622-9.548l-11.804-8.994l-1.125-5.056l0.00-6.189 l 2.809-6.177
					l 5.623,4.493l 1.683-3.367l 2.814-5.056l 0.563-1.134l 2.809-3.372l 5.061,3.368l-0.563,12.366l 6.176,7.873
					c0.00,0.00, 0.313,1.332, 0.664,2.869c 0.479,2.046, 1.024,4.433, 1.024,4.433l 2.242,6.19l 3.943-0.563l-1.122-5.064l-2.259-11.232
					l 10.691,1.125l 3.935-1.125l-8.436-2.255l 1.12-5.618l-9.557-6.176l 0.563-6.19l-8.423-2.25l-1.684-4.493l-6.748,2.247l-4.497,0.00 
					l0.00,9.557 l-5.06-1.697l0.00-5.055 l-14.051-11.245l-7.869-2.809l-3.369-3.93l-11.245,2.809l-0.563-5.056l 7.306-2.817l-0.563-10.104
					l-20.235,0.563l-2.81-4.493l-2.809-7.874l-3.376-6.752l 5.06-5.618l 5.623-6.739L 207.109,224.00l 1.125,6.739l 3.939,3.38l 6.743,2.247
					l-0.563,4.493l 6.185,1.688l 8.988,1.684l 5.623-6.739l 10.115-7.315l 4.496-7.297l0.00-3.371 l 5.614,3.371l-2.805,5.051l 1.122,5.626
					l-5.057,2.247l-4.496,6.176l 2.809,8.999l 5.051-7.311l 7.302-5.618l 2.805-10.12l 7.311-5.614l 1.696-6.189l 3.372,7.311l-1.125,3.372
					l 1.685,2.809l 10.664,8.994l 2.251,11.246l 4.501,3.372l 5.618-0.563l 8.432,8.436l 0.563-6.752l 12.353-3.93l0.00-6.19 l-10.103,0.00 
					l-15.175-7.86l-12.366-6.752l 3.371-7.302l 11.236-2.246l 6.19-2.81l 6.743,4.492l 0.554-19.113l-19.113-3.93l-20.209,5.627
					l-7.873-6.189l 3.367-3.368l-6.189,1.121l-19.664,7.311l-5.618-0.571l-4.496,7.311l0.00,8.995 l-10.121,0.00 l-5.617,1.125l-17.987-3.943
					l-14.05,1.134l-6.181-3.381l-3.934-0.563l-2.251-7.297l-12.924-8.999l-17.989-13.486l-1.125-17.413l-5.06-11.245l 0.563-6.735
					l 4.497-7.878l 12.929-21.91l 13.487-6.185l 22.481-1.688l-1.125,9.562l-5.06,2.806l 2.247,5.055l 3.938-4.492l 3.93-11.805
					l 16.861-1.125l 6.743-6.734l 9.553-3.943l 1.125-16.297l 10.121-12.928l 9.553-16.855l-8.428-10.119l 8.607-13.391
					C 145.055,33.967, 62.028,119.269, 62.028,224.00z M 322.468,41.723l 23.449,17.047l-8.423,20.802l 26.975,35.397l 8.423,22.482
					l 3.93,12.37l-14.032-6.753l-8.44-1.688l-20.784,12.933l-6.19,14.05l-7.868,7.869l-10.111,22.473l 8.423-6.739l 15.747-17.422
					l 5.618-7.868l 11.228-5.619l 3.376-14.612l 13.495,8.986l 16.292,20.238l 7.869,20.79l-6.186,5.051l-3.372,6.189l-3.938-7.311
					l-7.864-8.985l-11.24,12.366l-3.368,9.544l 7.869-1.685l 7.864-3.93l 11.241,3.93l 6.753-2.245l 17.967,12.365l 10.133-5.626
					l 6.176,3.38l 13.438-21.158l 6.656,6.348l 0.132,8.063l 0.554,24.169l 4.132,11.452c 1.008-7.99, 1.583-16.116, 1.583-24.38
					C 449.972,140.229, 396.859,68.854, 322.468,41.723z" />
<glyph unicode="&#xe04d;" d="M 116.838,355.64c-25.396,0.00-47.242-8.403-65.542-25.208c-19.043-17.926-28.57-40.33-28.57-67.218
					c0.00-17.926, 5.188-34.731, 15.647-50.416c 9.337-14.563, 19.09-23.903, 31.889-28.012l0.00-1.121 
					c-12.799-5.224-18.482-18.295-18.482-39.209c0.00-16.062, 5.686-28.011, 18.482-35.854l0.00-1.121 
					c-35.327-11.572-51.496-33.047-51.496-64.414c0.00-27.268, 11.874-47.244, 35.033-59.939C 72.094-26.959, 95.588-32.00, 123.972-32.00
					c 69.085,0.00, 103.703,28.941, 103.703,86.832c0.00,36.223-26.661,58.441-80.063,66.658c-12.323,1.863-21.644,6.348-27.991,13.445
					c-4.854,4.854-7.271,9.709-7.271,14.563c0.00,13.816, 7.479,21.848, 22.41,24.088c 22.779,3.357, 41.364,13.912, 55.743,31.648
					c 14.375,17.74, 21.565,38.559, 21.565,62.458c0.00,7.469-2.26,15.498-5.244,24.086c 9.709,2.244, 16.524,4.297, 21.646,6.166L 228.47,355.64 
					c-22.526-8.964-43.495-13.442-61.421-13.442C 151.361,351.159, 135.136,355.64, 116.838,355.64z M 123.00,76.115
					c 31.372,0.00, 47.052-9.521, 47.052-28.57c0.00-20.168-14.377-30.246-43.132-30.246c-32.862,0.00-49.293,9.711-49.293,29.127
					C 77.626,66.221, 92.749,76.115, 123.00,76.115z M 119.079,224.00c-23.527,0.00-35.293,12.882-35.293,38.654
					c0.00,27.631, 11.766,41.453, 35.293,41.453c 11.201,0.00, 19.979-4.298, 26.326-12.884c 5.229-7.845, 7.845-17.18, 7.845-28.011
					C 153.25,237.073, 141.857,224.00, 119.079,224.00z M 289.395,480.00c-10.828,0.00-20.069-4.107-27.727-12.324
					c-7.661-8.218-11.489-18.108-11.489-29.688c0.00-11.205, 3.829-20.91, 11.489-29.129c 7.654-8.217, 16.896-12.32, 27.727-12.32
					c 10.455,0.00, 19.514,4.104, 27.17,12.32c 7.656,8.219, 11.48,17.924, 11.48,29.129c0.00,11.58-3.824,21.472-11.48,29.688
					C 308.905,475.893, 299.85,480.00, 289.395,480.00z M 320.768,352.001l-63.303,0.00 c 0.748-7.168-0.32-18.021-0.32-35.57l0.00-174.216 
					c0.00-17.928, 1.068-32.387, 0.32-38.018l 63.303,0.00 c-0.75,8.188-2.697,22.334-2.697,41.379L 318.071,317.549 
					C 318.067,333.981, 320.018,344.833, 320.768,352.001z M 460.371,157.90c-16.437,0.00-24.541,12.514-24.541,37.533L 435.83,298.753 l 24.932,0.00 
					c 4.479,0.00, 8.516,0.246, 13.559-0.123c 5.043-0.374, 7.076-0.125, 9.64-0.125L 483.961,352.00 l-48.129,0.00 l0.00,23.808 c0.00,8.961, 1.407,17.151, 2.526,22.271
					l-64.979,0.00 c 1.121-5.12, 1.014-12.938, 1.014-23.395L 374.393,352.00 l-28.16,0.00 l0.00-53.494 c 7.683,1.12, 14.545,1.678, 19.398,1.678l 8.762-0.559l0.00-0.292 l0.00,0.00
					l0.00-101.101 c0.00-31.371, 3.979-54.336, 11.818-68.90c 10.461-19.42, 28.811-29.129, 56.067-29.129c 19.425,0.00, 36.56,3.732, 49.357,11.205
					l0.00,56.016 C 481.398,161.074, 471.944,157.90, 460.371,157.90z" />
<glyph unicode="&#xe04e;" d="M 444.797,255.998L 398.073,302.721L 479.835,384.482L 416.485,447.833L 334.724,366.071L 288.00,412.795L 288.00,255.998 				
					zM 67.123,255.998L 113.847,302.721L 32.085,384.482L 95.435,447.833L 177.196,366.071L 223.92,412.795L 223.92,255.998 
									zM 444.797,191.92L 398.073,145.196L 479.835,63.436L 416.485,0.085L 334.724,81.846L 288.00,35.123L 288.00,191.92 				
					zM 67.123,191.92L 113.847,145.196L 32.085,63.436L 95.435,0.085L 177.196,81.846L 223.92,35.123L 223.92,191.92 
									z" />
<glyph unicode="&#xe04f;" d="M 177.285,208.636L 78.726,110.077L 32.004,156.801L 32.004,0.004L 188.801,0.004L 142.079,46.728L 240.636,145.286 						zM 188.801,447.996L 32.004,447.996L 32.004,291.199L 78.726,337.922L 177.285,239.364L 240.636,302.714L 142.079,401.272 						zM 334.714,208.636L 271.364,145.286L 369.923,46.728L 323.199,0.004L 479.996,0.004L 479.996,156.801L 433.272,110.077 						zM 323.199,447.996L 369.923,401.272L 271.364,302.714L 334.714,239.364L 433.272,337.922L 479.996,291.199L 479.996,447.996 						z" />
<glyph unicode="&#xe050;" d="M 466.766,288.599c-68.667,0.00-338.019,0.00-356.766,0.00c-21.50,0.00-26.203-21.411-26.203-21.411L 55.08,82.854
						c-1.239-7.888-14.837-6.083-13.466,2.646l 15.637,202.498c0.00,0.00, 4.249,32.602, 39.249,32.602c 28.227,0.00, 262.052,0.00, 351.496,0.00L 447.996,335.31 
						c0.00,9.222-7.475,16.688-16.691,16.688L 216.757,351.998 l-43.624,58.994l-0.089-0.026c-3.031,3.094-7.244,5.032-11.916,5.032L 48.686,415.998 
						c-9.211,0.00-16.683-7.475-16.683-22.561l 1.505-312.185c0.00-9.223, 7.472-16.688, 16.683-16.688l 381.114,0.00 
						c 9.217,0.00, 16.688,7.465, 16.691,16.688l 35.601,185.334C 483.597,266.586, 489.336,288.285, 466.766,288.599z" />
<glyph unicode="&#xe051;" d="M 431.305,351.998L 216.757,351.998 l-43.624,58.994l-0.089-0.026c-3.031,3.094-7.244,5.032-11.916,5.032L 48.686,415.998 
						c-9.211,0.00-16.683-7.475-16.683-22.561l 1.505-312.185c0.00-9.223, 7.472-16.688, 16.683-16.688l 381.114,0.00 
						c 9.217,0.00, 16.688,7.465, 16.691,16.688L 447.996,287.50 l0.00,47.81 C 447.996,344.532, 440.521,351.998, 431.305,351.998z M 240.00,95.205
						c-62.186,0.00-112.596,50.41-112.596,112.596c0.00,62.181, 50.41,112.591, 112.596,112.591c 62.184,0.00, 112.596-50.41, 112.596-112.591
						C 352.596,145.615, 302.184,95.205, 240.00,95.205zM 223.48,241.22L 161.002,241.223L 161.002,174.746L 223.478,174.745L 223.478,130.076L 317.874,207.981L 223.48,285.901 					z" />
<glyph unicode="&#xe052;" d="M 160.50,223.696L 319.50,223.696L 319.50,191.902L 160.50,191.902zM 431.305,351.998L 216.757,351.998 l-43.624,58.994l-0.089-0.026c-3.031,3.094-7.244,5.032-11.916,5.032L 48.686,415.998 
								c-9.211,0.00-16.683-7.475-16.683-22.561l 1.505-312.185c0.00-9.223, 7.472-16.688, 16.683-16.688l 381.114,0.00 
								c 9.217,0.00, 16.688,7.465, 16.691,16.688L 447.996,287.50 l0.00,47.81 C 447.996,344.532, 440.521,351.998, 431.305,351.998z M 240.00,95.205
								c-62.186,0.00-112.596,50.41-112.596,112.596c0.00,62.181, 50.41,112.591, 112.596,112.591c 62.184,0.00, 112.596-50.41, 112.596-112.591
								C 352.596,145.615, 302.184,95.205, 240.00,95.205z" />
<glyph unicode="&#xe053;" d="M 431.305,351.998L 216.757,351.998 l-43.624,58.994l-0.089-0.026c-3.031,3.094-7.244,5.032-11.916,5.032L 48.686,415.998 
								c-9.211,0.00-16.683-7.475-16.683-22.561l 1.505-312.185c0.00-9.223, 7.472-16.688, 16.683-16.688l 381.114,0.00 
								c 9.217,0.00, 16.688,7.465, 16.691,16.688L 447.996,287.50 l0.00,47.81 C 447.996,344.532, 440.521,351.998, 431.305,351.998z M 240.00,95.205
								c-62.186,0.00-112.596,50.41-112.596,112.596c0.00,62.181, 50.41,112.591, 112.596,112.591c 62.184,0.00, 112.596-50.41, 112.596-112.591
								C 352.596,145.615, 302.184,95.205, 240.00,95.205zM 255.898,287.297L 224.102,287.297L 224.102,223.696L 160.50,223.696L 160.50,191.902L 224.102,191.902L 224.102,128.301L 255.898,128.301L 255.898,191.902L 319.50,191.902L 319.50,223.696L 255.898,223.696 							z" />
<glyph unicode="&#xe054;" d="M 431.305,351.998L 216.757,351.998 l-43.624,58.994l-0.089-0.026c-3.031,3.094-7.244,5.032-11.916,5.032L 48.686,415.998 
						c-9.211,0.00-16.683-7.475-16.683-22.561l 1.505-312.185c0.00-9.223, 7.472-16.688, 16.683-16.688l 381.114,0.00 
						c 9.217,0.00, 16.688,7.465, 16.691,16.688L 447.996,287.50 l0.00,47.81 C 447.996,344.532, 440.521,351.998, 431.305,351.998z" />
<glyph unicode="&#xe055;" d="M 63.252,447.998L 95.65,447.998L 95.65,0.002L 63.252,0.002zM 401.471,415.998l-95.14-95.145l 96.834-96.851L 160.01,224.002 L 160.01,415.998 L 401.471,415.998  M 478.723,447.998L 128.01,447.998 l0.00-255.996 l 352.40,0.00 
						L 351.583,320.851L 478.723,447.998L 478.723,447.998z" />
<glyph unicode="&#xe056;" d="M 351.583,320.851L 478.723,447.998L 128.01,447.998L 128.01,192.002L 480.41,192.002 					zM 63.252,447.998L 95.65,447.998L 95.65,0.002L 63.252,0.002z" />
<glyph unicode="&#xe057;" d="M 160.003,415.998L 160.003,237.18L 415.996,448.00L 415.996,0.00L 160.003,210.82L 160.003,32.002L 64.003,32.002L 64.003,415.998 				z" />
<glyph unicode="&#xe058;" d="M 63.145,447.998L 63.145,383.998L 213.144,212.286L 213.144,40.859L 298.856-1.997L 298.856,212.286L 448.855,383.998L 448.855,447.998 					z" />
<glyph unicode="&#xe059;" d="M 503.611,146.991l-45.414,44.548c 13.105,11.496, 24.191,22.291, 32.663,31.172
									c-2.193,2.337-23.248,22.273-27.113,26.138c-2.402-2.128-104.908-114.769-207.756-114.769
									c-86.444,0.00-181.754,86.349-207.225,115.06c-7.362-6.769-24.63-23.638-27.437-26.429
									c 8.803-9.076, 19.852-19.751, 32.662-30.985L 8.387,146.991c-8.287-8.13-8.416-21.441-0.285-29.729
									c 4.118-4.196, 9.559-6.301, 15.007-6.301c 5.313,0.00, 10.63,2.001, 14.723,6.017l 48.974,48.041
									c 15.042-11.323, 31.434-22.418, 48.718-32.302l-29.787-62.356c-5.004-10.48-0.569-23.027, 9.908-28.036
									c 2.051-0.979, 4.182-1.594, 6.316-1.876c 8.783-1.159, 17.691,3.36, 21.715,11.785l 29.501,61.759
									c 20.12-8.455, 40.923-14.608, 61.80-17.17l0.00-64.193 c0.00-11.61, 9.412-21.022, 21.023-21.022s 21.023,9.412, 21.023,21.022l0.00,64.198 
									c 20.775,2.549, 41.49,8.65, 61.519,17.008l 30.169-61.632c 4.108-8.391, 13.056-12.824, 21.826-11.583
									c 2.136,0.304, 4.261,0.941, 6.299,1.943c 10.428,5.108, 14.742,17.697, 9.639,28.126l-30.236,61.768
									c 17.484,9.933, 34.023,21.076, 49.119,32.401l 48.812-47.88c 4.092-4.018, 9.407-6.018, 14.72-6.018
									c 5.447,0.00, 10.89,2.104, 15.009,6.301C 512.029,125.55, 511.90,138.861, 503.611,146.991z" />
<glyph unicode="&#xe05a;" d="M 255.992,349.715c-116.967,0.00-234.758-127.177-234.758-127.177s 117.791-127.166, 234.758-127.166
										c 116.984,0.00, 234.773,127.166, 234.773,127.166S 372.977,349.715, 255.992,349.715z M 255.992,133.905
										c-49.705,0.00-90.00,40.261-90.00,90.011c0.00,49.703, 40.296,89.989, 90.00,89.989c 49.729,0.00, 90.023-40.286, 90.023-89.989
										C 346.018,174.166, 305.721,133.905, 255.992,133.905zM 255.992,268.006c-24.32,0.00-44.104-19.78-44.104-44.09c0.00-24.313, 19.784-44.112, 44.104-44.112
										c 24.332,0.00, 44.126,19.80, 44.126,44.112C 300.12,248.225, 280.326,268.006, 255.992,268.006z" />
<glyph unicode="&#xe05b;" d="M 468.328,387.262l-47.784,48.149c-12.065,12.141-31.647,12.192-43.80,0.158l-30.197-29.965l 91.373-92.049
							l 30.208,29.928C 480.271,355.555, 480.381,375.141, 468.328,387.262z M 85.751,146.693l 91.38-92.024l 238.881,237.066
							l-91.432,92.096L 85.751,146.693z M 49.536,65.123L 32.512,2.57l 62.703,16.563l 58.26,15.346l-88.153,88.86L 49.536,65.123z" />
<glyph unicode="&#xe05c;" d="M 322.097,448.198L 64.002,448.198 l0.00-448.696 l 352.527,0.00 L 416.529,354.50 L 322.097,448.198z M 319.368,415.375l 64.453-63.377l-64.453,0.00 L 319.368,415.375 z
				 M 383.996,32.002L 96.002,32.002 L 96.002,415.998 L 288.00,415.998 l0.00-96.00 l 95.996,0.00 L 383.996,32.002 zM 127.404,207.801c0.00-62.186, 50.41-112.596, 112.596-112.596c 62.184,0.00, 112.596,50.41, 112.596,112.596
				c0.00,62.181-50.412,112.591-112.596,112.591C 177.814,320.392, 127.404,269.982, 127.404,207.801z M 319.50,223.696l0.00-31.794 l-159.00,0.00 l0.00,31.794 
				L 319.50,223.696 z" />
<glyph unicode="&#xe05d;" d="M 322.097,448.198L 64.002,448.198 l0.00-448.696 l 352.527,0.00 L 416.529,354.50 L 322.097,448.198z M 319.368,415.375l 64.453-63.377l-64.453,0.00 L 319.368,415.375 z
				 M 383.996,32.002L 96.002,32.002 L 96.002,415.998 L 288.00,415.998 l0.00-96.00 l 95.996,0.00 L 383.996,32.002 zM 127.404,207.801c0.00-62.186, 50.41-112.596, 112.596-112.596c 62.184,0.00, 112.596,50.41, 112.596,112.596
				c0.00,62.181-50.412,112.591-112.596,112.591C 177.814,320.392, 127.404,269.982, 127.404,207.801z M 319.50,223.696l0.00-31.794 l-63.602,0.00 
				l0.00-63.602 l-31.797,0.00 l0.00,63.602 L 160.50,191.902 l0.00,31.794 l 63.602,0.00 l0.00,63.601 l 31.797,0.00 l0.00-63.601 L 319.50,223.696 z" />
<glyph unicode="&#xe05e;" d="M 322.097,448.198L 64.002,448.198 l0.00-448.696 l 352.527,0.00 L 416.529,354.50 L 322.097,448.198z M 319.368,415.375l 64.453-63.377l-64.453,0.00 L 319.368,415.375 z
					 M 96.002,32.002L 96.002,415.998 L 288.00,415.998 l0.00-96.00 l 95.996,0.00 l0.00-287.996 L 96.002,32.002 z" />
<glyph unicode="&#xe05f;" d="M 339.229,149.373c 0.009-0.672, 0.054-1.321, 0.054-1.988c0.00-68.036-55.351-123.383-123.39-123.383
							c-68.031,0.00-123.383,55.347-123.383,123.383c0.00,41.116, 20.236,77.581, 51.258,100.014l-4.197,36.865
							c-47.956-26.845-80.46-78.124-80.46-136.878c0.00-86.454, 70.329-156.783, 156.783-156.783c 73.287,0.00, 134.963,50.55, 152.064,118.604
							L 339.229,149.373zM 155.871,409.356A39.893,39.893 540.00 1 0 235.657,409.356A39.893,39.893 540.00 1 0 155.871,409.356zM 452.941,100.229l-89.518,125.166c-4.685,6.555-12.505,9.654-20.441,8.976c-0.591,0.056-1.184,0.105-1.783,0.105
						L 238.941,234.476 l-2.539,22.263l 76.006,0.00 c 8.842,0.00, 16.009,7.165, 16.009,16.004c0.00,8.837-7.167,16.001-16.009,16.001l-79.647,0.00 l-4.157,36.556
						c-2.432,21.383-21.74,36.741-43.119,34.307c-21.383-2.437-36.741-21.741-34.305-43.117l 11.749-103.237
						c 2.276-19.967, 19.247-34.658, 38.883-34.55c 0.067,0.00, 0.129-0.015, 0.201-0.015l 133.794,0.00 l 76.77-107.339
						c 7.328-10.256, 22.315-12.11, 33.468-4.13C 457.188,75.191, 460.277,89.973, 452.941,100.229z" />
<glyph unicode="&#xe060;" d="M 380.476,96.165A36.94,36.94 540.00 1 0 454.356,96.16500000000002A36.94,36.94 540.00 1 0 380.476,96.16500000000002zM 137.084,133.105c-20.396,0.00-36.936-16.539-36.936-36.939c0.00-20.402, 16.54-36.941, 36.936-36.941
						c 20.406,0.00, 36.945,16.539, 36.945,36.941C 174.03,116.566, 157.491,133.105, 137.084,133.105zM 32.089,351.998L 319.996,351.998L 319.996,160.002L 32.089,160.002zM 447.996,287.998l-96.123,0.00 L 351.873,133.11 L 165.726,133.11 c 11.016-8.554, 18.113-21.914, 18.113-36.944l 186.825,0.00 
						c0.00,25.823, 20.926,46.754, 46.752,46.754c 25.818,0.00, 46.752-20.931, 46.752-46.754l 6.414,0.00 c 5.15,0.00, 9.328,4.176, 9.328,9.332l0.00,18.005 
						L 479.91,223.999 L 447.996,287.998z M 384.295,209.539l 0.115,46.223l 41.301,0.00 l 22.285-46.223L 384.295,209.539 zM 108.444,133.11L 32.196,133.11 L 32.10,119.348c0.00,0.00-1.209-23.182, 22.168-23.182s 25.151,0.00, 25.151,0.00L 90.33,96.166 
						C 90.33,111.196, 97.428,124.557, 108.444,133.11z" />
<glyph unicode="&#xe061;" d="M 462.879,367.121L 399.121,430.885L 256.00,287.769L 111.883,431.883L 48.119,368.119L 192.234,224.002L 47.115,78.885L 110.879,15.114L 256.00,160.239L 400.125,16.112L 463.883,79.883L 319.762,224.002 								z" />
<glyph unicode="&#xe062;" d="M 256.50,450.167c-123.433,0.00-223.495-30.976-223.495-58.084c0.00-7.91,0.00-78.09,0.00-86.00c0.00-27.108, 100.063-58.084, 223.495-58.084
						c 123.434,0.00, 223.496,30.976, 223.496,58.084c0.00,7.91,0.00,78.09,0.00,86.00C 479.996,419.19, 379.934,450.167, 256.50,450.167z M 256.50,352.218
						c-92.096,0.00-166.755,16.965-166.755,34.191c0.00,17.226, 74.659,37.191, 166.755,37.191c 92.097,0.00, 166.757-19.965, 166.757-37.191
						C 423.257,369.183, 348.597,352.218, 256.50,352.218zM 256.50,74.967c-121.174,0.00-219.815,27.18-223.385,53.602c-0.066-0.492-0.11-0.986-0.11-1.482c0.00-7.91,0.00-70.09,0.00-78.00
						c0.00-27.108, 100.063-58.084, 223.495-58.084c 123.434,0.00, 223.496,30.976, 223.496,58.084c0.00,7.91,0.00,70.09,0.00,78.00
						c0.00,0.496-0.044,0.99-0.11,1.482C 476.315,102.146, 377.675,74.967, 256.50,74.967zM 256.50,199.684c-121.174,0.00-219.815,30.18-223.385,56.602c-0.066-0.492-0.11-0.986-0.11-1.482c0.00-7.91,0.00-70.09,0.00-78.00
						c0.00-27.108, 100.063-58.084, 223.495-58.084c 123.434,0.00, 223.496,30.976, 223.496,58.084c0.00,7.91,0.00,70.09,0.00,78.00
						c0.00,0.496-0.044,0.99-0.11,1.482C 476.315,229.863, 377.675,199.684, 256.50,199.684z" />
<glyph unicode="&#xe063;" d="M 32.003,384.085l0.00-256.083 l 447.994,0.00 L 479.997,384.085 L 32.003,384.085 z M 447.997,192.002
				c-16.979,0.00-31.844-16.662-31.844-32.00c-85.539,0.00-312.823,0.00-319.494,0.00c0.00,15.988-12.478,33.004-32.656,33.004
				c0.00,34.088,0.00,115.911,0.00,126.904c 23.808,0.00, 30.772,17.437, 30.772,32.176c 13.851,0.00, 306.301,0.00, 321.537,0.00
				c0.00-15.313, 14.154-31.521, 31.685-31.521C 447.997,310.141, 447.997,199.875, 447.997,192.002zM 195.765,256.043A60.235,76.165 540.00 1 0 316.235,256.043A60.235,76.165 540.00 1 0 195.765,256.043zM 32.003,96.002L 479.997,96.002L 479.997,64.002L 32.003,64.002z" />
<glyph unicode="&#xe064;" d="M 479.748,355.514c0.00,15.757-12.77,28.528-28.528,28.528L 60.78,384.042 c-15.756,0.00-28.528-12.771-28.528-28.528l0.00-263.027 
					c0.00-15.759, 12.772-28.528, 28.528-28.528l 390.44,0.00 c 15.759,0.00, 28.528,12.77, 28.528,28.528L 479.748,355.514 z M 75.163,352.042l 362.455,0.00 
					c 5.122,0.00, 10.629-5.509, 10.629-10.628l0.00-53.173 L 64.252,288.241 l0.00,53.173 C 64.252,346.533, 70.047,352.042, 75.163,352.042z M 437.617,96.046
					L 75.163,96.046 c-5.116,0.00-10.91,3.203-10.91,8.32L 64.253,223.217 l 383.994,0.00 l0.00-118.851 C 448.246,99.249, 442.739,96.046, 437.617,96.046z" />
<glyph unicode="&#xe065;" d="M 259.116,414.717C 136.071,417.138, 34.79,341.32, 32.90,245.367c-0.652-33.359, 10.793-64.75, 31.171-91.627l-0.004,0.00 
									c 35.045-45.026-32.065-135.984-32.065-135.984l 141.793,62.193c 24.33-7.688, 50.769-12.167, 78.473-12.713
									c 123.042-2.428, 224.325,73.396, 226.217,169.349C 480.369,332.54, 382.155,412.291, 259.116,414.717z" />
<glyph unicode="&#xe066;" d="M 256.00-0.496C 132.211-0.496, 31.504,100.216, 31.504,224.00C 31.504,347.789, 132.211,448.496, 256.00,448.496
							c 123.789,0.00, 224.496-100.708, 224.496-224.496C 480.496,100.216, 379.789-0.496, 256.00-0.496z M 256.00,394.617
							c-94.078,0.00-170.617-76.539-170.617-170.617c0.00-94.082, 76.54-170.617, 170.617-170.617c 94.087,0.00, 170.617,76.535, 170.617,170.617
							C 426.617,318.078, 350.087,394.617, 256.00,394.617zM 357.43,238.941l-83.642,0.00 l0.00,102.79 c0.00,12.339-9.996,22.339-22.345,22.339c-12.339,0.00-22.344-10.00-22.344-22.339l0.00-125.454 
						c0.00-12.165, 9.87-22.025, 22.029-22.025L 357.43,194.252 c 12.339,0.00, 22.345,10.005, 22.345,22.344
						C 379.774,228.936, 369.769,238.941, 357.43,238.941z" />
<glyph unicode="&#xe067;" d="M 182.964,32.002c-25.798,69.719-85.798,136.165-148.651,176.979l 29.583,48.595
								c 36.183-14.439, 115.92-60.484, 144.845-103.773c 47.26,107.101, 130.196,204.28, 238.443,265.649l 30.501-48.477
								c-106.48-79.458-184.927-215.304-222.155-338.973L 182.964,32.002 z" />
<glyph unicode="&#xe068;" d="M 463.271,351.953L 127.855,351.953 L 53.729,425.512C 43.326,435.835, 26.523,435.77, 16.20,425.367
									C 5.877,414.964, 5.942,398.162, 16.345,387.839l 86.328-85.666l 34.09-156.646c0.00-9.678, 7.846-17.525, 17.525-17.525l 268.546,0.00 
									c 9.686,0.00, 17.525,7.848, 17.525,17.525l 40.437,188.903C 480.797,344.112, 472.957,351.953, 463.271,351.953zM 334.075,48.083A47.978,47.978 540.00 1 0 430.031,48.08300000000003A47.978,47.978 540.00 1 0 334.075,48.08300000000003zM 144.259,48.083A47.978,47.978 540.00 1 0 240.215,48.08300000000003A47.978,47.978 540.00 1 0 144.259,48.08300000000003z" />
<glyph unicode="&#xe069;" d="M 256.00,447.998C 132.289,447.998, 32.001,347.711, 32.001,224.00S 132.289,0.002, 256.00,0.002S 479.999,100.289, 479.999,224.00
							S 379.711,447.998, 256.00,447.998z M 145.692,334.307c 29.464,29.464, 68.639,45.691, 110.308,45.691
							c 28.047,0.00, 54.958-7.361, 78.544-21.152L 121.152,145.459c-13.79,23.585-21.151,50.495-21.151,78.541
							C 100.001,265.668, 116.228,304.843, 145.692,334.307z M 366.308,113.693c-29.464-29.465-68.639-45.691-110.308-45.691
							c-28.047,0.00-54.958,7.361-78.544,21.153l 213.387,213.394c 13.794-23.587, 21.156-50.50, 21.156-78.549
							C 411.999,182.331, 395.772,143.157, 366.308,113.693z" />
<glyph unicode="&#xe06a;" d="M 172.063,193.823L 217.844,193.823L 217.844,148.066L 172.063,148.066zM 236.52,132.598L 282.242,132.598L 282.242,86.848L 236.52,86.848zM 172.063,132.598L 217.844,132.598L 217.844,86.848L 172.063,86.848zM 172.063,255.05L 217.844,255.05L 217.844,209.319L 172.063,209.319zM 368.475,344.174c 10.469,0.00, 18.949,8.495, 18.949,18.977L 387.424,428.535 c-0.001,10.481-8.481,18.964-18.949,18.964
										c-10.494,0.00-18.979-8.483-18.979-18.964l0.00-65.385 C 349.50,352.669, 357.981,344.174, 368.475,344.174zM 144.372,344.174c 10.467,0.00, 18.946,8.495, 18.946,18.977L 163.318,428.535 c0.00,10.481-8.479,18.964-18.946,18.964
										c-10.495,0.00-18.979-8.483-18.979-18.964l0.00-65.385 C 125.395,352.669, 133.877,344.174, 144.372,344.174zM 107.603,193.823L 153.36,193.823L 153.36,148.066L 107.603,148.066zM 107.603,132.598L 153.36,132.598L 153.36,86.848L 107.603,86.848zM 236.52,193.823L 282.242,193.823L 282.242,148.066L 236.52,148.066zM 365.40,193.823L 411.155,193.823L 411.155,148.066L 365.40,148.066zM 365.40,255.05L 411.155,255.05L 411.155,209.319L 365.40,209.319zM 393.676,414.993l0.00-20.091 c 7.886-6.972, 12.886-17.154, 12.886-28.519c0.00-21.04-17.044-38.116-38.088-38.116
										c-21.069,0.00-38.114,17.076-38.114,38.116c0.00,11.365, 5.001,21.547, 12.885,28.519L 343.245,414.993 L 169.575,414.993 l0.00-20.091 
										c 7.885-6.972, 12.885-17.154, 12.885-28.519c0.00-21.04-17.044-38.116-38.087-38.116c-21.07,0.00-38.114,17.076-38.114,38.116
										c0.00,11.365, 5.00,21.547, 12.884,28.519L 119.143,414.993 L 32.91,414.993 l0.00-415.021 l 447.103,0.00 L 480.013,414.993 L 393.676,414.993 z M 75.331,42.393L 75.331,307.647 l 363.134,0.00 
										l 0.001-265.254L 75.331,42.393 zM 236.52,255.05L 282.242,255.05L 282.242,209.319L 236.52,209.319zM 300.972,255.05L 346.727,255.05L 346.727,209.319L 300.972,209.319zM 300.972,132.598L 346.727,132.598L 346.727,86.848L 300.972,86.848zM 300.972,193.823L 346.727,193.823L 346.727,148.066L 300.972,148.066z" />
<glyph unicode="&#xe06b;" d="M 317.874,207.586L 223.48,285.505L 223.48,240.826L 161.002,240.828L 161.002,174.352L 223.478,174.35L 223.478,129.682 					zM 127.404,207.801c0.00,33.476, 14.616,63.534, 37.808,84.158L 32.002,336.244l0.00-260.247 L 224.50,12.002l0.00,84.27 
						C 169.65,103.824, 127.404,150.875, 127.404,207.801zM 240.00,320.392c 15.104,0.00, 29.512-2.982, 42.674-8.377l 166.323,55.294L 240.50,436.634L 32.002,367.309l 165.772-55.11
						C 210.815,317.478, 225.066,320.392, 240.00,320.392zM 352.596,207.801c0.00-56.84-42.12-103.833-96.848-111.494l0.00-84.305 l 192.497,63.995L 448.245,336.244 l-133.391-44.345
						C 338.008,271.276, 352.596,241.244, 352.596,207.801z" />
<glyph unicode="&#xe06c;" d="M 32.002,75.997L 224.50,12.002L 224.50,272.249L 32.002,336.244 					zM 240.50,436.634L 32.002,367.309L 240.50,297.995L 448.997,367.309 					zM 255.748,12.002L 448.245,75.997L 448.245,336.244L 255.748,272.249 					z" />
<glyph unicode="&#xe06d;" d="M 381.254,375.126c 11.729-16.323, 17.626-35.857, 17.626-58.604c0.00-23.444-5.932-42.296-17.78-56.524
										c-6.646-7.991-16.385-15.30-29.295-21.893c 19.581-7.107, 34.383-18.403, 44.349-33.856
										c 9.959-15.455, 14.956-34.229, 14.956-56.263c0.00-22.745-5.709-43.133-17.101-61.193
										c-7.229-11.979-16.293-22.063-27.188-30.225c-12.258-9.372-26.718-15.826-43.383-19.271
										c-16.664-3.508-34.728-5.213-54.244-5.213l-173.00,0.00 L 96.194,416.011 l 185.54,0.00 C 328.561,415.327, 361.734,401.689, 381.254,375.126z
										 M 172.782,349.338l0.00-84.655 l 93.312,0.00 c 16.665,0.00, 30.194,3.166, 40.59,9.496c 10.396,6.346, 15.609,17.581, 15.609,33.748
										c0.00,17.875-6.893,29.682-20.639,35.423c-11.854,3.987-26.969,5.988-45.366,5.988L 172.782,349.338 z M 172.782,201.115l0.00-102.344 l 93.22,0.00 
										c 16.632,0.00, 29.604,2.229, 38.885,6.765c 16.813,8.317, 25.229,24.298, 25.229,47.914c0.00,19.983-8.161,33.698-24.479,41.147
										c-9.093,4.188-21.879,6.324-38.354,6.518L 172.782,201.115 z" />
<glyph unicode="&#xe06e;" d="M 448.146,103.733c-32.37,33.626-39.422,96.247-46.244,144.357C 391.786,319.403, 389.655,399.545, 288.00,410.034L 288.00,422.951 
					c0.00,12.958-19.774,23.464-32.732,23.464c-12.957,0.00-31.266-10.506-31.266-23.464l0.00-12.935 
					c-100.815-10.558-104.324-90.674-114.348-161.949c-6.768-48.132-13.766-110.76-45.87-144.402
					c-6.481-6.794-8.294-16.796-4.60-25.428c 3.698-8.639, 12.184-14.235, 21.576-14.235l 350.482,0.00 c 9.406,0.00, 17.907,5.619, 21.597,14.286
					C 456.516,86.938, 454.672,96.957, 448.146,103.733zM 256.00-14.555c 25.712,0.00, 46.557,20.845, 46.557,46.557l-93.113,0.00 C 209.443,6.29, 230.287-14.555, 256.00-14.555z" />
<glyph unicode="&#xe06f;" d="M 460.282,399.933c-29.559,29.429-80.832,26.523-110.294-3.051L 141.657,187.507
					c-21.036-21.129-23.084-57.451-1.914-78.236c 21.114-21.168, 57.359-19.016, 78.394,2.113l 129.454,130.282
					c 5.135,4.709, 5.525,12.354, 0.21,18.147c-4.96,5.409-15.472,5.629-19.813,1.268L 199.015,131.397l0.00,0.00
					c-12.636-12.629-25.909-14.955-38.576-2.518c-12.674,12.531-12.258,27.254, 0.345,39.916l0.00,0.00l 206.882,207.896l0.00,0.00l-0.04,0.037
					c 21.007,21.043, 50.964,23.467, 72.00,2.515c 20.731-20.977, 21.542-54.067, 0.265-75.111l 0.007,0.045L 186.923,49.795l 0.01-0.031
					c-28.166-26.053-75.066-31.572-106.799-0.541c-29.505,29.422-26.095,77.855, 0.506,107.701l 175.476,176.465
					c 2.717,2.805, 5.619,13.408-0.289,18.62c-5.189,4.579-15.311,5.955-18.934,2.314L 61.859,177.889
					c-43.236-45.451-41.512-112.49-3.464-150.205c 38.01-37.904, 106.534-40.826, 149.494,2.51L 461.10,284.58
					C 490.632,314.03, 489.853,370.50, 460.282,399.933z" />
<glyph unicode="&#xe070;" d="M 256.023,463.354L 32.188,192.187L 160.536,192.187L 160.531-1.098L 351.492-1.098L 351.498,192.18L 479.813,192.18 					z" />
<glyph unicode="&#xe071;" d="M 496.124,223.978L 224.957,447.812L 224.957,319.464L 31.672,319.469L 31.672,128.508L 224.949,128.502L 224.949,0.188 					z" />
<glyph unicode="&#xe072;" d="M 15.544,223.978L 286.711,447.812L 286.711,319.464L 479.996,319.469L 479.996,128.508L 286.719,128.502L 286.719,0.188 					z" />
<glyph unicode="&#xe073;" d="M 255.977-15.256L 479.813,255.912L 351.463,255.912L 351.469,449.198L 160.507,449.198L 160.501,255.92L 32.188,255.92 					z" />
<glyph unicode="&#xe074;" d="M 395.786,207.949c-0.646,64.859, 52.894,95.965, 55.287,97.51c-30.085,44.022-76.946,50.053-93.647,50.749
					c-39.881,4.039-77.818-23.48-98.059-23.48c-20.189,0.00-51.423,22.884-84.50,22.281c-43.47-0.646-83.552-25.275-105.935-64.207
					c-45.164-78.371-11.565-194.472, 32.454-258.033c 21.51-31.111, 47.159-66.057, 80.835-64.808
					c 32.43,1.295, 44.693,20.983, 83.90,20.983c 39.208,0.00, 50.229-20.983, 84.549-20.339c 34.896,0.648, 57.006,31.707, 78.366,62.914
					c 24.702,36.094, 34.872,71.038, 35.472,72.832C 463.735,104.708, 396.461,130.479, 395.786,207.949z M 331.301,398.287
					c 17.874,21.685, 29.938,51.77, 26.647,81.783c-25.746-1.048-56.954-17.149-75.426-38.785
					c-16.575-19.194-31.083-49.826-27.194-79.24C 284.069,359.802, 313.408,376.65, 331.301,398.287z" />
<glyph unicode="&#xe075;" d="M 432.00,320.00c-17.601,0.00-32.00-14.40-32.00-32.00l0.00-128.00 c0.00-17.60, 14.399-32.00, 32.00-32.00c 17.60,0.00, 32.00,14.40, 32.00,32.00L 464.00,288.00 C 464.00,305.60, 449.60,320.00, 432.00,320.00z
					 M 48.00,320.00c-17.601,0.00-32.00-14.40-32.00-32.00l0.00-128.00 c0.00-17.60, 14.399-32.00, 32.00-32.00c 17.60,0.00, 32.00,14.40, 32.00,32.00L 80.00,288.00 C 80.00,305.60, 65.599,320.00, 48.00,320.00z M 96.00,112.00
					c0.00-26.51, 21.49-48.00, 48.00-48.00l 16.00,0.00 l0.00-64.00 c0.00-17.60, 14.399-32.00, 32.00-32.00c 17.60,0.00, 32.00,14.40, 32.00,32.00l0.00,64.00 l 32.00,0.00 l0.00-64.00 c0.00-17.60, 14.40-32.00, 32.00-32.00
					c 17.599,0.00, 32.00,14.40, 32.00,32.00l0.00,64.00 l 16.00,0.00 c 26.51,0.00, 48.00,21.49, 48.00,48.00L 384.00,288.00 L 96.00,288.00 L 96.00,112.00 z M 299.299,435.253l 20.252,38.903
					c 1.016,1.951, 0.25,4.379-1.701,5.395c-1.951,1.016-4.379,0.25-5.396-1.701l-20.559-39.493C 275.797,444.581, 258.299,448.00, 240.00,448.00
					c-18.298,0.00-35.796-3.419-51.898-9.643L 167.544,477.849c-1.017,1.951-3.443,2.717-5.396,1.701
					c-1.952-1.016-2.717-3.443-1.701-5.395l 20.25-38.904c-45.314-20.509-78.119-63.792-83.81-115.252l 286.22,0.00 
					C 377.42,371.461, 344.614,414.743, 299.299,435.253z M 176.00,344.80c-12.813,0.00-23.20,10.387-23.20,23.20s 10.387,23.20, 23.20,23.20
					c 12.813,0.00, 23.20-10.387, 23.20-23.20C 199.199,355.187, 188.813,344.80, 176.00,344.80z M 304.00,344.80c-12.813,0.00-23.201,10.387-23.201,23.20
					S 291.188,391.20, 304.00,391.20c 12.812,0.00, 23.198-10.387, 23.198-23.20S 316.813,344.80, 304.00,344.80z" />
<glyph unicode="&#xe076;" d="M 32.74,415.823l0.00-64.651 L 480.00,351.172 L 480.00,415.823 L 32.74,415.823 z M 480.00,320.151L 32.74,320.151 l0.00-64.652 L 480.00,255.499 L 480.00,320.151 z M 480.00,223.831L 32.74,223.831 l0.00-64.667 L 480.00,159.164 
											L 480.00,223.831 z M 479.854,127.831L 241.426,127.831 l0.00-64.667 l 238.428,0.00 L 479.854,127.831 z" />
<glyph unicode="&#xe077;" d="M 32.741,415.823l0.00-64.651 L 480.00,351.172 L 480.00,415.823 L 32.741,415.823 z M 32.741,255.861L 480.00,255.861 l0.00,64.652 L 32.741,320.513 L 32.741,255.861 z M 32.741,159.164L 480.00,159.164 
											l0.00,64.667 L 32.741,223.831 L 32.741,159.164 z M 32.887,63.164l 238.427,0.00 l0.00,64.668 L 32.887,127.832 L 32.887,63.164 z" />
<glyph unicode="&#xe078;" d="M 32.37,415.823l0.00-64.651 l 447.26,0.00 L 479.63,415.823 L 32.37,415.823 z M 32.37,255.861l 447.26,0.00 l0.00,64.652 L 32.37,320.513 L 32.37,255.861 z M 32.37,158.99l 447.26,0.00 
											l0.00,64.666 L 32.37,223.656 L 32.37,158.99 z M 136.786,63.164l 238.428,0.00 l0.00,64.668 L 136.786,127.832 L 136.786,63.164 z" />
<glyph unicode="&#xe079;" d="M 55.773,415.998L 89.242,65.979L 179.998,156.734L 316.659,20.057L 451.689,155.088L 315.025,291.759L 405.758,382.491 						z" />
<glyph unicode="&#xe07a;" d="M 451.689,415.998L 418.221,65.979L 327.465,156.734L 190.804,20.057L 55.773,155.088L 192.438,291.759L 101.705,382.491 						z" />
<glyph unicode="&#xe07b;" d="M 55.773,28.153L 89.242,378.178L 179.998,287.422L 316.659,424.10L 451.689,289.069L 315.025,152.393L 405.758,61.661 						z" />
<glyph unicode="&#xe07c;" d="M 451.689,28.153L 418.221,378.178L 327.465,287.422L 190.804,424.10L 55.773,289.069L 192.438,152.393L 101.705,61.661 						z" />
<glyph unicode="&#xe015;" d="M 255.50,479.00L 31.938,255.437L 159.688,255.437L 159.688-32.00L 351.313-32.00L 351.313,255.437L 479.063,255.437 	z" />
<glyph unicode="&#xe01e;" d="M 142.056-32.649L-0.909,156.133L 88.021,223.45L 182.043,99.299L 418.531,479.002L 513.212,420.044L 233.86-32.649 			
				z" />
<glyph unicode="&#xe07d;" d="M 511.352,435.355L 467.354,479.351L 256.00,267.998L 44.646,479.351L 0.649,435.355L 212.003,224.00L 0.649,12.647L 44.646-31.351L 256.00,180.004L 467.354-31.351L 511.352,12.647L 299.997,224.00 	
		z" />
<glyph unicode="&#xe07e;" d="M 432.324,224.013c0.00,27.226, 16.741,48.712, 41.994,63.479c-4.563,15.178-10.563,29.739-17.998,43.431
			c-28.278-7.384-51.198,3.691-70.452,22.971c-19.254,19.228-25.15,42.149-17.741,70.453c-13.69,7.409-28.253,13.434-43.456,17.972
			c-14.767-25.254-41.456-41.996-68.685-41.996c-27.226,0.00-53.889,16.741-68.682,41.996c-15.204-4.539-29.74-10.563-43.456-17.972
			c 7.409-28.304, 1.512-51.225-17.742-70.453c-19.254-19.279-42.149-30.354-70.453-22.971c-7.409-13.692-13.434-28.253-17.972-43.431
			c 25.228-14.767, 41.996-36.252, 41.996-63.479c0.00-27.228-16.768-53.942-41.996-68.71c 4.539-15.177, 10.563-29.74, 17.972-43.43
			c 28.304,7.383, 51.199,1.488, 70.453-17.74c 19.254-19.28, 25.151-42.175, 17.742-70.454c 13.715-7.436, 28.251-13.459, 43.456-17.997
			c 14.793,25.228, 41.457,41.994, 68.682,41.994c 27.229,0.00, 53.918-16.767, 68.685-41.994c 15.203,4.538, 29.766,10.562, 43.456,17.997
			c-7.383,28.279-1.513,51.174, 17.741,70.454c 19.254,19.229, 42.174,30.327, 70.452,22.918c 7.436,13.692, 13.436,28.253, 17.998,43.482
			C 449.065,175.301, 432.324,196.785, 432.324,224.013z M 255.986,129.051c-52.428,0.00-94.936,42.508-94.936,94.962
			c0.00,52.43, 42.508,94.911, 94.936,94.911c 52.456,0.00, 94.938-42.481, 94.938-94.911C 350.924,171.559, 308.442,129.051, 255.986,129.051z" />
<glyph unicode="&#xe07f;" d="M 427.555,397.486L 84.457,397.486 l-28.806-54.838L 456.35,342.648 L 427.555,397.486zM 321.42,449.405L 189.754,449.405 l0.00-26.547 L 321.42,422.858 L 321.42,449.405 zM 114.156-1.405l 283.702,0.00 l 28.795,317.869L 85.348,316.464 L 114.156-1.405z M 322.633,288.831l 25.488,0.00 l0.00-261.495 l-25.488,0.00 L 322.633,288.831 z
			 M 242.424,288.831l 26.314,0.00 l0.00-261.495 l-26.314,0.00 L 242.424,288.831 z M 163.04,288.831l 26.328,0.00 l0.00-261.495 L 163.04,27.336 L 163.04,288.831 z" />
<glyph unicode="&#xe080;" d="M 256.00,479.511C 114.885,479.511, 0.489,365.115, 0.489,224.00c0.00-141.114, 114.396-255.512, 255.511-255.512
					c 141.114,0.00, 255.512,114.397, 255.512,255.512C 511.512,365.115, 397.114,479.511, 256.00,479.511z M 256.00,127.719
					c-53.174,0.00-96.281,43.107-96.281,96.281c0.00,53.174, 43.106,96.281, 96.281,96.281c 53.173,0.00, 96.281-43.106, 96.281-96.281
					C 352.281,170.826, 309.173,127.719, 256.00,127.719z M 48.198,136.23C 36.447,164.014, 30.489,193.543, 30.489,224.00
					s 5.958,59.987, 17.709,87.77c 11.357,26.85, 27.621,50.97, 48.341,71.69c 0.377,0.377, 0.765,0.743, 1.145,1.118l 70.208-70.208
					c-23.534-22.95-38.173-54.98-38.173-90.37s 14.64-67.42, 38.173-90.37l-70.208-70.209c-0.38,0.375-0.767,0.74-1.145,1.118
					C 75.819,85.26, 59.555,109.38, 48.198,136.23z M 415.461,64.539c-0.446-0.446-0.902-0.878-1.352-1.32L 343.90,133.427
					c 23.655,22.964, 38.381,55.079, 38.381,90.573c0.00,35.494-14.726,67.608-38.38,90.572l 70.208,70.208
					c 0.449-0.441, 0.905-0.874, 1.352-1.32c 20.72-20.72, 36.984-44.84, 48.341-71.691c 11.751-27.783, 17.71-57.313, 17.71-87.77
					s-5.959-59.986-17.71-87.77C 452.445,109.38, 436.181,85.26, 415.461,64.539z"  />
<glyph unicode="&#xe081;" d="M 388.625,403.627l-13.938-81.237c-23.799,14.508-50.48,25.514-77.758,30.756l-9.889-66.753
				c 76.615-22.632, 114.924-50.506, 114.924-123.62c0.00-88.813-63.846-124.785-147.418-125.357l-9.291-67.92l-44.681,9.861l 8.708,60.941
				c-34.83,5.217-67.325,16.844-99.248,33.662l 12.77,80.094c 40.047-21.465, 71.386-31.924, 103.297-36.545l 11.613,80.666
				c-71.97,21.465-116.65,47.003-116.65,119.544c0.00,72.566, 49.326,117.831, 142.189,117.831c 1.738,0.00, 2.906,0.00, 4.646,0.00l 6.385,42.954
				l 44.107-9.863l-5.217-37.736C 340.453,425.688, 365.992,416.397, 388.625,403.627z M 255.131,357.792
				c-30.185,0.00-42.37-10.459-42.37-27.874c0.00-14.509, 8.708-23.204, 39.463-33.091l 8.708,60.965
				C 259.191,357.792, 256.869,357.792, 255.131,357.792z M 310.27,149.408c0.00,18.012-8.721,28.445-37.725,38.309l-11.029-71.945
				C 292.258,116.342, 310.27,127.945, 310.27,149.408z"  />
<glyph unicode="&#xe082;" d="M 128.00,447.998L 192.00,447.998L 192.00,383.998L 128.00,383.998zM 128.00,351.998L 192.00,351.998L 192.00,287.998L 128.00,287.998zM 128.00,255.998L 192.00,255.998L 192.00,191.998L 128.00,191.998zM 128.00,159.897L 192.00,159.897L 192.00,95.897L 128.00,95.897zM 128.00,64.002L 192.00,64.002L 192.00,0.002L 128.00,0.002zM 224.00,447.998L 288.00,447.998L 288.00,383.998L 224.00,383.998zM 224.00,351.998L 288.00,351.998L 288.00,287.998L 224.00,287.998zM 224.00,255.998L 288.00,255.998L 288.00,191.998L 224.00,191.998zM 224.00,159.897L 288.00,159.897L 288.00,95.897L 224.00,95.897zM 224.00,64.002L 288.00,64.002L 288.00,0.002L 224.00,0.002zM 320.00,447.998L 384.00,447.998L 384.00,383.998L 320.00,383.998zM 320.00,351.998L 384.00,351.998L 384.00,287.998L 320.00,287.998zM 320.00,255.998L 384.00,255.998L 384.00,191.998L 320.00,191.998zM 320.00,159.897L 384.00,159.897L 384.00,95.897L 320.00,95.897zM 320.00,64.002L 384.00,64.002L 384.00,0.002L 320.00,0.002z"  />
<glyph unicode="&#xe083;" d="M 160.00,352.00L 224.00,352.00L 224.00,288.00L 160.00,288.00zM 160.00,256.00L 224.00,256.00L 224.00,192.00L 160.00,192.00zM 160.00,160.00L 224.00,160.00L 224.00,96.00L 160.00,96.00zM 256.00,352.00L 320.00,352.00L 320.00,288.00L 256.00,288.00zM 256.00,256.00L 320.00,256.00L 320.00,192.00L 256.00,192.00zM 256.00,160.00L 320.00,160.00L 320.00,96.00L 256.00,96.00z"  />
<glyph unicode="&#xe084;" d="M 479.47,447.998L 128.002,447.998 l0.00-128.00 c-40.639,0.00-96.00,0.00-96.00,0.00L 32.002,0.53 l 351.994,0.00 L 383.996,128.002 l 95.474,0.00 L 479.47,447.998 z
			 M 319.996,64.002L 96.002,64.002 L 96.002,224.264 l 32.00,0.00 l0.00-96.262 l 191.994,0.00 C 319.996,102.986, 319.996,64.002, 319.996,64.002z M 415.996,192.002L 192.002,192.002 
			L 192.002,351.998 l 223.994,0.00 L 415.996,192.002 z"  />
<glyph unicode="&#xe085;" d="M 509.249,56.123L 269.033,461.332c-3.088,5.49-9.051,8.531-15.301,7.53
			c-4.615-0.733-8.547-3.573-10.765-7.53L 2.752,56.123c-2.635-4.683-2.639-10.691,0.00-15.354c 2.676-4.724, 7.629-7.82, 13.023-7.82
			l 480.445,0.00 c 5.383,0.00, 10.354,3.097, 13.028,7.82C 511.885,45.432, 511.885,51.44, 509.249,56.123z M 255.969,57.917
			c-21.576,0.00-39.07,17.883-39.07,39.942c0.00,22.09, 17.494,39.972, 39.07,39.972c 21.562,0.00, 39.07-17.882, 39.07-39.972
			C 295.039,75.80, 277.53,57.917, 255.969,57.917z M 278.495,161.388l-45.381,0.00 c0.00,0.00-16.312,96.182-16.312,162.234
			c0.00,40.005, 4.77,60.375, 39.414,60.375c 26.641,0.00, 37.574-17.129, 37.574-58.226C 293.791,259.751, 278.495,161.388, 278.495,161.388z"  />
<glyph unicode="&#xe086;" d="M 256.00,478.473c-140.549,0.00-254.489-113.94-254.489-254.458c0.00-140.581, 113.94-254.488, 254.489-254.488
				s 254.488,113.907, 254.488,254.488C 510.488,364.533, 396.549,478.473, 256.00,478.473z M 304.791,336.772
				c0.00-66.021-26.296-174.384-26.296-174.384l-45.38,0.00 c0.00,0.00-26.312,106.182-26.312,172.234c0.00,40.005, 14.769,61.378, 49.413,61.378
				C 282.857,396.00, 304.791,377.868, 304.791,336.772z M 255.969,58.917c-21.576,0.00-39.07,17.883-39.07,39.942
				c0.00,22.09, 17.494,39.972, 39.07,39.972c 21.562,0.00, 39.07-17.882, 39.07-39.972C 295.039,76.80, 277.53,58.917, 255.969,58.917z"  />
<glyph unicode="&#xe000;" d="M 470.70,72.193l-2.688,2.688l 0.006,0.002L 360.505,182.408c 14.938,25.732, 23.612,55.564, 23.816,87.451
						c 0.626,97.615-77.986,177.243-175.599,177.857c-0.394,0.001-0.771,0.002-1.168,0.002
						c-97.06-0.006-176.063-78.391-176.688-175.598c-0.618-97.609, 77.999-177.236, 175.597-177.859
						c 0.389-0.002, 0.766-0.004, 1.155-0.004c 32.438,0.00, 62.846,8.79, 88.998,24.075l 107.415-107.433l 0.014,0.01l 2.688-2.688
						c 8.125-8.123, 21.293-8.114, 29.41,0.00l 34.562,34.557C 478.819,50.895, 478.822,64.07, 470.70,72.193z M 300.39,177.58
						c-24.834-24.67-57.78-38.252-92.768-38.252l-0.874,0.00 c-72.589,0.467-131.271,59.908-130.813,132.503
						c 0.465,72.128, 59.516,130.811, 131.626,130.815l 0.879-0.002c 35.168-0.22, 68.146-14.123, 92.852-39.148
						c 24.706-25.025, 38.188-58.178, 37.966-93.352C 339.031,235.128, 325.229,202.25, 300.39,177.58zM 128.503,287.997L 287.501,287.997L 287.501,256.203L 128.503,256.203z"  />
<glyph unicode="&#x20;" horiz-adv-x="256" />
<glyph class="hidden" unicode="&#xf000;" d="M0,480L 512 -32L0 -32 z" horiz-adv-x="0" />
</font>
</defs>
</svg>
