<svg xmlns="http://www.w3.org/2000/svg"><defs><font horiz-adv-x="1200"><font-face units-per-em="1200" ascent="960" descent="-240"/><glyph/><glyph/><glyph/><glyph/><glyph unicode="*" d="M100 500v200h259L176 883l141 141 183-183v259h200V841l183 183 141-141-183-183h259V500H841l183-183-141-141-183 183V100H500v259L317 176 176 317l183 183H100z"/><glyph unicode="+" d="M0 400v300h400v400h300V700h400V400H700V0H400v400H0z"/><glyph/><glyph horiz-adv-x="652"/><glyph horiz-adv-x="1304"/><glyph horiz-adv-x="652"/><glyph horiz-adv-x="1304"/><glyph horiz-adv-x="434"/><glyph horiz-adv-x="326"/><glyph horiz-adv-x="217"/><glyph horiz-adv-x="217"/><glyph horiz-adv-x="163"/><glyph horiz-adv-x="260"/><glyph horiz-adv-x="72"/><glyph horiz-adv-x="260"/><glyph horiz-adv-x="326"/><glyph unicode="€" d="M100 500l100 100h113q0 47 5 100H100l100 100h135q37 167 112 257 117 141 297 141 242 0 354-189 60-103 66-209H983q0 55-25.5 99T894 967t-75 36.5-67 12.5q-24 0-52.5-10T637 974t-65.5-67T521 800h379L800 700H500q-6-46-6-100h406L800 500H500q9-74 33-132t52.5-91 62-54.5 59-29T753 186q29 0 66 13t75 37 63.5 67.5T983 400h174q-31-172-128-278Q922 5 755 5 550 5 431 163q-36 46-69 131.5T317 500H100z"/><glyph unicode="−" d="M200 400h900v300H200V400z"/><glyph unicode="◼" horiz-adv-x="500" d="M0 0z"/><glyph unicode="☁" d="M-14 494q0-80 56.5-137T178 300h750q120 0 205 86.5t85 207.5-85 207-205 86q-46 0-90-14-44 97-134.5 156.5T503 1089q-152 0-260-107.5T135 721q0-25 2-37-66-14-108.5-67.5T-14 494z"/><glyph unicode="✉" d="M0 100l400 400 200-200 200 200 400-400H0zm0 200v600l300-300zm0 800l600-603 600 603H0zm900-500l300 300V300z"/><glyph unicode="✏" d="M-13-13L320 99 97 322zm200 416l214-214 614 614-214 214zm700 700l214-214 99 92q13 13 13 32.5t-13 33.5l-153 153q-15 13-33 13t-33-13z"/><glyph unicode="" d="M0 1200h1200L700 650V100h300V0H200v100h300v550z"/><glyph unicode="" d="M14 84q18-55 86-75.5T247 14q65 21 109 69t44 90v606l600 155V413q-64 16-138-7-79-26-122.5-83T714 212q18-55 86-75.5t147 4.5q70 23 111.5 63.5T1100 300v881q0 10-7 15.5t-17 2.5l-752-193q-10-3-17-12.5t-7-19.5V285q-64 17-138-7-79-25-122.5-82T14 84z"/><glyph unicode="" d="M23 693q0 200 142 342t342 142 342-142 142-342q0-142-78-261l300-300q7-8 7-18t-7-18L1104-13q-8-7-18-7t-18 7L768 287q-119-78-261-78-200 0-342 142T23 693zm153 0q0-136 97-233t234-97 233.5 96.5T837 693t-96.5 233.5T507 1023t-234-97-97-233z"/><glyph unicode="" d="M100 784q0 64 28 123t73 100.5 104.5 64 119 20.5 120-38.5T649 949q48 69 109.5 105t121.5 38 118.5-20.5 102.5-64 71-100.5 27-123q0-57-33.5-117.5t-94-124.5T945 414.5 795 262 649 88q-62 85-145.5 174T354 414.5 227.5 542t-94 124.5T100 784z"/><glyph unicode="" d="M-72 800h479l146 400h2l146-400h472L791 522 936 73 552 348 170 73l146 447zM168 71l2 1z"/><glyph unicode="" d="M-72 800h479l146 400h2l146-400h472L791 522 936 73 552 348 170 73l146 447zM168 71l2 1zm69 629l196-142-73-226 192 140 195-141-74 229 193 140H631l-77 211-78-211H237z"/><glyph unicode="" d="M0 0v143l400 257v100q-37 0-68.5 74.5T300 700v200q0 124 88 212t212 88 212-88 88-212V700q0-51-31.5-125.5T800 500V400l400-257V0H0z"/><glyph unicode="" d="M0 0v1100h1200V0H0zm100 100h100v100H100V100zm0 200h100v100H100V300zm0 200h100v100H100V500zm0 200h100v100H100V700zm0 200h100v100H100V900zm200-800h600v400H300V100zm0 500h600v400H300V600zm700-500h100v100h-100V100zm0 200h100v100h-100V300zm0 200h100v100h-100V500zm0 200h100v100h-100V700zm0 200h100v100h-100V900z"/><glyph unicode="" d="M0 50v400q0 21 14.5 35.5T50 500h400q21 0 35.5-14.5T500 450V50q0-21-14.5-35.5T450 0H50Q29 0 14.5 14.5T0 50zm0 600v400q0 21 14.5 35.5T50 1100h400q21 0 35.5-14.5T500 1050V650q0-21-14.5-35.5T450 600H50q-21 0-35.5 14.5T0 650zM600 50v400q0 21 14.5 35.5T650 500h400q21 0 35.5-14.5T1100 450V50q0-21-14.5-35.5T1050 0H650q-21 0-35.5 14.5T600 50zm0 600v400q0 21 14.5 35.5T650 1100h400q21 0 35.5-14.5t14.5-35.5V650q0-21-14.5-35.5T1050 600H650q-21 0-35.5 14.5T600 650z"/><glyph unicode="" d="M0 50v200q0 21 14.5 35.5T50 300h200q21 0 35.5-14.5T300 250V50q0-21-14.5-35.5T250 0H50Q29 0 14.5 14.5T0 50zm0 400v200q0 21 14.5 35.5T50 700h200q21 0 35.5-14.5T300 650V450q0-21-14.5-35.5T250 400H50q-21 0-35.5 14.5T0 450zm0 400v200q0 21 14.5 35.5T50 1100h200q21 0 35.5-14.5T300 1050V850q0-21-14.5-35.5T250 800H50q-21 0-35.5 14.5T0 850zM400 50v200q0 21 14.5 35.5T450 300h200q21 0 35.5-14.5T700 250V50q0-21-14.5-35.5T650 0H450q-21 0-35.5 14.5T400 50zm0 400v200q0 21 14.5 35.5T450 700h200q21 0 35.5-14.5T700 650V450q0-21-14.5-35.5T650 400H450q-21 0-35.5 14.5T400 450zm0 400v200q0 21 14.5 35.5T450 1100h200q21 0 35.5-14.5T700 1050V850q0-21-14.5-35.5T650 800H450q-21 0-35.5 14.5T400 850zM800 50v200q0 21 14.5 35.5T850 300h200q21 0 35.5-14.5T1100 250V50q0-21-14.5-35.5T1050 0H850q-21 0-35.5 14.5T800 50zm0 400v200q0 21 14.5 35.5T850 700h200q21 0 35.5-14.5T1100 650V450q0-21-14.5-35.5T1050 400H850q-21 0-35.5 14.5T800 450zm0 400v200q0 21 14.5 35.5T850 1100h200q21 0 35.5-14.5t14.5-35.5V850q0-21-14.5-35.5T1050 800H850q-21 0-35.5 14.5T800 850z"/><glyph unicode="" d="M0 50v200q0 21 14.5 35.5T50 300h200q21 0 35.5-14.5T300 250V50q0-21-14.5-35.5T250 0H50Q29 0 14.5 14.5T0 50zm0 400q0-21 14.5-35.5T50 400h200q21 0 35.5 14.5T300 450v200q0 21-14.5 35.5T250 700H50q-21 0-35.5-14.5T0 650V450zm0 400v200q0 21 14.5 35.5T50 1100h200q21 0 35.5-14.5T300 1050V850q0-21-14.5-35.5T250 800H50q-21 0-35.5 14.5T0 850zM400 50v200q0 21 14.5 35.5T450 300h700q21 0 35.5-14.5T1200 250V50q0-21-14.5-35.5T1150 0H450q-21 0-35.5 14.5T400 50zm0 400v200q0 21 14.5 35.5T450 700h700q21 0 35.5-14.5T1200 650V450q0-21-14.5-35.5T1150 400H450q-21 0-35.5 14.5T400 450zm0 400v200q0 21 14.5 35.5T450 1100h700q21 0 35.5-14.5t14.5-35.5V850q0-21-14.5-35.5T1150 800H450q-21 0-35.5 14.5T400 850z"/><glyph unicode="" d="M29 454L448 34l818 820-212 212-607-607-206 207z"/><glyph unicode="" d="M106 318l282 282-282 282 212 212 282-282 282 282 212-212-282-282 282-282-212-212-282 282-282-282z"/><glyph unicode="" d="M23 693q0 200 142 342t342 142 342-142 142-342q0-142-78-261l300-300q7-8 7-18t-7-18L1104-13q-8-7-18-7t-18 7L768 287q-119-78-261-78-200 0-342 142T23 693zm153 0q0-136 97-233t234-97 233.5 96.5T837 693t-96.5 233.5T507 1023t-234-97-97-233zm124-93v200h100v100h200V800h100V600H600V500H400v100H300z"/><glyph unicode="" d="M23 694q0 200 142 342t342 142 342-142 142-342q0-141-78-262l300-299q7-7 7-18t-7-18L1104-12q-8-8-18-8t-18 8L768 288q-119-78-261-78-200 0-342 142T23 694zm153 0q0-136 97-233t234-97 233.5 97T837 694t-96.5 233-233.5 97-234-97-97-233zm124-93h400v200H300V601z"/><glyph unicode="" d="M23 600q0 183 105 331t272 210V975q-103-55-165-155t-62-220q0-177 125-302t302-125 302 125 125 302q0 120-62 220T800 975v166q167-62 272-210t105-331q0-118-45.5-224.5t-123-184-184-123T600 23 375.5 68.5t-184 123-123 184T23 600zm477 150q0-21 14.5-35.5T550 700h100q21 0 35.5 14.5T700 750v400q0 21-14.5 35.5T650 1200H550q-21 0-35.5-14.5T500 1150V750z"/><glyph unicode="" d="M100 1h200v300H100V1zm300 0v500h200V1H400zm300 0v800h200V1H700zm300 0v1200h200V1h-200z"/><glyph unicode="" d="M26 601q0-33 6-74l151-38 2-6q14-49 38-93l3-5-80-134q45-59 105-105l133 81 5-3q45-26 94-39l5-2 38-151q40-5 74-5 27 0 74 5l38 151 6 2q46 13 93 39l5 3 134-81q56 44 104 105l-80 134 3 5q24 44 39 93l1 6 152 38q5 40 5 74 0 28-5 73l-152 38-1 6q-16 51-39 93l-3 5 80 134q-44 58-104 105l-134-81-5 3q-45 25-93 39l-6 1-38 152q-40 5-74 5-27 0-74-5l-38-152-5-1q-50-14-94-39l-5-3-133 81q-59-47-105-105l80-134-3-5q-25-47-38-93l-2-6-151-38q-6-48-6-73zm359 0q0 88 63 151t152 63 152-63 63-151q0-89-63-152t-152-63-152 63-63 152z"/><glyph unicode="" d="M100 1025v50q0 10 7.5 17.5t17.5 7.5h275v100q0 41 29.5 70.5T500 1300h300q41 0 70.5-29.5T900 1200v-100h275q10 0 17.5-7.5t7.5-17.5v-50q0-11-7-18t-18-7H125q-11 0-18 7t-7 18zm100-925v800h900V100q0-41-29.5-71T1000-1H300q-41 0-70.5 30T200 100zm100 0h100v700H300V100zm200 0h100v700H500V100zm0 1000h300v100H500v-100zM700 100h100v700H700V100zm200 0h100v700H900V100z"/><glyph unicode="" d="M1 601l656 644 644-644h-200V1H801v400H501V1H201v600H1z"/><glyph unicode="" d="M100 25v1150q0 11 7 18t18 7h475V700h400V25q0-11-7-18t-18-7H125q-11 0-18 7t-7 18zm600 775v300l300-300H700z"/><glyph unicode="" d="M4 600q0 162 80 299t217 217 299 80 299-80 217-217 80-299-80-299T899 84 600 4 301 84 84 301 4 600zm182 0q0-171 121.5-292.5T600 186t292.5 121.5T1014 600 892.5 892.5 600 1014 307.5 892.5 186 600zm314-100v400h100V600h200V500H500z"/><glyph unicode="" d="M-100 0l431 1200h209l-21-300h162l-20 300h208L1300 0H762l-41 400H479L439 0h-539zm588 500h224l-27 300H515z"/><glyph unicode="" d="M0 0v400h490L200 700h200v500h300V700h200L610 400h490V0H0zm813 200h175v100H813V200z"/><glyph unicode="" d="M1 600q0 122 47.5 233T176 1024t191 127.5 233 47.5 233-47.5 191-127.5 127.5-191 47.5-233-47.5-233T1024 176 833 48.5 600 1 367 48.5 176 176 48.5 367 1 600zm187 0q0-170 121-291t291-121 291 121 121 291-121 291-291 121-291-121-121-291zm162 0h150v300h200V600h150L600 300z"/><glyph unicode="" d="M4 600q0 162 80 299t217 217 299 80 299-80 217-217 80-299-80-299T899 84 600 4 301 84 84 301 4 600zm182 0q0-171 121.5-292.5T600 186t292.5 121.5T1014 600 892.5 892.5 600 1014 307.5 892.5 186 600zm164 0l250 300 250-300H700V300H500v300H350z"/><glyph unicode="" d="M0 25v475l200 700h800l199-700 1-475q0-11-7-18t-18-7H25Q14 0 7 7T0 25zm200 475h200l50-200h300l50 200h200l-97 500H297z"/><glyph unicode="" d="M4 600q0 162 80 299t217 217 299 80 299-80 217-217 80-299-80-299T899 84 600 4 301 84 84 301 4 600zm182 0q0-172 121.5-293T600 186t292.5 121T1014 600q0 171-121.5 292.5T600 1014 307.5 892.5 186 600zm314-203v401l297-200z"/><glyph unicode="" d="M23 600q0-118 45.5-224.5t123-184 184-123T600 23t224.5 45.5 184 123 123 184T1177 600h-150q0-177-125-302T600 173 298 298 173 600t125 302 302 125q136 0 246-81L700 800h400v400l-145-145q-157 122-355 122-118 0-224.5-45.5t-184-123-123-184T23 600z"/><glyph unicode="" d="M23 600q0 118 45.5 224.5t123 184 184 123T600 1177q198 0 355-122l145 145V800H700l147 147q-112 80-247 80-177 0-302-125T173 600H23zM100 0v400h400L353 253q112-80 247-80 177 0 302 125t125 302h150q0-118-45.5-224.5t-123-184-184-123T600 23q-198 0-355 122z"/><glyph unicode="" d="M100 0h1100v1200H100V0zm100 100v900h900V100H200zm100 100v100h100V200H300zm0 200v100h100V400H300zm0 200v100h100V600H300zm0 200v100h100V800H300zm200-600h500v100H500V200zm0 200v100h500V400H500zm0 200v100h500V600H500zm0 200v100h500V800H500z"/><glyph unicode="" d="M0 100v600q0 41 29.5 70.5T100 800h100v200q0 82 59 141t141 59h300q82 0 141-59t59-141V800h100q41 0 70.5-29.5T1100 700V100q0-41-29.5-70.5T1000 0H100Q59 0 29.5 29.5T0 100zm400 700h300v150q0 21-14.5 35.5T650 1000H450q-21 0-35.5-14.5T400 950V800z"/><glyph unicode="" d="M100 0v1100h100V0H100zm200 400q60 60 127.5 84T555 501.5t122-23 119-30 110-11 103 42 91 120.5v500q-40-81-101.5-115.5T871 955t-138 25-139.5 40-125.5 25-103-29.5T300 900V400z"/><glyph unicode="" d="M0 275q0-11 7-18t18-7h50q11 0 18 7t7 18v300q0 127 70.5 231.5T355 968t245 57 245-57 184.5-161.5T1100 575V275q0-11 7-18t18-7h50q11 0 18 7t7 18v300q0 116-49.5 227t-131 192.5-192.5 131-227 49.5-227-49.5-192.5-131T49.5 802 0 575V275zM200 20v460q0 8 6 14t14 6h160q8 0 14-6t6-14V20q0-8-6-14t-14-6H220q-8 0-14 6t-6 14zm600 0v460q0 8 6 14t14 6h160q8 0 14-6t6-14V20q0-8-6-14t-14-6H820q-8 0-14 6t-6 14z"/><glyph unicode="" d="M0 400h300l300-200v800L300 800H0V400zm688 59l141 141-141 141 71 71 141-141 141 141 71-71-141-141 141-141-71-71-141 141-141-141z"/><glyph unicode="" d="M0 400h300l300-200v800L300 800H0V400zm700 457l69 53q111-135 111-310 0-169-106-302l-67 54q86 110 86 248 0 146-93 257z"/><glyph unicode="" d="M0 401v400h300l300 200V201L300 401H0zm702 457l69 53q111-135 111-310 0-170-106-303l-67 55q86 110 86 248 0 145-93 257zm187 93l7-8q123-151 123-344 0-189-119-339l-7-8 81-66 6 8q142 178 142 405 0 230-144 408l-6 8z"/><glyph unicode="" d="M0 0h500v500H300v100H200V500H0V0zm0 600h100v100h400v100h100v100H500v300H0V600zm100-500v300h300V100H100zm0 700v300h300V800H100zm100-600v100h100V200H200zm0 700h100v100H200V900zm300-400v100h300V300h200V200H900V100H700v100H600v100h100v200H500zM600 0v100h100V0H600zm0 1000h100V700h200V400h300v200h-200v100h200v500H600v-200zm200-200v300h300V800H800zM900 0v100h300V0H900zm0 900v100h100V900H900zm200-700v100h100V200h-100z"/><glyph unicode="" d="M0 200h100v1000H0V200zM100 0v100h300V0H100zm100 200v1000h100V200H200zM500 0v91h100V0H500zm0 200v1000h200V200H500zM700 0v91h100V0H700zm100 200v1000h100V200H800zM900 0v91h200V0H900zm100 200v1000h200V200h-200z"/><glyph unicode="" d="M0 700l1 475q0 10 7.5 17.5T26 1200h474l700-700L700 0zm148 253q0-42 29-71 30-30 71.5-30t71.5 30q29 29 29 71t-29 71q-30 30-71.5 30t-71.5-30q-29-29-29-71z"/><glyph unicode="" d="M1 700l1 475q0 11 7 18t18 7h474l700-700L701 0zm147 253q0-42 30-71 29-30 71-30t71 30q30 29 30 71t-30 71q-29 30-71 30t-71-30q-30-29-30-71zm553 247h100l700-700L1001 0l-50 50 450 450z"/><glyph unicode="" d="M100 0v1025l175 175h925V200l-100-100v1000H350l-100-100h750V0H100z"/><glyph unicode="" d="M200 0l450 444L1100 1v1150q0 20-14.5 35t-35.5 15H250q-21 0-35.5-15t-14.5-35V0z"/><glyph unicode="" d="M0 100v700h200l100-200h600l100 200h200V100h-200v200H200V100H0zm253 729l40-124h592l62 124-94 346q-2 11-10 18t-18 7H375q-10 0-18-7t-10-18zm28-805l38 152q2 10 11.5 17t19.5 7h500q10 0 19.5-7t11.5-17l38-152q2-10-3.5-17T900 0H300q-10 0-15.5 7T281 24z"/><glyph unicode="" d="M0 200q0-41 29.5-70.5T100 100h1000q41 0 70.5 29.5T1200 200v600q0 41-29.5 70.5T1100 900H950q-4 8-11.5 21.5t-33 48-53 61-69 48T700 1100H500q-41 0-82-20.5t-70-50-52-59-34-50.5l-12-20H100q-41 0-70.5-29.5T0 800V200zm356 300q0 100 72 172t172 72 172-72 72-172-72-172-172-72-172 72-72 172zm138 0q0-44 31-75t75-31 75 31 31 75-31 75-75 31-75-31-31-75zm406 200v100h100V700H900z"/><glyph unicode="" d="M53 0h365v66q-41 0-72 11t-49 38 1 71l92 234h391l82-222q16-45-5.5-88.5T783 66V0h417v66q-34 1-74 43-18 19-33 42t-21 37l-6 13-385 998h-93L189 193q-24-48-52-75-12-12-33-25T68 73l-15-7V0zm363 521l178 457 46-140 116-317H416z"/><glyph unicode="" d="M100 0v89q41 7 70.5 32.5T200 187v827q0 28-1 39.5t-5.5 26-15.5 21-29 14-49 14.5v71l471-1q120 0 213-88t93-228q0-55-11.5-101.5t-28-74T804 660t-28-28l-12-7q8-3 21.5-9t48-31.5 60.5-58 47.5-91.5T963 306q0-84-59-156.5t-142-111T600 0H100zm300 200h161q89 0 153 48.5T778 381q0 90-62.5 154.5T559 600H400V200zm0 500h139q76 0 130 61.5T723 900q0 82-84 130.5T400 1079V700z"/><glyph unicode="" d="M200 0v57q77 7 134.5 40.5T400 178l173 849q10 56-10 74t-91 37q-6 1-10.5 2.5t-9.5 2.5v57h425l2-57q-33-8-62-25.5t-46-37-29.5-38T724 1012l-5-12-128-825q-10-52 14-82t95-36V0H200z"/><glyph unicode="" d="M-75 200H0v800h-75l125 167 125-167h-75V200h75L50 33zm375 700v300h1000V900h-50q0 29-8 48.5t-18.5 30-33.5 15-39.5 5.5-50.5 1H900V150l100-50V0H600v100l100 50v850H500q-34 0-50.5-1t-40-5.5-33.5-15-18.5-30T349 900h-49z"/><glyph unicode="" d="M33 51l167 125v-75h800v75l167-125-167-125V1H200v-75zm67 850v300h1000V901h-50q0 29-8 48.5t-18 30-33.5 15-40 5.5-50.5 1H700V351l100-50V201H400v100l100 50v650H300q-34 0-50.5-1t-39.5-5.5-33.5-15-18.5-30-8-48.5h-50z"/><glyph unicode="" d="M0 50q0-20 14.5-35T50 0h1100q21 0 35.5 15t14.5 35v100q0 21-14.5 35.5T1150 200H50q-21 0-35.5-14.5T0 150V50zm0 300q0-20 14.5-35T50 300h800q21 0 35.5 15t14.5 35v100q0 21-14.5 35.5T850 500H50q-21 0-35.5-14.5T0 450V350zm0 300q0-20 14.5-35T50 600h1000q21 0 35.5 15t14.5 35v100q0 21-14.5 35.5T1050 800H50q-21 0-35.5-14.5T0 750V650zm0 300q0-20 14.5-35T50 900h600q21 0 35.5 15t14.5 35v100q0 21-14.5 35.5T650 1100H50q-21 0-35.5-14.5T0 1050V950z"/><glyph unicode="" d="M0 50q0-20 14.5-35T50 0h1100q21 0 35.5 15t14.5 35v100q0 21-14.5 35.5T1150 200H50q-21 0-35.5-14.5T0 150V50zm0 600q0-20 14.5-35T50 600h1100q21 0 35.5 15t14.5 35v100q0 21-14.5 35.5T1150 800H50q-21 0-35.5-14.5T0 750V650zm200-300q0-20 14.5-35t35.5-15h700q21 0 35.5 15t14.5 35v100q0 21-14.5 35.5T950 500H250q-21 0-35.5-14.5T200 450V350zm0 600q0-20 14.5-35t35.5-15h700q21 0 35.5 15t14.5 35v100q0 21-14.5 35.5T950 1100H250q-21 0-35.5-14.5T200 1050V950z"/><glyph unicode="" d="M0 50v100q0 21 14.5 35.5T50 200h1100q21 0 35.5-14.5T1200 150V50q0-20-14.5-35T1150 0H50Q29 0 14.5 15T0 50zm100 600v100q0 21 14.5 35.5T150 800h1000q21 0 35.5-14.5T1200 750V650q0-20-14.5-35t-35.5-15H150q-21 0-35.5 15T100 650zm200-300v100q0 21 14.5 35.5T350 500h800q21 0 35.5-14.5T1200 450V350q0-20-14.5-35t-35.5-15H350q-21 0-35.5 15T300 350zm200 600v100q0 21 14.5 35.5T550 1100h600q21 0 35.5-14.5t14.5-35.5V950q0-20-14.5-35t-35.5-15H550q-21 0-35.5 15T500 950z"/><glyph unicode="" d="M0 50v100q0 21 14.5 35.5T50 200h1100q21 0 35.5-14.5T1200 150V50q0-20-14.5-35T1150 0H50Q29 0 14.5 15T0 50zm0 300v100q0 21 14.5 35.5T50 500h1100q21 0 35.5-14.5T1200 450V350q0-20-14.5-35t-35.5-15H50q-21 0-35.5 15T0 350zm0 300v100q0 21 14.5 35.5T50 800h1100q21 0 35.5-14.5T1200 750V650q0-20-14.5-35t-35.5-15H50q-21 0-35.5 15T0 650zm0 300v100q0 21 14.5 35.5T50 1100h1100q21 0 35.5-14.5t14.5-35.5V950q0-20-14.5-35t-35.5-15H50q-21 0-35.5 15T0 950z"/><glyph unicode="" d="M0 50v100q0 21 14.5 35.5T50 200h100q21 0 35.5-14.5T200 150V50q0-20-14.5-35T150 0H50Q29 0 14.5 15T0 50zm0 300v100q0 21 14.5 35.5T50 500h100q21 0 35.5-14.5T200 450V350q0-20-14.5-35T150 300H50q-21 0-35.5 15T0 350zm0 300v100q0 21 14.5 35.5T50 800h100q21 0 35.5-14.5T200 750V650q0-20-14.5-35T150 600H50q-21 0-35.5 15T0 650zm0 300v100q0 21 14.5 35.5T50 1100h100q21 0 35.5-14.5T200 1050V950q0-20-14.5-35T150 900H50q-21 0-35.5 15T0 950zM300 50v100q0 21 14.5 35.5T350 200h800q21 0 35.5-14.5T1200 150V50q0-20-14.5-35T1150 0H350q-21 0-35.5 15T300 50zm0 300v100q0 21 14.5 35.5T350 500h800q21 0 35.5-14.5T1200 450V350q0-20-14.5-35t-35.5-15H350q-21 0-35.5 15T300 350zm0 300v100q0 21 14.5 35.5T350 800h800q21 0 35.5-14.5T1200 750V650q0-20-14.5-35t-35.5-15H350q-21 0-35.5 15T300 650zm0 300v100q0 21 14.5 35.5T350 1100h800q21 0 35.5-14.5t14.5-35.5V950q0-20-14.5-35t-35.5-15H350q-21 0-35.5 15T300 950z"/><glyph unicode="" d="M-101 500v100h201v75l166-125-166-125v75h-201zM300 0h100v1100H300V0zm200 50q0-20 14.5-35T550 0h600q20 0 35 15t15 35v100q0 21-15 35.5t-35 14.5H550q-21 0-35.5-14.5T500 150V50zm0 300q0-20 14.5-35t35.5-15h300q20 0 35 15t15 35v100q0 21-15 35.5T850 500H550q-21 0-35.5-14.5T500 450V350zm0 300q0-20 14.5-35t35.5-15h500q20 0 35 15t15 35v100q0 21-15 35.5t-35 14.5H550q-21 0-35.5-14.5T500 750V650zm0 300q0-20 14.5-35t35.5-15h100q20 0 35 15t15 35v100q0 21-15 35.5t-35 14.5H550q-21 0-35.5-14.5T500 1050V950z"/><glyph unicode="" d="M1 50q0-20 14.5-35T51 0h600q20 0 35 15t15 35v100q0 21-15 35.5T651 200H51q-21 0-35.5-14.5T1 150V50zm0 300q0-20 14.5-35T51 300h300q20 0 35 15t15 35v100q0 21-15 35.5T351 500H51q-21 0-35.5-14.5T1 450V350zm0 300q0-20 14.5-35T51 600h500q20 0 35 15t15 35v100q0 21-15 35.5T551 800H51q-21 0-35.5-14.5T1 750V650zm0 300q0-20 14.5-35T51 900h100q20 0 35 15t15 35v100q0 21-15 35.5t-35 14.5H51q-21 0-35.5-14.5T1 1050V950zM801 0v1100h100V0H801zm133 550l167-125v75h200v100h-200v75z"/><glyph unicode="" d="M0 275v650q0 31 22 53t53 22h750q31 0 53-22t22-53V275q0-31-22-53t-53-22H75q-31 0-53 22T0 275zm900 325l300 300V300z"/><glyph unicode="" d="M0 44v1012q0 18 13 31t31 13h1112q19 0 31.5-13t12.5-31V44q0-18-12.5-31T1156 0H44Q26 0 13 13T0 44zm100 219l247 182 298-131-74 156 293 318 236-288v500H100V263zm108 487q0 56 39 95t95 39 95-39 39-95-39-95-95-39-95 39-39 95z"/><glyph unicode="" d="M148 745q0 124 60.5 231.5t165 172T600 1213q123 0 227-63t164.5-169.5T1052 751t-73-272q-73-114-166.5-237T662 53l-57-66q-10 9-27 26t-66.5 70.5-96 109-104 135.5T211 483q-63 139-63 262zm194 27q0-107 75.5-182.5T599 514q107 0 182.5 75.5T857 772t-75.5 182-182.5 75-182-75.5T342 772z"/><glyph unicode="" d="M1 600q0 122 47.5 233T176 1024t191 127.5 233 47.5 233-47.5 191-127.5 127.5-191 47.5-233-47.5-233T1024 176 833 48.5 600 1 367 48.5 176 176 48.5 367 1 600zm172 0q0-177 125.5-302T600 173v854q-176 0-301.5-125T173 600z"/><glyph unicode="" d="M117 406q0 94 34 186t88.5 172.5 112 159 115 177T554 1295q21-71 57.5-142.5t76-130.5 83-118.5 82-117 70-116 50-125.5T991 409q0-89-39-165.5T850 117 710 37.5 554 4q-114 6-211.5 53T181 196t-64 210zm126 8q14-82 59.5-136T439 198l16 98q-7 6-18 17t-34 48-33 77q-15 73-14 143.5T366 704l9 51q-92-110-119.5-185T243 414z"/><glyph unicode="" d="M0 400v300q0 165 117.5 282.5T400 1100q366-6 397-14L611 900H300q-41 0-70.5-29.5T200 800V300q0-41 29.5-70.5T300 200h500q41 0 70.5 29.5T900 300v125l200 200V400q0-165-117.5-282.5T700 0H400Q235 0 117.5 117.5T0 400zm436-59l161 50 412 412-114 113-405-405zm559 674l113-113 113 113-21 85-92 28z"/><glyph unicode="" d="M0 400v300q0 165 117.5 282.5T400 1100h261l2-80q-133-32-218-120H300q-41 0-70.5-29.5T200 800V300q0-41 29.5-70.5T300 200h500q41 0 70.5 29.5T900 300l200 153v-53q0-165-117.5-282.5T700 0H400Q235 0 117.5 117.5T0 400zm423 124q30 38 81.5 64t103 35.5 99 14T784 641l29-1V431l360 324-359 318V857q-7 0-19-1t-48-8-69.5-18.5-76.5-37-76.5-59-62-88T423 524z"/><glyph unicode="" d="M0 400v300q0 165 117.5 282.5T400 1100h300q61 0 127-23L649 900H300q-41 0-70.5-29.5T200 800V300q0-41 29.5-70.5T300 200h500q41 0 70.5 29.5T900 300v69l200 200V400q0-165-117.5-282.5T700 0H400Q235 0 117.5 117.5T0 400zm342 232l283-284 567 567-137 137-430-431-146 147z"/><glyph unicode="" d="M0 603l300 296V701h200v200H300l300 300 295-300H700V701h200v198l300-296-300-300v198H700V301h195L600 1 300 301h200v200H300V303z"/><glyph unicode="" d="M200 50v1000q0 21 14.5 35.5T250 1100h100q21 0 35.5-14.5T400 1050V613l500 487V0L400 488V50q0-21-14.5-35.5T350 0H250q-21 0-35.5 14.5T200 50z"/><glyph unicode="" d="M0 50v1000q0 21 14.5 35.5T50 1100h100q21 0 35.5-14.5T200 1050V613l500 487V613l500 487V0L700 488V0L200 488V50q0-21-14.5-35.5T150 0H50Q29 0 14.5 14.5T0 50z"/><glyph unicode="" d="M136 550l564 550V613l500 487V0L700 488V0z"/><glyph unicode="" d="M200 0l900 550-900 550V0z"/><glyph unicode="" d="M200 150q0-21 14.5-35.5T250 100h200q21 0 35.5 14.5T500 150v800q0 21-14.5 35.5T450 1000H250q-21 0-35.5-14.5T200 950V150zm400 0q0-21 14.5-35.5T650 100h200q21 0 35.5 14.5T900 150v800q0 21-14.5 35.5T850 1000H650q-21 0-35.5-14.5T600 950V150z"/><glyph unicode="" d="M200 150q0-20 14.5-35t35.5-15h800q21 0 35.5 15t14.5 35v800q0 21-14.5 35.5T1050 1000H250q-21 0-35.5-14.5T200 950V150z"/><glyph unicode="" d="M0 0v1100l500-487v487l564-550L500 0v488z"/><glyph unicode="" d="M0 0v1100l500-487v487l500-487v437q0 21 14.5 35.5t35.5 14.5h100q21 0 35.5-14.5t14.5-35.5V50q0-21-14.5-35.5T1150 0h-100q-21 0-35.5 14.5T1000 50v438L500 0v488z"/><glyph unicode="" d="M300 0v1100l500-487v437q0 21 14.5 35.5T850 1100h100q21 0 35.5-14.5t14.5-35.5V50q0-21-14.5-35.5T950 0H850q-21 0-35.5 14.5T800 50v438z"/><glyph unicode="" d="M100 250v100q0 21 14.5 35.5T150 400h1000q21 0 35.5-14.5T1200 350V250q0-21-14.5-35.5T1150 200H150q-21 0-35.5 14.5T100 250zm0 250h1100l-550 564z"/><glyph unicode="" d="M185 599L777 7l240 240-353 353 353 353-240 240z"/><glyph unicode="" d="M272 194l353 353-353 353 241 240 572-571 21-22-1-1v-1L513-46z"/><glyph unicode="" d="M3 600q0 162 80 299.5T300.5 1117t299.5 80 299.5-80T1117 899.5t80-299.5-80-299.5T899.5 83 600 3 300.5 83 83 300.5 3 600zm297-100h200V300h200v200h200v200H700v200H500V700H300V500z"/><glyph unicode="" d="M3 600q0 162 80 299.5T300.5 1117t299.5 80 299.5-80T1117 899.5t80-299.5-80-299.5T899.5 83 600 3 300.5 83 83 300.5 3 600zm297-100h600v200H300V500z"/><glyph unicode="" d="M3 600q0 162 80 299.5T300.5 1117t299.5 80 299.5-80T1117 899.5t80-299.5-80-299.5T899.5 83 600 3 300.5 83 83 300.5 3 600zm243-141l213-213 141 142 141-142 213 213-142 141 142 141-213 212-141-141-141 142-212-213 141-141z"/><glyph unicode="" d="M3 600q0 162 80 299.5T300.5 1117t299.5 80 299.5-80T1117 899.5t80-299.5-80-299.5T899.5 83 600 3 300.5 83 83 300.5 3 600zm267-49l276-277 411 411-175 174-236-236-102 102z"/><glyph unicode="" d="M3 600q0 162 80 299.5T300.5 1117t299.5 80 299.5-80T1117 899.5t80-299.5-80-299.5T899.5 83 600 3 300.5 83 83 300.5 3 600zm361 100h143q4 0 11.5-1t11-1 6.5 3 3 9 1 11 3.5 8.5 3.5 6 5.5 4 6.5 2.5 9 1.5 9 .5h24q19 0 30-10t11-26q0-22-4-28t-27-22q-5-1-12.5-3t-27-13.5-34-27-26.5-46-11-68.5h200q5 3 14 8t31.5 25.5T785 579t31 69 14 94q0 51-17.5 89t-42 58-58.5 32-58.5 15-51.5 3q-50 0-90.5-12t-75-38.5T383 814t-19-114zm136-400h200v100H500V300z"/><glyph unicode="" d="M3 600q0 162 80 299.5T300.5 1117t299.5 80 299.5-80T1117 899.5t80-299.5-80-299.5T899.5 83 600 3 300.5 83 83 300.5 3 600zm397-300h400v100H700v300H400V600h100V400H400V300zm100 500h200v100H500V800z"/><glyph unicode="" d="M0 500v200h195q31 125 98.5 199.5T500 1000v200h200v-200q54-20 113-60t112.5-105.5T997 700h203V500H997q-25-102-116.5-186T700 197V0H500v197q-140 27-208 102.5T194 500H0zm290 0q24-73 79.5-127.5T500 294v206h200V294q149 48 201 206H700v200h200q-25 74-75.5 127T700 904V700H500v203q-75-23-130-77t-79-126h209V500H290z"/><glyph unicode="" d="M4 600q0 162 80 299t217 217 299 80 299-80 217-217 80-299-80-299T899 84 600 4 301 84 84 301 4 600zm182 0q0-171 121.5-292.5T600 186t292.5 121.5T1014 600 892.5 892.5 600 1014 307.5 892.5 186 600zm170-135l135 135-135 135 109 109 135-135 135 135 109-109-135-135 135-135-109-109-135 135-135-135z"/><glyph unicode="" d="M4 600q0 162 80 299t217 217 299 80 299-80 217-217 80-299-80-299T899 84 600 4 301 84 84 301 4 600zm182 0q0-171 121.5-292.5T600 186t292.5 121.5T1014 600 892.5 892.5 600 1014 307.5 892.5 186 600zm136-63l141 141 87-87 204 205 142-142-346-345z"/><glyph unicode="" d="M4 600q0 162 80 299t217 217 299 80 299-80 217-217 80-299-80-299T899 84 600 4 301 84 84 301 4 600zm182 0q0-115 62-215l568 567q-100 62-216 62-171 0-292.5-121.5T186 600zm205-355q97-59 209-59 171 0 292.5 121.5T1014 600q0 112-59 209z"/><glyph unicode="" d="M0 547l600 453V700h600V400H600V99z"/><glyph unicode="" d="M0 400v300h600v300l600-453L600 99v301H0z"/><glyph unicode="" d="M204 600l450 600 444-600H800V0H500v600H204z"/><glyph unicode="" d="M104 600h296v600h300V600h298L549 0z"/><glyph unicode="" d="M0 200q6 132 41 238.5t103.5 193 184 138T600 829v271l600-453-600-448v301q-95-2-183-20t-170-52-147-92.5T0 200z"/><glyph unicode="" d="M0 0v400l129-129 294 294 142-142-294-294L400 0H0zm635 777l142-142 294 294 129-129v400H800l129-129z"/><glyph unicode="" d="M34 176l295 295-129 129h400V200L471 330 176 35zm566 424v400l129-129 295 295 142-141-295-295 129-130H600z"/><glyph unicode="" d="M23 600q0 118 45.5 224.5t123 184 184 123T600 1177t224.5-45.5 184-123 123-184T1177 600t-45.5-224.5-123-184-184-123T600 23 375.5 68.5t-184 123-123 184T23 600zm433 251l58-302q4-20 21.5-34.5T573 500h54q20 0 37.5 14.5T686 549l58 302q4 20-8 34.5T704 900H497q-21 0-33-14.5t-8-34.5zm44-551h200v100H500V300z"/><glyph unicode="" d="M0 800h100V600h400v300h200V600h400v200h100v100h-111q1 1 1 6.5t-1.5 15-3.5 17.5l-34 172q-11 39-41.5 63t-69.5 24q-32 0-61-17l-239-144q-22-13-40-35-19 24-40 36l-238 144q-33 18-62 18-39 0-69.5-23t-40.5-61l-35-177q-2-8-3-18t-1-15v-6H0V800zM100 0h400v400H100V0zm100 900q-3 0 14 48t36 96l18 47 213-191H200zM700 0v400h400V0H700zm31 900l202 197q5-12 12-32.5t23-64 25-72 7-28.5H731z"/><glyph unicode="" d="M0-22v143l216 193q-9 53-13 83t-5.5 94 9 113T245 718t74 124q47 60 99.5 102.5t103 68 127.5 48 145.5 37.5 184.5 43.5 220 58.5q0-189-22-343t-59-258-89-181.5-108.5-120-122-68-125.5-30-121.5-1.5T444 210.5t-87.5 17T300 235l-99-55zm238.5 322.5Q258 294 325 377q55 66 367 234 70 38 118.5 69.5t102 79 99 111.5 86.5 148q22 50 24 60t-6 19q-7 5-17 5t-26.5-14.5-33.5-39.5q-35-51-113.5-108.5T786 851l-61-32Q356 622 267 418q-48-111-28.5-117.5z"/><glyph unicode="" d="M111 408q0-33 5-63 9-56 44-119.5T265 117q31-21 64-16t62 23.5 57 49.5 48 61.5 35 60.5q32 66 39 184.5T557 638q79-80 122-164t26-184q-5-33-20.5-69.5T647 140q-10-19-14.5-29t-12-26-9-23.5-3-19T611 27t11-9.5 19.5-5T672 15t42 8q57 20 91 34t87.5 44.5 87 64T1045 254t47 122q38 172-44.5 341.5T801 996q22-44 43-129 39-159-32-154-15 2-33 9-79 33-120.5 100t-44 175.5T663 1255q-13-8-34-23.5t-72.5-66.5-88.5-105.5-60-138-8-166.5q2-12 8-41.5t8-43 6-39.5 3.5-39.5-1-33.5-6-31.5-13.5-24-21-20.5-31-12q-38-10-67 13t-40.5 61.5-15 81.5 10.5 75q-52-46-83.5-101t-39-107-7.5-85z"/><glyph unicode="" d="M-61 600l26 40q6 10 20 30t49 63.5 74.5 85.5 97 90T322 992.5t132.5 59T600 1075t145.5-23.5 132.5-59T994.5 909t97-90 74.5-85.5 49-63.5 20-30l26-40-26-40q-6-10-20-30t-49-63.5-74.5-85.5-97-90T878 207.5t-132.5-59T600 125t-145.5 23.5-132.5 59T205.5 291t-97 90T34 466.5-15 530t-20 30zm181 0q7-10 40.5-58t56-78.5 68-77.5 87.5-75 103-49.5T600 240t123.5 20T824 305.5t85.5 71.5 66.5 75.5 58 81.5 47 66q-1 1-28.5 37.5t-42 55-43.5 53-57.5 63.5-58.5 54q49-74 49-163 0-124-88-212t-212-88-212 88-88 212q0 85 46 158-102-87-226-258zm257 56q49-124 154-191l105 105q-37 24-75 72t-57 84l-20 36z"/><glyph unicode="" d="M-61 600l26 40q6 10 20 30t49 63.5 74.5 85.5 97 90T322 992.5t132.5 59T600 1075q61 0 121-17l37 142h148L592 0H444l37 143q-82 21-165 71.5t-140 102-109.5 112-72 88.5-29.5 43zm181 0q210-282 393-336l37 141q-107 18-178.5 101.5T300 700q0 85 46 158-102-87-226-258zm257 56q49-124 154-191l47 47 23 87q-30 28-59 69t-44 68l-14 26zm403-495l38 145q22 15 44.5 34t46 44 40.5 44 41 50.5 33.5 43.5 33 44 24.5 34q-97 127-140 175l39 146q67-54 131.5-125.5T1199 692t36-52l26-40-26-40q-7-12-25.5-38t-63.5-79.5-95.5-102.5-124-100T780 161z"/><glyph unicode="" d="M-97.5 34Q-84 0-47 0h1294q37 0 50.5 35.5T1290 103L648 1159q-20 34-48 36.5t-48-29.5L-90 100q-21-32-7.5-66zM155 200l445 723 445-723H700v100H500V200H155zm345 400l100-300 100 300v100H500V600z"/><glyph unicode="" d="M100 262v41q0 20 11 44.5t26 38.5l363 325v339q0 62 44 106t106 44 106-44 44-106V711l363-325q15-14 26-38.5t11-44.5v-41q0-20-12-26.5t-29 5.5L800 490V227q100-91 100-113V50q0-20-13-28.5t-32 .5l-94 78H539l-94-78q-19-9-32-.5T400 50v64q0 22 100 113v263L141 241q-17-12-29-5.5T100 262z"/><glyph unicode="" d="M0 50q0-20 14.5-35T50 0h1000q21 0 35.5 15t14.5 35v750H0V50zm0 850h1100v150q0 21-14.5 35.5T1050 1100H900v100H800v-100H300v100H200v-100H50q-21 0-35.5-14.5T0 1050V900zm100-800v100h100V100H100zm0 200v100h100V300H100zm0 200v100h100V500H100zm200-400v100h100V100H300zm0 200v100h100V300H300zm0 200v100h100V500H300zm200-400v100h100V100H500zm0 200v100h100V300H500zm0 200v100h100V500H500zm200-400v100h100V100H700zm0 200v100h100V300H700zm0 200v100h100V500H700zm200-400v100h100V100H900zm0 200v100h100V300H900zm0 200v100h100V500H900z"/><glyph unicode="" d="M0 200v200h259l600 600h241v198l300-295-300-300v197H941L341 200H0zm0 600h259l122-122 141 142-181 180H0V800zm678-419l141 142 122-123h159v198l300-295L1100 3v197H859z"/><glyph unicode="" d="M0 400v600q0 41 29.5 70.5T100 1100h1000q41 0 70.5-29.5t29.5-70.5V400q0-41-29.5-70.5T1100 300H504L200 0v300H100q-41 0-70.5 29.5T0 400z"/><glyph unicode="" d="M100 600v200h300V550q0-113 6-145 17-92 102-117 39-11 92-11 37 0 66.5 5.5t50 15.5 36 24 24 31.5 14 37.5 7 42 2.5 45 0 47v275h300V600q0-42-3-83t-15-104-31.5-116-58-109.5-89-96.5-129-65.5T600 0 425.5 25.5 296.5 91t-89 96.5-58 109.5T118 413t-15 104-3 83zm0 300v300h300V900H100zm700 0v300h300V900H800z"/><glyph unicode="" d="M-30 411l227-227 352 353 353-353 226 227-578 579z"/><glyph unicode="" d="M70 797l580-579 578 579-226 227-353-353-352 353z"/><glyph unicode="" d="M-198 700l299 283 300-283H198V300h385l215-200H-2v600h-196zm600 300l215-200h381V400H800l299-283 299 283h-200v600H402z"/><glyph unicode="" d="M18 939q-5 24 10 42 14 19 39 19h896l38 162q5 17 18.5 27.5t30.5 10.5h94q20 0 35-14.5t15-35.5-15-35.5-35-14.5h-54L889 139q-2-4-6-10.5T864 111t-33-11h-31V50q0-20-14.5-35T750 0t-35.5 15T700 50v50H400V50q0-20-14.5-35T350 0t-35.5 15T300 50v50h-50q-21 0-35.5 15T200 150q0 21 14.5 35.5T250 200h535l48 200H200q-32 0-54.5 21T118 464z"/><glyph unicode="" d="M0 0v800h1200V0H0zm0 900v100h200q0 41 29.5 70.5T300 1100h300q41 0 70.5-29.5T700 1000h500V900H0z"/><glyph unicode="" d="M1 0l300 700h1200L1201 0H1zm0 400v600h200q0 41 29.5 70.5T301 1100h300q41 0 70.5-29.5T701 1000h500V800H201z"/><glyph unicode="" d="M302 300h198v600H302l298 300 298-300H700V300h198L600 0z"/><glyph unicode="" d="M0 600l300 298V700h600v198l300-298-300-297v197H300V303z"/><glyph unicode="" d="M0 100v100q0 41 29.5 70.5T100 300h1000q41 0 70.5-29.5T1200 200V100q0-41-29.5-70.5T1100 0H100Q59 0 29.5 29.5T0 100zm31 300l172 739q5 22 23 41.5t38 19.5h672q19 0 37.5-22.5T997 1132l172-732H31zm769-300h100v100H800V100zm200 0h100v100h-100V100z"/><glyph unicode="" d="M-101 600v50q0 24 25 49t50 38l25 13V500l-11 5.5-24 14-30 21.5-24 27.5-11 31.5zm201-100v273l.5 7 1.5 5.5 2 5 3 4 4.5 3.5 6 1.5 7.5.5h200l675 250V200L325 400h-38l47-276q2-12-3-17.5t-11-6-21-.5h-91q-20 0-34.5 14T155 149q-55 337-55 351zm1000-300v850q0 21 14.5 35.5t35.5 14.5q20 0 35-14.5t15-35.5V200q0-20-15-35t-35-15q-21 0-35.5 15t-14.5 35z"/><glyph unicode="" d="M74 350q0 21 13.5 35.5T121 400h18l117 173 63 327q15 77 76 140t144 83l-18 32q-6 19 3 32t29 13h94q20 0 29-10.5t3-29.5q-18-36-18-37 83-19 144-82.5T881 900l63-327 118-173h17q20 0 33.5-14.5T1126 350q0-20-13-40t-31-27q-8-3-23-8.5t-65-20-103-25T758.5 210 600 201q-125 0-245.5 20.5T176 262l-58 20q-18 7-31 27.5T74 350zm423-240q12-49 40-79.5T600 0t63 30.5 39 79.5q-48-6-102-6t-103 6z"/><glyph unicode="" d="M21 445l233-45-78-224 224 78 45-233 155 179L755 21l45 233 224-78-78 224 234 45-180 155 180 156-234 44 78 225-224-78-45 233-155-180-155 180-45-233-224 78 78-225-233-44 179-156z"/><glyph unicode="" d="M0 200h200v600H0V200zm300 75q0-75 100-75h61q124-100 139-100h250q46 0 83 57l238 344q29 31 29 74v100q0 44-30.5 84.5T1100 800H772q28 118 28 125v150q0 44-30.5 84.5T700 1200h-50q-27 0-51-20t-38-48l-96-198-145-196q-20-26-20-63V275zm100 25v375l150 213 100 212h50V925l-50-225h450V575L850 200H636L500 300H400z"/><glyph unicode="" d="M0 400v600h200V400H0zm300 125v400q0 75 100 75h61q124 100 139 100h250q46 0 83-57l238-344q29-31 29-74V525q0-44-30.5-84.5T1100 400H772q28-118 28-125V125q0-44-30.5-84.5T700 0h-50q-27 0-51 20t-38 48l-96 198-145 196q-20 26-20 63zm100 0l150-212 100-213h50v175l-50 225h450v125l-250 375H636L500 900H400V525z"/><glyph unicode="" d="M8 200v600h200V200H8zm300 75v525q0 17 14 35.5t28 28.5l14 9 362 230q14 6 25 6 17 0 29-12l109-112q14-14 14-34 0-18-11-32l-85-121h302q85 0 138.5-38t53.5-110-54.5-111-138.5-39h-107L871 161q-7-22-20.5-41.5T822 100H481q-7 0-90 81t-83 94zm100 14l100-89h293l131 339q6 21 19.5 41t28.5 20h203q16 0 25 15t9 36q0 20-9 34.5t-25 14.5H712l-6.5.5-6 1-5 1.5-5.5 2.5-4 4-4 5.5q-5 12-5 20 0 14 10 27l147 183-86 83-339-236V289z"/><glyph unicode="" d="M-101 651q0 72 54 110t139 38l302-1-85 121q-11 16-11 32 0 21 14 34l109 113q13 12 29 12 11 0 25-6l365-230q7-4 17-10.5t26.5-26T900 801V275q0-13-86-93.5T720 101H379q-16 0-29.5 20T330 162L200 501H93q-84 0-139 39t-55 111zm100-50h222q15 0 28.5-20.5T269 540l131-339h293l107 89v502l-343 237-87-83 145-184q10-11 10-26 0-11-5-20-1-3-3.5-5.5l-4-4-5-2.5-5.5-1.5-6.5-1-6.5-.5H-1V601zm1001-400v600h200V201h-200z"/><glyph unicode="" d="M97 719l230-363q4-6 10.5-15.5t26-25T400 300h525q13 0 94 83t81 90v342q0 15-20 28.5t-41 19.5L700 994v106q0 84-39 139t-111 55-110-53.5-38-138.5V800l-121 84q-15 12-33.5 11.5T215 882L103 772q-22-22-6-53zm75 20l83 86 183-146q22-18 47-5 3 1 5.5 3.5l4 4 2.5 5 1.5 5.5 1 6.5.5 6.5v470q0 22 25 31t50-.5 25-30.5V973q0-16 20-29.5t41-19.5l339-130V500l-89-100H408zM400 0v200h600V0H400z"/><glyph unicode="" d="M2 585q-16-31 6-53l112-110q13-13 32-13.5t34 10.5l121 85q0-51-.5-153.5T306 202q0-84 38.5-138T455 10t111 55 39 139v106l339 131q20 6 40.5 19.5T1005 489v342q0 7-81 90t-94 83H305q-17 0-35.5-14T241 962l-10-15zm75-20l236 339h503l89-100V510L565 380q-20-6-40-20t-20-29V129q0-22-25-31t-50 0-25 31v470.5l-1.5 11.5-5 12-9.5 7q-24 13-46-5L159 479zm228 539v200h600v-200H305z"/><glyph unicode="" d="M5 597q0 122 47.5 232.5T180 1020t190.5 127.5T603 1195q162 0 299.5-80T1120 897t80-300-80-299.5T902.5 80 603 0 303 80 85 297.5 5 597zm293 104l2-201h300l-2-194 402 294-402 298V701H298z"/><glyph unicode="" d="M0 597q0 122 47.5 232.5T175 1020t190.5 127.5T597 1195q122 0 232.5-47.5T1020 1020t127.5-190.5T1195 597q0-162-80-299.5T897 80 597 0 297.5 80 80 297.5 0 597zm200 3l402-294-2 194h300l2 201H602v197z"/><glyph unicode="" d="M5 597q0 122 47.5 232.5T180 1020t190.5 127.5T603 1195q162 0 299.5-80T1120 897t80-300-80-299.5T902.5 80 603 0 303 80 85 297.5 5 597zm295 3h200V300h200v300h200l-300 400z"/><glyph unicode="" d="M5 597q0 122 47.5 232.5T180 1020t190.5 127.5T603 1195q162 0 299.5-80T1120 897t80-300-80-299.5T902.5 80 603 0 303 80 85 297.5 5 597zm295 3l300-400 300 400H700v300H500V600H300z"/><glyph unicode="" d="M5 597q0 122 47.5 232.5T180 1020t190.5 127.5T603 1195q121 0 231.5-47.5T1025 1020t127.5-190.5T1200 597q0-162-80-299.5T902.5 80 603 0 303 80 85 297.5 5 597zm249 183q-8-33 5.5-92.5T267 600q0-9 17-44t16-60q12 0 23-5.5t23-15 20-13.5q24-12 108-42 22-8 53-31.5t59.5-38.5 57.5-11q8-18-15-55t-20-57q42-71 87-80 0-6-3-15.5t-3.5-14.5 4.5-17q104-3 221 112 30 29 47 47t34.5 49 20.5 62q-14 9-37 9.5t-36 7.5q-14 7-49 15t-52 19q-9 0-39.5-.5T757 419t-39-6.5-39-16.5q-50-35-66-12-4 2-3.5 25.5t.5 25.5q-6 13-26.5 17t-24.5 7q2 22-2 41t-16.5 28-38.5-20q-23-25-42 4-19 28-8 58 6 16 22 22 6-1 26-1.5t33.5-4T553 573q12-19 32-37.5t34-27.5l14-8q0 3 9.5 39.5T648 597q-4 23 14.5 44.5T685 673q5 14 10 35t8.5 31 15.5 22.5 34 21.5q-6 18 10 37 8 0 23.5-1.5T811 817t20.5 4.5T852 837q-10 23-30.5 42.5t-38 30-49 26.5-43.5 23q11 39 2 44 31-13 58-14.5t39 3.5l11 4q7 36-16.5 53.5T720 1078t-56 23q-19-3-37 0-15-12-36.5-21t-34.5-12-44-8-39-6q-15-3-45.5.5T382 1052q-21-7-52-26.5T296 991q-3-11 6.5-22.5T311 950q-3-34-27.5-90.5T254 780zm264 136q3 12 16 30t16 25q10-10 18.5-10t14 6 14.5 14.5 16 12.5q0-24 17-66.5t17-43.5q-9 2-31 5t-36 5-32 8-30 14zm174 87h1-1z"/><glyph unicode="" d="M0 164.5Q0 186 15 202l600 599q-33 101 6 201.5T756 1157q164 92 306-9l-259-138 145-232 251 126q13-175-151-267-123-70-253-23L199 18Q184 2 162.5 2T126 18L15 128Q0 143 0 164.5z"/><glyph unicode="" horiz-adv-x="1220" d="M0 196v100q0 41 29.5 70.5T100 396h1000q41 0 70.5-29.5T1200 296V196q0-41-29.5-70.5T1100 96H100q-41 0-70.5 29.5T0 196zm0 400v100q0 41 29.5 70.5T100 796h1000q41 0 70.5-29.5T1200 696V596q0-41-29.5-70.5T1100 496H100q-41 0-70.5 29.5T0 596zm0 400v100q0 41 29.5 70.5T100 1196h1000q41 0 70.5-29.5t29.5-70.5V996q0-41-29.5-70.5T1100 896H100q-41 0-70.5 29.5T0 996zm600-400h500v100H600V596zm200-400h300v100H800V196zm100 800h200v100H900V996z"/><glyph unicode="" d="M100 1100v100h1000v-100H100zm50-100h900L700 500V200L500 0v500z"/><glyph unicode="" d="M0 200v200h1200V200q0-41-29.5-70.5T1100 100H100q-41 0-70.5 29.5T0 200zm0 300v400q0 41 29.5 70.5T100 1000h300v100q0 41 29.5 70.5T500 1200h200q41 0 70.5-29.5T800 1100v-100h300q41 0 70.5-29.5T1200 900V500H700v100H500V500H0zm500 500h200v100H500v-100z"/><glyph unicode="" d="M0 0v400l129-129 200 200 142-142-200-200L400 0H0zm0 800l129 129 200-200 142 142-200 200 129 129H0V800zm729-471l142 142 200-200 129 129V0H800l129 129zm0 542l200 200-129 129h400V800l-129 129-200-200z"/><glyph unicode="" d="M0 596q0 162 80 299t217 217 299 80 299-80 217-217 80-299-80-299T895 80 596 0 297 80 80 297 0 596zm182 0q0-172 121.5-293T596 182t292.5 121T1010 596q0 171-121.5 292.5T596 1010 303.5 888.5 182 596zm109 59q0 23 15.5 38.5T345 709t39-16 16-38q0-23-16-39t-39-16q-22 0-38 16t-16 39zm109 195q0 22 16 38.5t39 16.5q22 0 38-16t16-39-16-39-38-16q-23 0-39 16.5T400 850zm114-241q0 32 20.5 56.5T586 695l122 126 1 1q-9 14-9 28 0 22 16 38.5t39 16.5q22 0 38-16t16-39-16-39-38-16q-14 0-29 10l-55-145q17-22 17-51 0-36-25.5-61.5T601 522t-61.5 25.5T514 609zm286 46q0 22 16 38t39 16 38.5-15.5T909 655t-16-39-38-16q-23 0-39 16t-16 39z"/><glyph unicode="" d="M-40 375q-13-95 35-173 35-57 94-89t129-32q63 0 119 28 33 16 65 40.5t52.5 45.5 59.5 64q40 44 57 61l394 394q35 35 47 84t-3 96q-27 87-117 104-20 2-29 2-46 0-78.5-16.5T717 932L328 536l-7-7 69-67 377 373q20 22 39 38 23 23 50 23 38 0 53-36 16-39-20-75L342 238q-52-52-125-52-55 0-100 33t-54 96q-5 35 2.5 66T97 444t42 50 56 54q24 21 44 41l348 348q52 52 82.5 79.5t84 54T861 1097q25 0 48-4 95-17 154-94.5t51-175.5q-7-101-98-192L764 382 511 126l7-7 69-60 517 511q67 67 95 157t11 183q-16 87-67 154t-130 103q-69 33-152 33-107 0-197-55-40-24-111-95L41 538q-68-68-81-163z"/><glyph unicode="" d="M80 784q0 131 98.5 229.5T409 1112q143 0 241-129 103 129 246 129 129 0 226-98.5t97-229.5q0-46-17.5-91t-61-99-77-89.5T959 399Q762 208 666 77l-17-23-16 23q-43 58-100 122.5T441 299 340 399q-71 70-104.5 105.5t-77 89.5-61 99T80 784zm170 0q0-27 30.5-70t61.5-75.5 95-94.5l22-22q93-90 190-201 82 92 195 203l12 12q64 62 97.5 97t64.5 79 31 72q0 71-48 119.5T896 952q-74 0-132-83L646 698 532 872q-51 80-123 80-60 0-109.5-49.5T250 784z"/><glyph unicode="" d="M57 353q0-95 66-159L264 52q68-66 159-66 93 0 159 66l283 283q66 66 66 159t-66 159L724 794q-8 9-19 17L600 706l212-212-389-389-247 248 95 95-18 18q-46 45-75 101l-55-55q-66-66-66-159zm212 353q0-93 66-159l141-141q7-7 19-17l105 105-212 212 389 389 247-247-95-96 18-17q47-49 77-100l29 29q35 35 62.5 88t27.5 96q0 93-66 159l-141 141q-66 66-159 66-95 0-159-66L335 865q-66-64-66-159z"/><glyph unicode="" d="M200 100v953q0 21 30 46t81 48 129 38 163 15 162-15 127-38 79-48 29-46V100q0-41-29.5-70.5T900 0H300q-41 0-70.5 29.5T200 100zm100 200h600v700H300V300zm196-150q0-43 30.5-73.5T600 46t73.5 30.5T704 150t-30.5 73.5T600 254t-73.5-30.5T496 150z"/><glyph unicode="" d="M0 0l303 380 207 208-210 212h300l267 279-35 36q-15 14-15 35t15 35q14 15 35 15t35-15l283-282q15-15 15-36t-15-35q-14-15-35-15t-35 15l-36 35-279-267V300L588 510 380 303z"/><glyph unicode="" d="M295 433h139q5-77 48.5-126.5T600 242v335q-6 1-15.5 4t-11.5 3q-46 14-79 26.5t-72 36-62.5 52-40 72.5-16.5 99q0 92 44 159.5t109 101 144 40.5v78h100v-79q38-4 72.5-13.5T848 1125t71-53.5 51.5-84T995 869H836q-8 72-35 109.5T700 1029V722l64-14q34-7 64-16.5t70-31.5 67.5-52 47.5-80.5 20-112.5q0-139-89-224T700 95V18H600v78q-152 17-237 104-40 40-52.5 93.5T295 433zm171 456q0-29 8-51t16.5-34 29.5-22.5 31-13.5 38-10q7-2 11-3v274q-61-8-97.5-37.5T466 889zm234-652q170 18 170 151 0 64-44 99.5T700 548V237z"/><glyph unicode="" d="M100 600v100h166q-24 49-44 104-10 26-14.5 55.5t-3 72.5 25 90 68.5 87q97 88 263 88 129 0 230-89t101-208H739q0 52-34 89.5t-74 51.5-76 14q-37 0-79-14.5t-62-35.5q-41-44-41-101 0-28 16.5-69.5t28-62.5 41.5-72h241V600H503q8-50-2.5-115T469 391q-41-59-99-113 35 11 84 18t70 7q33 1 103-16t103-17q76 0 136 30l50-147q-41-25-80.5-36.5t-59-13T715 102q-23 0-128 33t-155 29q-39-4-82-17t-66-25l-24-11-55 145 16.5 11 15.5 10 13.5 9.5 14.5 12 14.5 14L297 331q48 55 54 126.5T321 600H100z"/><glyph unicode="" d="M2 300L300 0l298 300H400v900H200V300H2zm600 600l298 300 298-300h-198V0H800v900H602z"/><glyph unicode="" d="M2 300h198v900h200V300h198L300 0zM700 0v200h100V100h200V0H700zm0 400v100h300V300h-99V200H801v100h99v100H700zm0 300v500h300V700H900v100H800V700H700zm101 200h100v200H801V900z"/><glyph unicode="" d="M2 300h198v900h200V300h198L300 0zM700 0v500h300V0H900v100H800V0H700zm0 700v200h100V800h200V700H700zm0 400v100h300v-200h-99V900H801v100h99v100H700zm101-900h100v200H801V200z"/><glyph unicode="" d="M2 300L300 0l298 300H400v900H200V300H2zm798-200v400h300V0h-100v100H800zm0 1000v100h200V700H900v400H800zm101-900h100v200H901V200z"/><glyph unicode="" d="M2 300L300 0l298 300H400v900H200V300H2zm798 100v100h200V0H900v400H800zm0 400v400h300V700h-100v100H800zm101 100h100v200H901V900z"/><glyph unicode="" d="M2 300L300 0l298 300H400v900H200V300H2zm698-200v200h500V100H700zm0 300v200h400V400H700zm0 300v200h300V700H700zm0 300v200h200v-200H700z"/><glyph unicode="" d="M2 300L300 0l298 300H400v900H200V300H2zm698-200v200h200V100H700zm0 300v200h300V400H700zm0 300v200h400V700H700zm0 300v200h500v-200H700z"/><glyph unicode="" d="M0 400v300q0 165 117.5 282.5T400 1100h300q162 0 281-118.5T1100 700V400q0-165-118.5-282.5T700 0H400Q235 0 117.5 117.5T0 400zm200-100q0-41 29.5-70.5T300 200h500q41 0 70.5 29.5T900 300v500q0 41-29.5 70.5T800 900H300q-41 0-70.5-29.5T200 800V300z"/><glyph unicode="" d="M0 400v300q0 163 119 281.5T400 1100h300q165 0 282.5-117.5T1100 700V400q0-165-117.5-282.5T700 0H400Q237 0 118.5 117.5T0 400zm200-100q0-41 29.5-70.5T300 200h500q41 0 70.5 29.5T900 300v500q0 41-29.5 70.5T800 900H300q-41 0-70.5-29.5T200 800V300zm200 0l333 250-333 250V300z"/><glyph unicode="" d="M0 400v300q0 163 117.5 281.5T400 1100h300q163 0 281.5-119T1100 700V400q0-165-117.5-282.5T700 0H400Q235 0 117.5 117.5T0 400zm200-100q0-41 29.5-70.5T300 200h500q41 0 70.5 29.5T900 300v500q0 41-29.5 70.5T800 900H300q-41 0-70.5-29.5T200 800V300zm100 400l250-333 250 333H300z"/><glyph unicode="" d="M0 400v300q0 165 117.5 282.5T400 1100h300q165 0 282.5-117.5T1100 700V400q0-162-118.5-281T700 0H400Q235 0 117.5 118.5T0 400zm200-100q0-41 29.5-70.5T300 200h500q41 0 70.5 29.5T900 300v500q0 41-29.5 70.5T800 900H300q-41 0-70.5-29.5T200 800V300zm100 100h500L550 733z"/><glyph unicode="" d="M0 400v300h300v200l400-350-400-350v200H0zM500 0v200h500q41 0 70.5 29.5T1100 300v500q0 41-29.5 70.5T1000 900H500v200h400q165 0 282.5-117.5T1300 700V400q0-165-117.5-282.5T900 0H500z"/><glyph unicode="" d="M217 519q8-19 31-19h302Q395 62 390 42q-5-21 4-32l9-8h9q14 0 26 15 11 13 274.5 321.5T977 647q14 19 5 36-8 17-31 17l-301-1q1 4 78 219.5t79 227.5q2 15-5 27l-9 9h-9q-15 0-25-16-4-6-98-111.5t-228.5-257T223 560q-16-19-6-41z"/><glyph unicode="" d="M0 400q0-165 117.5-282.5T400 0h300q47 0 100 15v185H300q-41 0-70.5 29.5T200 300v500q0 41 29.5 70.5T300 900h500v185q-14 4-114 7.5t-193 5.5l-93 2q-165 0-282.5-117.5T0 700V400zm600 0v300h300v200l400-350-400-350v200H600z"/><glyph unicode="" d="M0 400q0-165 117.5-282.5T400 0h300q163 0 281.5 117.5T1100 400v98l-78 73-122-123V300q0-41-29.5-70.5T800 200H300q-41 0-70.5 29.5T200 300v500q0 41 29.5 70.5T300 900h156l118 122-74 78H400q-165 0-282.5-117.5T0 700V400zm496 309l353 342-149 149h500V700l-149 149-342-353z"/><glyph unicode="" d="M4 600q0 162 80 299t217 217 299 80 299-80 217-217 80-299-80-299T899 84 600 4 301 84 84 301 4 600zm182 0q0-171 121.5-292.5T600 186t292.5 121.5T1014 600 892.5 892.5 600 1014 307.5 892.5 186 600zm220 0q0 80 57 137t137 57 137-57 57-137-57-137-137-57-137 57-57 137z"/><glyph unicode="" d="M0 0v275q0 11 7 18t18 7h1048q11 0 19-7.5t8-17.5V0H0zm100 800l445-500 450 500H700v400H400V800H100zm800-650h100v50H900v-50z"/><glyph unicode="" d="M0 0v275q0 11 7 18t18 7h1048q11 0 19-7.5t8-17.5V0H0zm100 700h300V400h300v300h295l-445 500zm800-550h100v50H900v-50z"/><glyph unicode="" d="M0 0v275q0 11 7 18t18 7h1048q11 0 19-7.5t8-17.5V0H0zm100 705l305-305 596 596-154 155-442-442-150 151zm800-555h100v50H900v-50z"/><glyph unicode="" d="M0 0v275q0 11 7 18t18 7h1048q11 0 19-7.5t8-17.5V0H0zm100 988l97-98 212 213-97 97zm100-588l697 1 3 699-250-239-149 149-212-212 149-149zm700-250h100v50H900v-50z"/><glyph unicode="" d="M0 0v275q0 11 7 18t18 7h1048q11 0 19-7.5t8-17.5V0H0zm200 612l212-212 98 97-213 212zm100 588l239-250-149-149 212-212 149 148 249-237-1 697zM900 150h100v50H900v-50z"/><glyph unicode="" d="M23 415l1177 784V120L725 392 415-1v416H23zm471-205l672 938-672-712V210z"/><glyph unicode="" d="M0 150v1000q0 20 14.5 35t35.5 15h250V900h500v300h100l200-200V150q0-21-15-35.5t-35-14.5H900v400H200V100H50q-21 0-35.5 14.5T0 150zm600 850h100v200H600v-200z"/><glyph unicode="" d="M0 150v1000q0 20 14.5 35t35.5 15h250V900h500v300h100l200-200V782L824 507 704 627 578 500H200V100H50q-21 0-35.5 14.5T0 150zm581 156l123 123 120-120 353 352 123-123L825 62zm19 694h100v200H600v-200z"/><glyph unicode="" d="M0 150v1000q0 20 14.5 35t35.5 15h250V900h500v300h100l200-200V731L997 628 827 798 529 500H200V100H50q-21 0-35.5 14.5T0 150zm600 850h100v200H600v-200zm100-867l170 170-170 170 127 127 170-170 170 170 127-128-170-169 170-170L1167 6 997 176 827 6z"/><glyph unicode="" d="M0 150v1000q0 20 14.5 35t35.5 15h250V900h500v300h100l200-200V700H700V500H200V100H50q-21 0-35.5 14.5T0 150zm600 150L900 0l300 300h-200v300H800V300H600zm0 700v200h100v-200H600z"/><glyph unicode="" d="M0 150v1000q0 20 14.5 35t35.5 15h250V900h500v300h100l200-200V598L900 798 602 500H200V100H50q-21 0-35.5 14.5T0 150zm600 150h200V0h200v300h200L900 600zm0 700v200h100v-200H600z"/><glyph unicode="" d="M0 250q0-21 14.5-35.5T50 200h1100q21 0 35.5 14.5T1200 250v550H0V250zm0 650h1200v150q0 21-14.5 35.5T1150 1100H50q-21 0-35.5-14.5T0 1050V900zm100-600v200h400V300H100z"/><glyph unicode="" d="M0 400l300 298V500h400V300H300V102zm100 400v200h100V800H100zm200 0v200h100V800H300zm200 0v200h400v198l300-298-300-298v198H500zm300-500v200h100V300H800zm200 0h100v200h-100V300z"/><glyph unicode="" d="M100 700v400l50 100 50-100V800h100v300l50 100 50-100V800h100v300l50 100 50-100V700L500 497V50q0-21-14.5-35.5T450 0H250q-21 0-35.5 14.5T200 50v447zm700-103q0-29 10.5-55.5t25-43 29-28.5 25.5-18l10-5V50q0-21 14.5-35.5T950 0h200q21 0 35.5 14.5T1200 50v1106q0 31-18 40.5t-44-7.5l-276-116q-25-17-43.5-51.5T800 956V597z"/><glyph unicode="" d="M100 0h400v56q-75 0-87.5 6T400 106v394h500V106q0-38-12.5-44T800 56V0h400v56q-4 0-11 .5t-24 3-30 7-24 15-11 24.5v888q0 22 25 34.5t50 13.5l25 2v56H800v-56q75 0 87.5-6t12.5-44V600H400v394q0 38 12.5 44t87.5 6v56H100v-56q4 0 11-.5t24-3 30-7 24-15 11-24.5V106q0-22-25-34.5T125 58l-25-2V0z"/><glyph unicode="" d="M0 300q0-41 29.5-70.5T100 200h300q41 0 70.5 29.5T500 300v500q0 41-29.5 70.5T400 900H100q-41 0-70.5-29.5T0 800V300zm100-200h400l200 200h105l295 98V100H675L575 0H200zm0 200v200h300V300H100zm0 300v200h300V600H100zm0 400h400l200-200v-98l295 98h105v200H675l-100 100H200zm600-598v163l400 133V535z"/><glyph unicode="" d="M16.5 974.5q.5-21.5 16-90t46.5-140T183 567t175-208q103-103 207.5-176t180-103.5 137-47T975 16l31 1 163 162q17 18 13.5 41t-22.5 37L968 393q-19 14-45 12t-42-19L763 268Q621 369 495 495T268 763l118 118q17 17 20 41.5T395 967l-139 194q-14 19-36.5 22t-40.5-14L17 1007q-1-11-.5-32.5z"/><glyph unicode="" d="M0 50v212q0 20 10.5 45.5T35 347l365 303v50q0 4 1 10.5t12 22.5 30 28.5 60 23 97 10.5 97-10 60-23.5 30-27.5 12-24l1-10v-50l365-303q14-14 24.5-39.5T1200 262V50q0-21-14.5-35.5T1150 0H50Q30 0 15 14.5T0 50zm0 662q0-21 14.5-33.5T49 670l202 33q20 4 34.5 21t14.5 38v146q141 24 300 24t300-24V762q0-21 14.5-38t34.5-21l202-33q20-4 34.5 8.5T1200 712v200q-6 8-19 20.5t-63 45-112 57-171 45-235 20.5q-92 0-175-10.5t-141.5-27T175 1026t-81.5-40T40 949.5 9 922l-9-10V712z"/><glyph unicode="" d="M100 0v100h1100V0H100zm75 200h950l-125 150v250l100 100v400h-100V900H900v200H700V900H600v200H400V900H300v200H200V700l100-100V350z"/><glyph unicode="" d="M100 0h300v400q0 41-29.5 70.5T300 500H200q-41 0-70.5-29.5T100 400V0zm400 0v1000q0 41 29.5 70.5T600 1100h100q41 0 70.5-29.5T800 1000V0H500zm400 0v700q0 41 29.5 70.5T1000 800h100q41 0 70.5-29.5T1200 700V0H900z"/><glyph unicode="" d="M-100 300v500q0 124 88 212t212 88h700q124 0 212-88t88-212V300q0-124-88-212T900 0H200Q76 0-12 88t-88 212zm200-100h900v700H100V200zm100 100h300v300H300v100h200v100H200V500h200V400H200V300zm400 0h200v100h100v300H800v100H600V300zm100 100v300h100V400H700z"/><glyph unicode="" d="M-100 300v500q0 124 88 212t212 88h700q124 0 212-88t88-212V300q0-124-88-212T900 0H200Q76 0-12 88t-88 212zm200-100h900v700H100V200zm100 100h100v200h100V300h100v500H400V600H300v200H200V300zm400 0h200v100h100v300H800v100H600V300zm100 100v300h100V400H700z"/><glyph unicode="" d="M-100 300v500q0 124 88 212t212 88h700q124 0 212-88t88-212V300q0-124-88-212T900 0H200Q76 0-12 88t-88 212zm200-100h900v700H100V200zm100 100h300v100H300v300h200v100H200V300zm400 0h300v100H700v300h200v100H600V300z"/><glyph unicode="" d="M-100 300v500q0 124 88 212t212 88h700q124 0 212-88t88-212V300q0-124-88-212T900 0H200Q76 0-12 88t-88 212zm200-100h900v700H100V200zm100 350l300-150v300zm400-150l300 150-300 150V400z"/><glyph unicode="" d="M-100 300v500q0 124 88 212t212 88h700q124 0 212-88t88-212V300q0-124-88-212T900 0H200Q76 0-12 88t-88 212zm200-100h900v700H100V200zm100 100v500h700V300H200zm100 100h130q41 0 68 42t27 107-28.5 108-66.5 43H300V400zm275 149q0-65 27-107t68-42h130v300H670q-38 0-66.5-43T575 549z"/><glyph unicode="" d="M-100 300v500q0 124 88 212t212 88h700q124 0 212-88t88-212V300q0-124-88-212T900 0H200Q76 0-12 88t-88 212zm200-100h900v700H100V200zm100 100h300v300H300v100h200v100H200V500h200V400H200V300zm401 0h100v100H601V300zm99 400h100V300h100v500H700V700z"/><glyph unicode="" d="M-100 300v500q0 124 88 212t212 88h700q124 0 212-88t88-212V300q0-124-88-212T900 0H200Q76 0-12 88t-88 212zm200-100h900v700H100V200zm100 100h300v400H300v100H200V300zm101 100v200h100V400H301zm300-100h100v100H601V300zm99 400h100V300h100v500H700V700z"/><glyph unicode="" d="M-100 300v500q0 124 88 212t212 88h700q124 0 212-88t88-212V300q0-124-88-212T900 0H200Q76 0-12 88t-88 212zm200-100h900v700H100V200zm100 500v100h300V500h-99V400H301v100h99v200H200zm1-400v100h100V300H201zm400 0v100h100V300H601zm99 400v100h200V300H800v400H700z"/><glyph unicode="" d="M4 600q0 162 80 299t217 217 299 80 299-80 217-217 80-299-80-299T899 84 600 4 301 84 84 301 4 600zm182 0q0-171 121.5-292.5T600 186t292.5 121.5T1014 600 892.5 892.5 600 1014 307.5 892.5 186 600zm214-100v200l100 100h300V700H500V500h300V400H500z"/><glyph unicode="" d="M0 600q0 162 80 299t217 217 299 80 299-80 217-217 80-299-80-299T895 84 596 4 297 84 80 301 0 600zm182 0q0-171 121.5-292.5T596 186t292.5 121.5T1010 600 888.5 892.5 596 1014 303.5 892.5 182 600zm218-200v400h300l100-100V600H700v100H500V600h200V500H500V400H400zm300 0v100h100V400H700z"/><glyph unicode="" d="M-14 494q0-80 56.5-137T178 300h222v300h400V300h128q120 0 205 86.5t85 207.5-85 207-205 86q-46 0-90-14-44 97-134.5 156.5T503 1089q-152 0-260-107.5T135 721q0-25 2-37-66-14-108.5-67.5T-14 494zm314-294h200v300h200V200h200L600-100z"/><glyph unicode="" d="M-14 494q0-80 56.5-137T178 300h8l414 414 403-403q94 26 154.5 104.5T1218 594q0 120-85 206.5T928 887q-46 0-90-14-44 97-134.5 156.5T503 1089q-152 0-260-107.5T135 721q0-25 2-37-66-14-108.5-67.5T-14 494zm314-294l300 300 300-300H700v-300H500v300H300z"/><glyph unicode="" d="M100 200h400V45L425 0h350l-75 45v155h400L830 500h170L730 800h170l-300 333-300-333h170L200 500h170z"/><glyph unicode="" d="M121 700q0-53 28.5-97t75.5-65q-4-16-4-38 0-74 52.5-126.5T400 321q56 0 100 30V45L425 0h350l-75 45v306q46-30 100-30 74 0 126.5 52.5T979 500q0 24-9 55 50 32 79.5 83t29.5 112q0 90-61.5 155.5T867 977q-26 89-99.5 145.5T600 1179q-116 0-197.5-81.5T321 900q0-4 1-11.5t1-11.5q-14 2-23 2-74 0-126.5-52.5T121 700z"/></font>
</defs>
</svg>
